<?xml version="1.0" encoding="UTF-8"?>
<svg width="20px" height="16px" viewBox="0 0 20 16" version="1.1" xmlns="http://www.w3.org/2000/svg" xmlns:xlink="http://www.w3.org/1999/xlink">
    <!-- Generator: Sketch 47.1 (45422) - http://www.bohemiancoding.com/sketch -->
    <title>Group</title>
    <desc>Created with Sketch.</desc>
    <defs></defs>
    <g id="Welcome" stroke="none" stroke-width="1" fill="none" fill-rule="evenodd">
        <g id="About" transform="translate(-1305.000000, -1218.000000)" fill="#00D8FF">
            <g id="Group" transform="translate(1305.000000, 1218.000000)">
                <path d="M2.62501798,4 L0.37498202,4 C0.27343338,4 0.185549216,4.03696601 0.11132953,4.11118569 C0.0371098432,4.18554922 0,4.27343338 0,4.37498202 L0,6.62501798 C0,6.72656662 0.0371098432,6.81459462 0.11132953,6.88867047 C0.185549216,6.96274632 0.27343338,7 0.37498202,7 L2.62501798,7 C2.72656662,7 2.81445078,6.96289016 2.88867047,6.88867047 C2.96289016,6.81445078 3,6.72656662 3,6.62501798 L3,4.37498202 C3,4.27343338 2.96289016,4.18554922 2.88867047,4.11118569 C2.81445078,4.03710984 2.72656662,4 2.62501798,4 L2.62501798,4 Z" id="Shape"></path>
                <path d="M2.62501798,13 L0.37498202,13 C0.27343338,13 0.185549216,13.036966 0.11132953,13.1111857 C0.0371098432,13.1854054 0,13.2732895 0,13.374982 L0,15.625018 C0,15.7265666 0.0371098432,15.8143069 0.11132953,15.8886705 C0.185549216,15.963034 0.27343338,16 0.37498202,16 L2.62501798,16 C2.72656662,16 2.81445078,15.9628902 2.88867047,15.8886705 C2.96289016,15.8144508 3,15.7265666 3,15.625018 L3,13.374982 C3,13.2732895 2.96289016,13.1855492 2.88867047,13.1111857 C2.81445078,13.0371098 2.72656662,13 2.62501798,13 L2.62501798,13 Z" id="Shape"></path>
                <path d="M2.62501798,9 L0.37498202,9 C0.27343338,9 0.185549216,9.03725547 0.11132953,9.11133487 C0.0371098432,9.18541427 0,9.27344649 0,9.375 L0,11.6251438 C0,11.7268412 0.0371098432,11.8145857 0.11132953,11.8889528 C0.185549216,11.9630322 0.27343338,12 0.37498202,12 L2.62501798,12 C2.72656662,12 2.81445078,11.9631761 2.88867047,11.8889528 C2.96289016,11.8147296 3,11.7268412 3,11.6251438 L3,9.375 C3,9.27344649 2.96289016,9.18555811 2.88867047,9.11133487 C2.81445078,9.03711162 2.72656662,9 2.62501798,9 L2.62501798,9 Z" id="Shape"></path>
                <path d="M2.62501798,0 L0.37498202,0 C0.27343338,0 0.185549216,0.0371098432 0.11132953,0.11132953 C0.0371098432,0.185549216 0,0.27343338 0,0.37498202 L0,2.62501798 C0,2.72656662 0.0371098432,2.81445078 0.11132953,2.88867047 C0.185549216,2.96289016 0.27343338,3 0.37498202,3 L2.62501798,3 C2.72656662,3 2.81445078,2.96303399 2.88867047,2.88867047 C2.96289016,2.81445078 3,2.72656662 3,2.62501798 L3,0.37498202 C3,0.27343338 2.96289016,0.185549216 2.88867047,0.11132953 C2.81445078,0.0372536798 2.72656662,0 2.62501798,0 L2.62501798,0 Z" id="Shape"></path>
                <path d="M19.6363827,13 L4.36361734,13 C4.26514636,13 4.17992573,13.036966 4.10795544,13.1111857 C4.03598515,13.1854054 4,13.2732895 4,13.374982 L4,15.625018 C4,15.7265666 4.03598515,15.8143069 4.10795544,15.8886705 C4.17992573,15.963034 4.26500689,16 4.36361734,16 L19.6363827,16 C19.7349931,16 19.8200743,15.9628902 19.892184,15.8886705 C19.9641543,15.8143069 20,15.7265666 20,15.625018 L20,13.374982 C20,13.2732895 19.9640149,13.1855492 19.892184,13.1111857 C19.8200743,13.0371098 19.7349931,13 19.6363827,13 L19.6363827,13 Z" id="Shape"></path>
                <path d="M19.6363827,9 L4.36361734,9 C4.26514636,9 4.17992573,9.03725547 4.10795544,9.11133487 C4.03598515,9.18541427 4,9.27344649 4,9.375 L4,11.6251438 C4,11.7268412 4.03598515,11.8145857 4.10795544,11.8889528 C4.17992573,11.9630322 4.26500689,12 4.36361734,12 L19.6363827,12 C19.7349931,12 19.8200743,11.9631761 19.892184,11.8889528 C19.9641543,11.8145857 20,11.7268412 20,11.6251438 L20,9.375 C20,9.27344649 19.9640149,9.18555811 19.892184,9.11133487 C19.8200743,9.03725547 19.7349931,9 19.6363827,9 L19.6363827,9 Z" id="Shape"></path>
                <path d="M19.892184,0.11132953 C19.8200743,0.0372536798 19.7349931,0 19.6363827,0 L4.36361734,0 C4.26514636,0 4.17992573,0.0371098432 4.10795544,0.11132953 C4.03598515,0.185549216 4,0.27343338 4,0.37498202 L4,2.62501798 C4,2.72656662 4.03598515,2.81445078 4.10795544,2.88867047 C4.17992573,2.96289016 4.26500689,3 4.36361734,3 L19.6363827,3 C19.7349931,3 19.8200743,2.96303399 19.892184,2.88867047 C19.9641543,2.81445078 20,2.72656662 20,2.62501798 L20,0.37498202 C20,0.27343338 19.9640149,0.185549216 19.892184,0.11132953 L19.892184,0.11132953 Z" id="Shape"></path>
                <path d="M19.6363827,4 L4.36361734,4 C4.26514636,4 4.17992573,4.03696601 4.10795544,4.11118569 C4.03598515,4.18554922 4,4.27343338 4,4.37498202 L4,6.62501798 C4,6.72656662 4.03598515,6.81445078 4.10795544,6.88867047 C4.17992573,6.96274632 4.26500689,7 4.36361734,7 L19.6363827,7 C19.7349931,7 19.8200743,6.96289016 19.892184,6.88867047 C19.9641543,6.81445078 20,6.72656662 20,6.62501798 L20,4.37498202 C20,4.27343338 19.9640149,4.18554922 19.892184,4.11118569 C19.8200743,4.03710984 19.7349931,4 19.6363827,4 L19.6363827,4 Z" id="Shape"></path>
            </g>
        </g>
    </g>
</svg>