<?xml version="1.0" encoding="UTF-8" standalone="no"?>
<!DOCTYPE svg PUBLIC "-//W3C//DTD SVG 1.1//EN" "http://www.w3.org/Graphics/SVG/1.1/DTD/svg11.dtd">
<svg width="100%" height="100%" viewBox="0 0 492 799" version="1.1" xmlns="http://www.w3.org/2000/svg" xmlns:xlink="http://www.w3.org/1999/xlink" xml:space="preserve" xmlns:serif="http://www.serif.com/" style="fill-rule:evenodd;clip-rule:evenodd;stroke-linejoin:round;stroke-miterlimit:1.41421;">
    <g id="Artboard1" transform="matrix(1,0,0,0.990446,-0.997079,6.63022)">
        <rect x="0.997" y="-6.694" width="491.078" height="806.258" style="fill:none;"/>
        <clipPath id="_clip1">
            <rect x="0.997" y="-6.694" width="491.078" height="806.258"/>
        </clipPath>
        <g clip-path="url(#_clip1)">
            <g transform="matrix(1.7902,0,0,1.80747,-2893.71,-938.4)">
                <path d="M1645.55,515.742C1645.55,540.097 1629.55,540.097 1629.55,564.453C1629.55,588.808 1645.55,588.808 1645.55,613.163C1645.55,637.518 1629.55,637.518 1629.55,661.873C1629.55,686.229 1645.55,686.229 1645.55,710.585C1645.55,734.942 1629.55,734.942 1629.55,759.299C1629.55,783.657 1645.55,783.657 1645.55,808.014C1645.55,832.371 1629.55,832.371 1629.55,856.728C1629.55,881.086 1645.55,881.086 1645.55,905.443C1645.55,929.8 1629.55,929.8 1629.55,954.156C1629.55,978.513 1645.55,978.513 1645.55,1002.87C1645.55,1027.23 1629.55,1027.23 1629.55,1051.59C1629.55,1075.94 1645.55,1075.94 1645.55,1100.3C1645.55,1124.66 1629.55,1124.66 1629.55,1149.02C1629.55,1173.38 1645.55,1173.38 1645.55,1197.74" style="fill:none;stroke:rgb(0,216,255);stroke-width:18.62px;"/>
            </g>
            <g transform="matrix(1.7902,0,0,1.80747,-2893.71,-938.4)">
                <path d="M1684.4,515.742C1684.4,540.097 1668.4,540.097 1668.4,564.453C1668.4,588.808 1684.4,588.808 1684.4,613.163C1684.4,637.518 1668.4,637.518 1668.4,661.873C1668.4,686.229 1684.4,686.229 1684.4,710.585C1684.4,734.942 1668.4,734.942 1668.4,759.299C1668.4,783.657 1684.4,783.657 1684.4,808.014C1684.4,832.371 1668.4,832.371 1668.4,856.728C1668.4,881.086 1684.4,881.086 1684.4,905.443C1684.4,929.8 1668.4,929.8 1668.4,954.156C1668.4,978.513 1684.4,978.513 1684.4,1002.87C1684.4,1027.23 1668.4,1027.23 1668.4,1051.59C1668.4,1075.94 1684.4,1075.94 1684.4,1100.3C1684.4,1124.66 1668.4,1124.66 1668.4,1149.02C1668.4,1173.38 1684.4,1173.38 1684.4,1197.74" style="fill:none;stroke:rgb(0,216,255);stroke-width:18.62px;"/>
            </g>
            <g transform="matrix(1.7902,0,0,1.80747,-2893.71,-938.4)">
                <path d="M1723.25,515.742C1723.25,540.097 1707.25,540.097 1707.25,564.453C1707.25,588.808 1723.25,588.808 1723.25,613.163C1723.25,637.518 1707.25,637.518 1707.25,661.873C1707.25,686.229 1723.25,686.229 1723.25,710.585C1723.25,734.942 1707.25,734.942 1707.25,759.299C1707.25,783.657 1723.25,783.657 1723.25,808.014C1723.25,832.371 1707.25,832.371 1707.25,856.728C1707.25,881.086 1723.25,881.086 1723.25,905.443C1723.25,929.8 1707.25,929.8 1707.25,954.156C1707.25,978.513 1723.25,978.513 1723.25,1002.87C1723.25,1027.23 1707.25,1027.23 1707.25,1051.59C1707.25,1075.94 1723.25,1075.94 1723.25,1100.3C1723.25,1124.66 1707.25,1124.66 1707.25,1149.02C1707.25,1173.38 1723.25,1173.38 1723.25,1197.74" style="fill:none;stroke:rgb(0,216,255);stroke-width:18.62px;"/>
            </g>
            <g transform="matrix(1.7902,0,0,1.80747,-2893.71,-938.4)">
                <path d="M1762.1,515.742C1762.1,540.097 1746.1,540.097 1746.1,564.453C1746.1,588.808 1762.1,588.808 1762.1,613.163C1762.1,637.518 1746.1,637.518 1746.1,661.873C1746.1,686.229 1762.1,686.229 1762.1,710.585C1762.1,734.942 1746.1,734.942 1746.1,759.299C1746.1,783.657 1762.1,783.657 1762.1,808.014C1762.1,832.371 1746.1,832.371 1746.1,856.728C1746.1,881.086 1762.1,881.086 1762.1,905.443C1762.1,929.8 1746.1,929.8 1746.1,954.156C1746.1,978.513 1762.1,978.513 1762.1,1002.87C1762.1,1027.23 1746.1,1027.23 1746.1,1051.59C1746.1,1075.94 1762.1,1075.94 1762.1,1100.3C1762.1,1124.66 1746.1,1124.66 1746.1,1149.02C1746.1,1173.38 1762.1,1173.38 1762.1,1197.74" style="fill:none;stroke:rgb(0,216,255);stroke-width:18.62px;"/>
            </g>
            <g transform="matrix(1.7902,0,0,1.80747,-2893.71,-938.4)">
                <path d="M1800.95,515.742C1800.95,540.097 1784.95,540.097 1784.95,564.453C1784.95,588.808 1800.95,588.808 1800.95,613.163C1800.95,637.518 1784.95,637.518 1784.95,661.873C1784.95,686.229 1800.95,686.229 1800.95,710.585C1800.95,734.942 1784.95,734.942 1784.95,759.299C1784.95,783.657 1800.95,783.657 1800.95,808.014C1800.95,832.371 1784.95,832.371 1784.95,856.728C1784.95,881.086 1800.95,881.086 1800.95,905.443C1800.95,929.8 1784.95,929.8 1784.95,954.156C1784.95,978.513 1800.95,978.513 1800.95,1002.87C1800.95,1027.23 1784.95,1027.23 1784.95,1051.59C1784.95,1075.94 1800.95,1075.94 1800.95,1100.3C1800.95,1124.66 1784.95,1124.66 1784.95,1149.02C1784.95,1173.38 1800.95,1173.38 1800.95,1197.74" style="fill:none;stroke:rgb(0,216,255);stroke-width:18.62px;"/>
            </g>
            <g transform="matrix(1.7902,0,0,1.80747,-2893.71,-938.4)">
                <path d="M1839.81,515.742C1839.81,540.097 1823.81,540.097 1823.81,564.453C1823.81,588.808 1839.81,588.808 1839.81,613.163C1839.81,637.518 1823.81,637.518 1823.81,661.873C1823.81,686.229 1839.81,686.229 1839.81,710.585C1839.81,734.942 1823.81,734.942 1823.81,759.299C1823.81,783.657 1839.81,783.657 1839.81,808.014C1839.81,832.371 1823.81,832.371 1823.81,856.728C1823.81,881.086 1839.81,881.086 1839.81,905.443C1839.81,929.8 1823.81,929.8 1823.81,954.156C1823.81,978.513 1839.81,978.513 1839.81,1002.87C1839.81,1027.23 1823.81,1027.23 1823.81,1051.59C1823.81,1075.94 1839.81,1075.94 1839.81,1100.3C1839.81,1124.66 1823.81,1124.66 1823.81,1149.02C1823.81,1173.38 1839.81,1173.38 1839.81,1197.74" style="fill:none;stroke:rgb(0,216,255);stroke-width:18.62px;"/>
            </g>
            <g transform="matrix(1.7902,0,0,1.80747,-2893.71,-938.4)">
                <path d="M1878.66,515.742C1878.66,540.097 1862.66,540.097 1862.66,564.453C1862.66,588.808 1878.66,588.808 1878.66,613.163C1878.66,637.518 1862.66,637.518 1862.66,661.873C1862.66,686.229 1878.66,686.229 1878.66,710.585C1878.66,734.942 1862.66,734.942 1862.66,759.299C1862.66,783.657 1878.66,783.657 1878.66,808.014C1878.66,832.371 1862.66,832.371 1862.66,856.728C1862.66,881.086 1878.66,881.086 1878.66,905.443C1878.66,929.8 1862.66,929.8 1862.66,954.156C1862.66,978.513 1878.66,978.513 1878.66,1002.87C1878.66,1027.23 1862.66,1027.23 1862.66,1051.59C1862.66,1075.94 1878.66,1075.94 1878.66,1100.3C1878.66,1124.66 1862.66,1124.66 1862.66,1149.02C1862.66,1173.38 1878.66,1173.38 1878.66,1197.74" style="fill:none;stroke:rgb(0,216,255);stroke-width:18.62px;"/>
            </g>
        </g>
    </g>
</svg>
