<?xml version="1.0" encoding="UTF-8" standalone="no"?>
<!DOCTYPE svg PUBLIC "-//W3C//DTD SVG 1.1//EN" "http://www.w3.org/Graphics/SVG/1.1/DTD/svg11.dtd">
<svg width="100%" height="100%" viewBox="0 0 415 416" version="1.1" xmlns="http://www.w3.org/2000/svg" xmlns:xlink="http://www.w3.org/1999/xlink" xml:space="preserve" xmlns:serif="http://www.serif.com/" style="fill-rule:evenodd;clip-rule:evenodd;stroke-linejoin:round;stroke-miterlimit:1.41421;">
    <g transform="matrix(4.16667,0,0,4.16667,-1292.29,-80.2167)">
        <path d="M409.661,119.251L409.798,119.251L409.798,118.367L409.421,118.256L409.661,119.251Z" style="fill:rgb(238,76,135);fill-rule:nonzero;"/>
    </g>
    <g transform="matrix(4.16667,0,0,4.16667,-1292.29,-80.2167)">
        <path d="M409.798,19.252L409.661,19.252L409.798,19.818L409.798,19.252Z" style="fill:rgb(238,76,135);fill-rule:nonzero;"/>
    </g>
    <g transform="matrix(4.16667,0,0,4.16667,-1292.29,-80.2167)">
        <path d="M364.513,119.251L367.77,119.251L368.021,118.288L364.513,119.251Z" style="fill:rgb(238,76,135);fill-rule:nonzero;"/>
    </g>
    <g transform="matrix(4.16667,0,0,4.16667,-1292.29,-80.2167)">
        <path d="M309.798,119.251L312.796,119.251L309.798,118.367L309.798,119.251Z" style="fill:rgb(238,76,135);fill-rule:nonzero;"/>
    </g>
    <g transform="matrix(4.16667,0,0,4.16667,-1292.29,-80.2167)">
        <path d="M313.418,34.813L309.798,19.818L309.798,39.621C310.045,39.609 310.294,39.579 310.543,39.518C312.637,39.012 313.922,36.904 313.418,34.813Z" style="fill:white;fill-rule:nonzero;"/>
    </g>
    <g transform="matrix(4.16667,0,0,4.16667,-1292.29,-80.2167)">
        <path d="M329.551,22.156C330.03,21.7 330.4,21.116 330.601,20.436C330.718,20.041 330.749,19.643 330.741,19.252L312.796,19.252L325.758,23.073C327.143,23.482 328.575,23.086 329.551,22.156Z" style="fill:white;fill-rule:nonzero;"/>
    </g>
    <g transform="matrix(4.16667,0,0,4.16667,-1292.29,-80.2167)">
        <path d="M315.563,85.567C315.873,86.977 316.912,88.041 318.196,88.447C318.827,88.647 319.518,88.689 320.21,88.537C322.313,88.074 323.642,85.994 323.179,83.89L318.064,60.662C317.765,59.3 316.763,58.204 315.435,57.782C314.106,57.362 312.655,57.682 311.626,58.622L309.798,60.292L309.798,70.855L311.9,68.934L315.563,85.567Z" style="fill:rgb(75,197,227);fill-rule:nonzero;"/>
    </g>
    <g transform="matrix(4.16667,0,0,4.16667,-1292.29,-80.2167)">
        <path d="M393.818,80.174C395.271,81.764 397.738,81.873 399.327,80.422L409.798,70.855L409.798,60.292L394.067,74.666C392.477,76.118 392.366,78.585 393.818,80.174Z" style="fill:rgb(75,197,227);fill-rule:nonzero;"/>
    </g>
    <g transform="matrix(4.16667,0,0,4.16667,-1292.29,-80.2167)">
        <path d="M364.747,38.53C365.218,38.995 365.812,39.346 366.498,39.526C368.582,40.071 370.712,38.823 371.257,36.739L375.831,19.252L367.77,19.252L363.713,34.766C363.347,36.163 363.787,37.583 364.747,38.53Z" style="fill:rgb(75,197,227);fill-rule:nonzero;"/>
    </g>
    <g transform="matrix(4.16667,0,0,4.16667,-1292.29,-80.2167)">
        <path d="M346.805,20.068C347.375,22.145 349.522,23.364 351.597,22.795L364.513,19.252L346.675,19.252C346.689,19.522 346.729,19.795 346.805,20.068Z" style="fill:rgb(75,197,227);fill-rule:nonzero;"/>
    </g>
    <g transform="matrix(4.16667,0,0,4.16667,-1292.29,-80.2167)">
        <path d="M376.244,109.968C375.253,108.988 373.815,108.612 372.472,108.981L349.534,115.276C347.729,115.771 346.574,117.455 346.675,119.251L364.513,119.251L368.021,118.288L367.77,119.251L375.831,119.251L377.275,113.728C377.628,112.38 377.234,110.946 376.244,109.968Z" style="fill:rgb(75,197,227);fill-rule:nonzero;"/>
    </g>
    <g transform="matrix(4.16667,0,0,4.16667,-1292.29,-80.2167)">
        <path d="M327.963,115.593L309.798,110.236L309.798,118.367L312.796,119.251L330.741,119.251C330.706,117.599 329.634,116.085 327.963,115.593Z" style="fill:white;fill-rule:nonzero;"/>
    </g>
    <g transform="matrix(4.16667,0,0,4.16667,-1292.29,-80.2167)">
        <path d="M409.798,39.621L409.798,19.818L409.661,19.252L401.64,19.252L405.838,36.642C406.282,38.487 407.971,39.702 409.798,39.621Z" style="fill:white;fill-rule:nonzero;"/>
    </g>
    <g transform="matrix(4.16667,0,0,4.16667,-1292.29,-80.2167)">
        <path d="M380.261,52.753L389.021,44.823L391.509,56.374C391.719,57.352 392.436,58.094 393.326,58.379C393.764,58.521 394.242,58.552 394.722,58.449C396.184,58.134 397.112,56.696 396.797,55.235L393.324,39.103C393.12,38.158 392.429,37.393 391.509,37.097C390.589,36.801 389.581,37.018 388.864,37.667L376.63,48.741C375.522,49.745 375.437,51.454 376.44,52.563C377.443,53.67 379.153,53.753 380.261,52.753Z" style="fill:rgb(247,237,54);fill-rule:nonzero;"/>
    </g>
    <g transform="matrix(4.16667,0,0,4.16667,-1292.29,-80.2167)">
        <path d="M326.953,57.274C328.344,57.822 329.913,57.138 330.462,55.751L334.797,44.757L342.149,54.008C342.771,54.792 343.743,55.139 344.668,55.001C345.123,54.932 345.565,54.749 345.949,54.443C347.12,53.512 347.314,51.811 346.384,50.641L336.117,37.723C335.516,36.966 334.557,36.588 333.601,36.731C332.645,36.874 331.838,37.515 331.483,38.415L325.429,53.765C324.881,55.155 325.563,56.725 326.953,57.274Z" style="fill:rgb(247,237,54);fill-rule:nonzero;"/>
    </g>
    <g transform="matrix(4.16667,0,0,4.16667,-1292.29,-80.2167)">
        <path d="M343.131,87.853C342.927,86.908 342.235,86.144 341.315,85.847C340.396,85.551 339.388,85.769 338.671,86.418L326.437,97.492C325.329,98.494 325.244,100.205 326.247,101.312C327.25,102.419 328.96,102.503 330.067,101.501L338.828,93.572L341.315,105.123C341.525,106.103 342.242,106.844 343.133,107.13C343.57,107.271 344.049,107.302 344.528,107.198C345.99,106.884 346.919,105.444 346.604,103.983L343.131,87.853Z" style="fill:rgb(247,237,54);fill-rule:nonzero;"/>
    </g>
    <g transform="matrix(4.16667,0,0,4.16667,-1292.29,-80.2167)">
        <path d="M383.503,86.629C382.982,85.814 382.067,85.34 381.102,85.383C380.137,85.427 379.269,85.983 378.823,86.84L371.225,101.489C370.537,102.815 371.055,104.447 372.381,105.135C373.707,105.822 375.339,105.305 376.027,103.979L381.468,93.49L387.832,103.446C388.37,104.29 389.301,104.734 390.235,104.692C390.694,104.671 391.153,104.533 391.567,104.269C392.827,103.464 393.194,101.79 392.39,100.532L383.503,86.629Z" style="fill:rgb(247,237,54);fill-rule:nonzero;"/>
    </g>
    <g transform="matrix(4.16667,0,0,4.16667,-1292.29,-80.2167)">
        <path d="M374.196,79.72C374.856,79.669 375.512,79.45 376.096,79.049C377.873,77.831 378.324,75.405 377.106,73.628L363.654,54.012C362.866,52.863 361.525,52.221 360.137,52.329C358.748,52.437 357.522,53.278 356.921,54.535L346.66,75.993C345.73,77.936 346.553,80.263 348.494,81.194C350.437,82.123 352.766,81.297 353.694,79.358L361.042,63.993L370.676,78.038C371.491,79.229 372.853,79.826 374.196,79.72Z" style="fill:white;fill-rule:nonzero;"/>
    </g>
    <g transform="matrix(4.16667,0,0,4.16667,-1292.29,-80.2167)">
        <path d="M405.149,108.865C403.812,108.472 402.368,108.82 401.358,109.78C400.35,110.74 399.93,112.166 400.256,113.521L401.64,119.251L409.661,119.251L409.421,118.256L409.798,118.367L409.798,110.236L405.149,108.865Z" style="fill:white;fill-rule:nonzero;"/>
    </g>
</svg>
