<?xml version="1.0" encoding="UTF-8"?>
<svg width="21px" height="16px" viewBox="0 0 21 16" version="1.1" xmlns="http://www.w3.org/2000/svg" xmlns:xlink="http://www.w3.org/1999/xlink">
    <!-- Generator: Sketch 47.1 (45422) - http://www.bohemiancoding.com/sketch -->
    <title>Group</title>
    <desc>Created with Sketch.</desc>
    <defs></defs>
    <g id="Welcome" stroke="none" stroke-width="1" fill="none" fill-rule="evenodd">
        <g id="Contact" transform="translate(-486.000000, -814.000000)" fill="#31FF3D">
            <g id="Group" transform="translate(486.000000, 814.000000)">
                <path d="M2.01556849,4.84403469 C2.28123288,5.02253517 3.08196575,5.55283094 4.41791096,6.43451101 C5.75385616,7.31619108 6.77724658,7.99512309 7.48822603,8.47117005 C7.56632877,8.52336397 7.73231507,8.63679329 7.98618493,8.811595 C8.24005479,8.98653369 8.45106164,9.12804636 8.61891781,9.23585901 C8.78691781,9.34367166 8.9900137,9.46463553 9.22834932,9.59847665 C9.46668493,9.73231777 9.69135616,9.83286984 9.90221918,9.89958491 C10.113226,9.96671096 10.3085548,10 10.4882055,10 L10.5,10 L10.5117945,10 C10.6914452,10 10.886774,9.96671096 11.0977808,9.89958491 C11.3086438,9.83286984 11.5334589,9.73218077 11.7716507,9.59847665 C12.0098425,9.46449854 12.2129384,9.34367166 12.3809384,9.23585901 C12.5489384,9.12804636 12.7598014,8.98653369 13.0136712,8.811595 C13.2675411,8.6366563 13.4336712,8.52336397 13.511774,8.47117005 C14.2303767,7.9949861 16.0586712,6.78589531 18.9960822,4.8437607 C19.5663904,4.46443005 20.042774,4.00674 20.4256644,3.47096456 C20.8086986,2.9354631 21,2.37365919 21,1.78582681 C21,1.29471074 20.8143082,0.874282505 20.4432123,0.524542104 C20.0721164,0.174801704 19.6325548,0 19.1249589,0 L1.87489726,0 C1.27337671,0 0.810513699,0.193432607 0.486308219,0.58029782 C0.16210274,0.967300026 0,1.45101854 0,2.03131636 C0,2.50010274 0.214890411,3.00806882 0.644527397,3.55494061 C1.07416438,4.1018124 1.53127397,4.53155609 2.01556849,4.84403469 L2.01556849,4.84403469 Z" id="Shape"></path>
                <path d="M19.8280274,6.00312641 C17.2657397,7.70948858 15.3202192,9.03557414 13.9923288,9.98110003 C13.5470137,10.3039177 13.1856986,10.5558315 12.9082397,10.7362753 C12.6309247,10.9170023 12.2618425,11.1014088 11.8008493,11.2897781 C11.34,11.4781473 10.910363,11.5722612 10.5119384,11.5722612 L10.5,11.5722612 L10.4882055,11.5722612 C10.0897808,11.5722612 9.66,11.4781473 9.19915068,11.2897781 C8.73830137,11.1014088 8.36907534,10.9170023 8.09176027,10.7362753 C7.81444521,10.5558315 7.45313014,10.3039177 7.00781507,9.98110003 C5.95306849,9.22012223 4.01171918,7.89403667 1.18362329,6.00312641 C0.738308219,5.71116115 0.343767123,5.37659698 0,5 L0,14.1549437 C0,14.6624509 0.183534247,15.0966484 0.550746575,15.4579608 C0.917958904,15.8194146 1.35939041,16 1.8750411,16 L19.1251027,16 C19.6406096,16 20.0820411,15.8194146 20.4492534,15.4579608 C20.8166096,15.0965069 21,14.6624509 21,14.1549437 L21,5 C20.664,5.36881312 20.2734863,5.70337729 19.8280274,6.00312641 L19.8280274,6.00312641 Z" id="Shape"></path>
            </g>
        </g>
    </g>
</svg>