<?xml version="1.0" encoding="UTF-8" standalone="no"?>
<!DOCTYPE svg PUBLIC "-//W3C//DTD SVG 1.1//EN" "http://www.w3.org/Graphics/SVG/1.1/DTD/svg11.dtd">
<svg width="100%" height="100%" viewBox="0 0 411 414" version="1.1" xmlns="http://www.w3.org/2000/svg" xmlns:xlink="http://www.w3.org/1999/xlink" xml:space="preserve" xmlns:serif="http://www.serif.com/" style="fill-rule:evenodd;clip-rule:evenodd;stroke-linejoin:round;stroke-miterlimit:1.41421;">
    <g id="Artboard1" transform="matrix(0.905785,0,0,0.917973,0.920527,0.638103)">
        <rect x="-1.016" y="-0.695" width="453.167" height="450.179" style="fill:none;"/>
        <g transform="matrix(2.51322,0,0,2.47985,-39.3627,-41.6397)">
            <path d="M186.183,31.128C182.455,31.128 179.433,28.106 179.433,24.378C179.433,20.65 182.455,17.628 186.183,17.628C189.911,17.628 192.933,20.65 192.933,24.378C192.933,28.106 189.911,31.128 186.183,31.128Z" style="fill:rgb(0,216,255);fill-rule:nonzero;"/>
        </g>
        <g transform="matrix(2.51322,0,0,2.47985,-39.3627,-41.6397)">
            <path d="M162.933,31.128C159.205,31.128 156.183,28.106 156.183,24.378C156.183,20.65 159.205,17.628 162.933,17.628C166.661,17.628 169.683,20.65 169.683,24.378C169.683,28.106 166.661,31.128 162.933,31.128Z" style="fill:rgb(0,216,255);fill-rule:nonzero;"/>
        </g>
        <g transform="matrix(2.51322,0,0,2.47985,-39.3627,-41.6397)">
            <path d="M139.683,31.128C135.955,31.128 132.933,28.106 132.933,24.378C132.933,20.65 135.955,17.628 139.683,17.628C143.411,17.628 146.433,20.65 146.433,24.378C146.433,28.106 143.411,31.128 139.683,31.128Z" style="fill:rgb(0,216,255);fill-rule:nonzero;"/>
        </g>
        <g transform="matrix(2.51322,0,0,2.47985,-39.3627,-41.6397)">
            <path d="M116.433,31.128C112.705,31.128 109.683,28.106 109.683,24.378C109.683,20.65 112.705,17.628 116.433,17.628C120.161,17.628 123.183,20.65 123.183,24.378C123.183,28.106 120.161,31.128 116.433,31.128Z" style="fill:rgb(0,216,255);fill-rule:nonzero;"/>
        </g>
        <g transform="matrix(2.51322,0,0,2.47985,-39.3627,-41.6397)">
            <path d="M93.183,31.128C89.455,31.128 86.433,28.106 86.433,24.378C86.433,20.65 89.455,17.628 93.183,17.628C96.911,17.628 99.933,20.65 99.933,24.378C99.933,28.106 96.911,31.128 93.183,31.128Z" style="fill:rgb(0,216,255);fill-rule:nonzero;"/>
        </g>
        <g transform="matrix(2.51322,0,0,2.47985,-39.3627,-41.6397)">
            <path d="M69.933,31.128C66.205,31.128 63.183,28.106 63.183,24.378C63.183,20.65 66.205,17.628 69.933,17.628C73.661,17.628 76.683,20.65 76.683,24.378C76.683,28.106 73.661,31.128 69.933,31.128Z" style="fill:rgb(0,216,255);fill-rule:nonzero;"/>
        </g>
        <g transform="matrix(2.51322,0,0,2.47985,-39.3627,-41.6397)">
            <path d="M46.683,31.128C42.955,31.128 39.933,28.106 39.933,24.378C39.933,20.65 42.955,17.628 46.683,17.628C50.411,17.628 53.433,20.65 53.433,24.378C53.433,28.106 50.411,31.128 46.683,31.128Z" style="fill:rgb(0,216,255);fill-rule:nonzero;"/>
        </g>
        <g transform="matrix(2.51322,0,0,2.47985,-39.3627,-41.6397)">
            <path d="M23.433,31.128C19.705,31.128 16.683,28.106 16.683,24.378C16.683,20.65 19.705,17.628 23.433,17.628C27.161,17.628 30.183,20.65 30.183,24.378C30.183,28.106 27.161,31.128 23.433,31.128Z" style="fill:rgb(0,216,255);fill-rule:nonzero;"/>
        </g>
        <g transform="matrix(2.51322,0,0,2.47985,-39.3627,-41.6397)">
            <path d="M162.933,54.628C159.205,54.628 156.183,51.606 156.183,47.878C156.183,44.15 159.205,41.128 162.933,41.128C166.661,41.128 169.683,44.15 169.683,47.878C169.683,51.606 166.661,54.628 162.933,54.628Z" style="fill:rgb(0,216,255);fill-rule:nonzero;"/>
        </g>
        <g transform="matrix(2.51322,0,0,2.47985,-39.3627,-41.6397)">
            <path d="M139.683,54.628C135.955,54.628 132.933,51.606 132.933,47.878C132.933,44.15 135.955,41.128 139.683,41.128C143.411,41.128 146.433,44.15 146.433,47.878C146.433,51.606 143.411,54.628 139.683,54.628Z" style="fill:rgb(0,216,255);fill-rule:nonzero;"/>
        </g>
        <g transform="matrix(2.51322,0,0,2.47985,-39.3627,-41.6397)">
            <path d="M116.433,54.628C112.705,54.628 109.683,51.606 109.683,47.878C109.683,44.15 112.705,41.128 116.433,41.128C120.161,41.128 123.183,44.15 123.183,47.878C123.183,51.606 120.161,54.628 116.433,54.628Z" style="fill:rgb(0,216,255);fill-rule:nonzero;"/>
        </g>
        <g transform="matrix(2.51322,0,0,2.47985,-39.3627,-41.6397)">
            <path d="M93.183,54.628C89.455,54.628 86.433,51.606 86.433,47.878C86.433,44.15 89.455,41.128 93.183,41.128C96.911,41.128 99.933,44.15 99.933,47.878C99.933,51.606 96.911,54.628 93.183,54.628Z" style="fill:rgb(0,216,255);fill-rule:nonzero;"/>
        </g>
        <g transform="matrix(2.51322,0,0,2.47985,-39.3627,-41.6397)">
            <path d="M69.933,54.628C66.205,54.628 63.183,51.606 63.183,47.878C63.183,44.15 66.205,41.128 69.933,41.128C73.661,41.128 76.683,44.15 76.683,47.878C76.683,51.606 73.661,54.628 69.933,54.628Z" style="fill:rgb(0,216,255);fill-rule:nonzero;"/>
        </g>
        <g transform="matrix(2.51322,0,0,2.47985,-39.3627,-41.6397)">
            <path d="M46.683,54.628C42.955,54.628 39.933,51.606 39.933,47.878C39.933,44.15 42.955,41.128 46.683,41.128C50.411,41.128 53.433,44.15 53.433,47.878C53.433,51.606 50.411,54.628 46.683,54.628Z" style="fill:rgb(0,216,255);fill-rule:nonzero;"/>
        </g>
        <g transform="matrix(2.51322,0,0,2.47985,-39.3627,-41.6397)">
            <path d="M23.433,54.628C19.705,54.628 16.683,51.606 16.683,47.878C16.683,44.15 19.705,41.128 23.433,41.128C27.161,41.128 30.183,44.15 30.183,47.878C30.183,51.606 27.161,54.628 23.433,54.628Z" style="fill:rgb(0,216,255);fill-rule:nonzero;"/>
        </g>
        <g transform="matrix(2.51322,0,0,2.47985,-39.3627,-41.6397)">
            <path d="M139.683,78.128C135.955,78.128 132.933,75.106 132.933,71.378C132.933,67.65 135.955,64.628 139.683,64.628C143.411,64.628 146.433,67.65 146.433,71.378C146.433,75.106 143.411,78.128 139.683,78.128Z" style="fill:rgb(0,216,255);fill-rule:nonzero;"/>
        </g>
        <g transform="matrix(2.51322,0,0,2.47985,-39.3627,-41.6397)">
            <path d="M116.433,78.128C112.705,78.128 109.683,75.106 109.683,71.378C109.683,67.65 112.705,64.628 116.433,64.628C120.161,64.628 123.183,67.65 123.183,71.378C123.183,75.106 120.161,78.128 116.433,78.128Z" style="fill:rgb(0,216,255);fill-rule:nonzero;"/>
        </g>
        <g transform="matrix(2.51322,0,0,2.47985,-39.3627,-41.6397)">
            <path d="M93.183,78.128C89.455,78.128 86.433,75.106 86.433,71.378C86.433,67.65 89.455,64.628 93.183,64.628C96.911,64.628 99.933,67.65 99.933,71.378C99.933,75.106 96.911,78.128 93.183,78.128Z" style="fill:rgb(0,216,255);fill-rule:nonzero;"/>
        </g>
        <g transform="matrix(2.51322,0,0,2.47985,-39.3627,-41.6397)">
            <path d="M69.933,78.128C66.205,78.128 63.183,75.106 63.183,71.378C63.183,67.65 66.205,64.628 69.933,64.628C73.661,64.628 76.683,67.65 76.683,71.378C76.683,75.106 73.661,78.128 69.933,78.128Z" style="fill:rgb(0,216,255);fill-rule:nonzero;"/>
        </g>
        <g transform="matrix(2.51322,0,0,2.47985,-39.3627,-41.6397)">
            <path d="M46.683,78.128C42.955,78.128 39.933,75.106 39.933,71.378C39.933,67.65 42.955,64.628 46.683,64.628C50.411,64.628 53.433,67.65 53.433,71.378C53.433,75.106 50.411,78.128 46.683,78.128Z" style="fill:rgb(0,216,255);fill-rule:nonzero;"/>
        </g>
        <g transform="matrix(2.51322,0,0,2.47985,-39.3627,-41.6397)">
            <path d="M23.433,78.128C19.705,78.128 16.683,75.106 16.683,71.378C16.683,67.65 19.705,64.628 23.433,64.628C27.161,64.628 30.183,67.65 30.183,71.378C30.183,75.106 27.161,78.128 23.433,78.128Z" style="fill:rgb(0,216,255);fill-rule:nonzero;"/>
        </g>
        <g transform="matrix(2.51322,0,0,2.47985,-39.3627,-41.6397)">
            <path d="M116.433,101.627C112.705,101.627 109.683,98.606 109.683,94.878C109.683,91.15 112.705,88.128 116.433,88.128C120.161,88.128 123.183,91.15 123.183,94.878C123.183,98.606 120.161,101.627 116.433,101.627Z" style="fill:rgb(0,216,255);fill-rule:nonzero;"/>
        </g>
        <g transform="matrix(2.51322,0,0,2.47985,-39.3627,-41.6397)">
            <path d="M93.183,101.627C89.455,101.627 86.433,98.606 86.433,94.878C86.433,91.15 89.455,88.128 93.183,88.128C96.911,88.128 99.933,91.15 99.933,94.878C99.933,98.606 96.911,101.627 93.183,101.627Z" style="fill:rgb(0,216,255);fill-rule:nonzero;"/>
        </g>
        <g transform="matrix(2.51322,0,0,2.47985,-39.3627,-41.6397)">
            <path d="M69.933,101.627C66.205,101.627 63.183,98.606 63.183,94.878C63.183,91.15 66.205,88.128 69.933,88.128C73.661,88.128 76.683,91.15 76.683,94.878C76.683,98.606 73.661,101.627 69.933,101.627Z" style="fill:rgb(0,216,255);fill-rule:nonzero;"/>
        </g>
        <g transform="matrix(2.51322,0,0,2.47985,-39.3627,-41.6397)">
            <path d="M46.683,101.627C42.955,101.627 39.933,98.606 39.933,94.878C39.933,91.15 42.955,88.128 46.683,88.128C50.411,88.128 53.433,91.15 53.433,94.878C53.433,98.606 50.411,101.627 46.683,101.627Z" style="fill:rgb(0,216,255);fill-rule:nonzero;"/>
        </g>
        <g transform="matrix(2.51322,0,0,2.47985,-39.3627,-41.6397)">
            <path d="M23.433,101.627C19.705,101.627 16.683,98.606 16.683,94.878C16.683,91.15 19.705,88.128 23.433,88.128C27.161,88.128 30.183,91.15 30.183,94.878C30.183,98.606 27.161,101.627 23.433,101.627Z" style="fill:rgb(0,216,255);fill-rule:nonzero;"/>
        </g>
        <g transform="matrix(2.51322,0,0,2.47985,-39.3627,-41.6397)">
            <path d="M93.183,125.127C89.455,125.127 86.433,122.105 86.433,118.377C86.433,114.649 89.455,111.627 93.183,111.627C96.911,111.627 99.933,114.649 99.933,118.377C99.933,122.105 96.911,125.127 93.183,125.127Z" style="fill:rgb(0,216,255);fill-rule:nonzero;"/>
        </g>
        <g transform="matrix(2.51322,0,0,2.47985,-39.3627,-41.6397)">
            <path d="M69.933,125.127C66.205,125.127 63.183,122.105 63.183,118.377C63.183,114.649 66.205,111.627 69.933,111.627C73.661,111.627 76.683,114.649 76.683,118.377C76.683,122.105 73.661,125.127 69.933,125.127Z" style="fill:rgb(0,216,255);fill-rule:nonzero;"/>
        </g>
        <g transform="matrix(2.51322,0,0,2.47985,-39.3627,-41.6397)">
            <path d="M46.683,125.127C42.955,125.127 39.933,122.105 39.933,118.377C39.933,114.649 42.955,111.627 46.683,111.627C50.411,111.627 53.433,114.649 53.433,118.377C53.433,122.105 50.411,125.127 46.683,125.127Z" style="fill:rgb(0,216,255);fill-rule:nonzero;"/>
        </g>
        <g transform="matrix(2.51322,0,0,2.47985,-39.3627,-41.6397)">
            <path d="M23.433,125.127C19.705,125.127 16.683,122.105 16.683,118.377C16.683,114.649 19.705,111.627 23.433,111.627C27.161,111.627 30.183,114.649 30.183,118.377C30.183,122.105 27.161,125.127 23.433,125.127Z" style="fill:rgb(0,216,255);fill-rule:nonzero;"/>
        </g>
        <g transform="matrix(2.51322,0,0,2.47985,-39.3627,-41.6397)">
            <path d="M69.933,148.627C66.205,148.627 63.183,145.605 63.183,141.877C63.183,138.149 66.205,135.127 69.933,135.127C73.661,135.127 76.683,138.149 76.683,141.877C76.683,145.605 73.661,148.627 69.933,148.627Z" style="fill:rgb(0,216,255);fill-rule:nonzero;"/>
        </g>
        <g transform="matrix(2.51322,0,0,2.47985,-39.3627,-41.6397)">
            <path d="M46.683,148.627C42.955,148.627 39.933,145.605 39.933,141.877C39.933,138.149 42.955,135.127 46.683,135.127C50.411,135.127 53.433,138.149 53.433,141.877C53.433,145.605 50.411,148.627 46.683,148.627Z" style="fill:rgb(0,216,255);fill-rule:nonzero;"/>
        </g>
        <g transform="matrix(2.51322,0,0,2.47985,-39.3627,-41.6397)">
            <path d="M23.433,148.627C19.705,148.627 16.683,145.605 16.683,141.877C16.683,138.149 19.705,135.127 23.433,135.127C27.161,135.127 30.183,138.149 30.183,141.877C30.183,145.605 27.161,148.627 23.433,148.627Z" style="fill:rgb(0,216,255);fill-rule:nonzero;"/>
        </g>
        <g transform="matrix(2.51322,0,0,2.47985,-39.3627,-41.6397)">
            <path d="M46.683,172.127C42.955,172.127 39.933,169.105 39.933,165.377C39.933,161.649 42.955,158.627 46.683,158.627C50.411,158.627 53.433,161.649 53.433,165.377C53.433,169.105 50.411,172.127 46.683,172.127Z" style="fill:rgb(0,216,255);fill-rule:nonzero;"/>
        </g>
        <g transform="matrix(2.51322,0,0,2.47985,-39.3627,-41.6397)">
            <path d="M23.433,172.127C19.705,172.127 16.683,169.105 16.683,165.377C16.683,161.649 19.705,158.627 23.433,158.627C27.161,158.627 30.183,161.649 30.183,165.377C30.183,169.105 27.161,172.127 23.433,172.127Z" style="fill:rgb(0,216,255);fill-rule:nonzero;"/>
        </g>
        <g transform="matrix(2.51322,0,0,2.47985,-39.3627,-41.6397)">
            <path d="M24.183,195.627C20.455,195.627 17.433,192.605 17.433,188.877C17.433,185.149 20.455,182.127 24.183,182.127C27.911,182.127 30.933,185.149 30.933,188.877C30.933,192.605 27.911,195.627 24.183,195.627Z" style="fill:rgb(0,216,255);fill-rule:nonzero;"/>
        </g>
    </g>
</svg>
