<?xml version="1.0" encoding="UTF-8" standalone="no"?>
<!DOCTYPE svg PUBLIC "-//W3C//DTD SVG 1.1//EN" "http://www.w3.org/Graphics/SVG/1.1/DTD/svg11.dtd">
<svg width="100%" height="100%" viewBox="0 0 289 286" version="1.1" xmlns="http://www.w3.org/2000/svg" xmlns:xlink="http://www.w3.org/1999/xlink" xml:space="preserve" xmlns:serif="http://www.serif.com/" style="fill-rule:evenodd;clip-rule:evenodd;stroke-linejoin:round;stroke-miterlimit:1.41421;">
    <g id="Artboard1" transform="matrix(0.923223,0,0,0.943216,-0.862144,0.178425)">
        <rect x="0.934" y="-0.189" width="312.859" height="302.531" style="fill:none;"/>
        <g transform="matrix(1.95546,0,0,1.91401,-2611.53,-1009.91)">
            <path d="M1428.64,552.89C1392.75,552.89 1363.64,581.992 1363.64,617.89C1363.64,653.789 1392.75,682.89 1428.64,682.89C1464.54,682.89 1493.64,653.789 1493.64,617.89C1493.64,581.992 1464.54,552.89 1428.64,552.89ZM1428.64,557.89C1461.73,557.89 1488.64,584.806 1488.64,617.89C1488.64,650.974 1461.73,677.89 1428.64,677.89C1395.56,677.89 1368.64,650.974 1368.64,617.89C1368.64,584.806 1395.56,557.89 1428.64,557.89Z" style="fill:rgb(35,39,138);fill-rule:nonzero;"/>
        </g>
        <g transform="matrix(1.95546,0,0,1.91401,-2611.53,-1009.91)">
            <path d="M1469.82,567.932C1497.52,590.763 1501.47,631.729 1478.64,659.432C1455.8,687.135 1414.84,691.084 1387.14,668.253L1469.82,567.932Z" style="fill:rgb(0,216,255);fill-rule:nonzero;"/>
        </g>
        <g transform="matrix(1.95546,0,0,1.91401,-2611.53,-1009.91)">
            <path d="M1378.37,535.037C1382.23,535.037 1382.23,529.037 1378.37,529.037C1374.51,529.037 1374.5,535.037 1378.37,535.037Z" style="fill:rgb(35,39,138);fill-rule:nonzero;"/>
        </g>
        <g transform="matrix(1.95546,0,0,1.91401,-2611.53,-1009.91)">
            <path d="M1365.58,550.537C1369.44,550.537 1369.45,544.537 1365.58,544.537C1361.72,544.537 1361.71,550.537 1365.58,550.537Z" style="fill:rgb(35,39,138);fill-rule:nonzero;"/>
        </g>
        <g transform="matrix(1.95546,0,0,1.91401,-2611.53,-1009.91)">
            <path d="M1391.15,550.537C1395.01,550.537 1395.02,544.537 1391.15,544.537C1387.29,544.537 1387.29,550.537 1391.15,550.537Z" style="fill:rgb(35,39,138);fill-rule:nonzero;"/>
        </g>
        <g transform="matrix(1.95546,0,0,1.91401,-2611.53,-1009.91)">
            <path d="M1352.29,565.437C1356.16,565.437 1356.16,559.437 1352.29,559.437C1348.43,559.437 1348.43,565.437 1352.29,565.437Z" style="fill:rgb(35,39,138);fill-rule:nonzero;"/>
        </g>
        <g transform="matrix(1.95546,0,0,1.91401,-2611.53,-1009.91)">
            <path d="M1377.87,565.437C1381.73,565.437 1381.73,559.437 1377.87,559.437C1374.01,559.437 1374,565.437 1377.87,565.437Z" style="fill:rgb(35,39,138);fill-rule:nonzero;"/>
        </g>
        <g transform="matrix(1.95546,0,0,1.91401,-2611.53,-1009.91)">
            <path d="M1339.51,580.937C1343.37,580.937 1343.38,574.937 1339.51,574.937C1335.65,574.937 1335.64,580.937 1339.51,580.937Z" style="fill:rgb(35,39,138);fill-rule:nonzero;"/>
        </g>
        <g transform="matrix(1.95546,0,0,1.91401,-2611.53,-1009.91)">
            <path d="M1365.08,580.937C1368.94,580.937 1368.95,574.937 1365.08,574.937C1361.22,574.937 1361.21,580.937 1365.08,580.937Z" style="fill:rgb(35,39,138);fill-rule:nonzero;"/>
        </g>
        <g transform="matrix(1.95546,0,0,1.91401,-2611.53,-1009.91)">
            <path d="M1390.65,580.937C1394.51,580.937 1394.52,574.937 1390.65,574.937C1386.79,574.937 1386.79,580.937 1390.65,580.937Z" style="fill:rgb(35,39,138);fill-rule:nonzero;"/>
        </g>
        <g transform="matrix(1.95546,0,0,1.91401,-2611.53,-1009.91)">
            <path d="M1352.79,595.837C1356.66,595.837 1356.66,589.837 1352.79,589.837C1348.93,589.837 1348.93,595.837 1352.79,595.837Z" style="fill:rgb(35,39,138);fill-rule:nonzero;"/>
        </g>
        <g transform="matrix(1.95546,0,0,1.91401,-2611.53,-1009.91)">
            <path d="M1378.37,595.837C1382.23,595.837 1382.23,589.837 1378.37,589.837C1374.51,589.837 1374.5,595.837 1378.37,595.837Z" style="fill:rgb(35,39,138);fill-rule:nonzero;"/>
        </g>
        <g transform="matrix(1.95546,0,0,1.91401,-2611.53,-1009.91)">
            <path d="M1340.01,611.337C1343.87,611.337 1343.88,605.337 1340.01,605.337C1336.15,605.337 1336.14,611.337 1340.01,611.337Z" style="fill:rgb(35,39,138);fill-rule:nonzero;"/>
        </g>
        <g transform="matrix(1.95546,0,0,1.91401,-2611.53,-1009.91)">
            <path d="M1365.58,611.337C1369.44,611.337 1369.45,605.337 1365.58,605.337C1361.72,605.337 1361.71,611.337 1365.58,611.337Z" style="fill:rgb(35,39,138);fill-rule:nonzero;"/>
        </g>
        <g transform="matrix(1.95546,0,0,1.91401,-2611.53,-1009.91)">
            <path d="M1391.15,611.337C1395.01,611.337 1395.02,605.337 1391.15,605.337C1387.29,605.337 1387.29,611.337 1391.15,611.337Z" style="fill:rgb(35,39,138);fill-rule:nonzero;"/>
        </g>
        <g transform="matrix(1.95546,0,0,1.91401,-2611.53,-1009.91)">
            <path d="M1352.79,626.237C1356.66,626.237 1356.66,620.237 1352.79,620.237C1348.93,620.237 1348.93,626.237 1352.79,626.237Z" style="fill:rgb(35,39,138);fill-rule:nonzero;"/>
        </g>
        <g transform="matrix(1.95546,0,0,1.91401,-2611.53,-1009.91)">
            <path d="M1378.37,626.237C1382.23,626.237 1382.23,620.237 1378.37,620.237C1374.51,620.237 1374.5,626.237 1378.37,626.237Z" style="fill:rgb(35,39,138);fill-rule:nonzero;"/>
        </g>
        <g transform="matrix(1.95546,0,0,1.91401,-2611.53,-1009.91)">
            <path d="M1365.58,641.737C1369.44,641.737 1369.45,635.737 1365.58,635.737C1361.72,635.737 1361.71,641.737 1365.58,641.737Z" style="fill:rgb(35,39,138);fill-rule:nonzero;"/>
        </g>
        <g transform="matrix(1.95546,0,0,1.91401,-2611.53,-1009.91)">
            <path d="M1391.15,641.737C1395.01,641.737 1395.02,635.737 1391.15,635.737C1387.29,635.737 1387.29,641.737 1391.15,641.737Z" style="fill:rgb(35,39,138);fill-rule:nonzero;"/>
        </g>
        <g transform="matrix(1.95546,0,0,1.91401,-2611.53,-1009.91)">
            <path d="M1378.37,656.637C1382.23,656.637 1382.23,650.637 1378.37,650.637C1374.51,650.637 1374.5,656.637 1378.37,656.637Z" style="fill:rgb(35,39,138);fill-rule:nonzero;"/>
        </g>
        <g transform="matrix(1.95546,0,0,1.91401,-2611.53,-1009.91)">
            <path d="M1403.22,535.037C1407.08,535.037 1407.08,529.037 1403.22,529.037C1399.36,529.037 1399.35,535.037 1403.22,535.037Z" style="fill:rgb(35,39,138);fill-rule:nonzero;"/>
        </g>
        <g transform="matrix(1.95546,0,0,1.91401,-2611.53,-1009.91)">
            <path d="M1428.79,535.037C1432.65,535.037 1432.66,529.037 1428.79,529.037C1424.93,529.037 1424.92,535.037 1428.79,535.037Z" style="fill:rgb(35,39,138);fill-rule:nonzero;"/>
        </g>
        <g transform="matrix(1.95546,0,0,1.91401,-2611.53,-1009.91)">
            <path d="M1416,550.537C1419.86,550.537 1419.87,544.537 1416,544.537C1412.14,544.537 1412.14,550.537 1416,550.537Z" style="fill:rgb(35,39,138);fill-rule:nonzero;"/>
        </g>
        <g transform="matrix(1.95546,0,0,1.91401,-2611.53,-1009.91)">
            <path d="M1441.58,550.537C1445.44,550.537 1445.44,544.537 1441.58,544.537C1437.72,544.537 1437.71,550.537 1441.58,550.537Z" style="fill:rgb(35,39,138);fill-rule:nonzero;"/>
        </g>
        <g transform="matrix(1.95546,0,0,1.91401,-2611.53,-1009.91)">
            <path d="M1402.72,565.437C1406.58,565.437 1406.58,559.437 1402.72,559.437C1398.86,559.437 1398.85,565.437 1402.72,565.437Z" style="fill:rgb(35,39,138);fill-rule:nonzero;"/>
        </g>
        <g transform="matrix(1.95546,0,0,1.91401,-2611.53,-1009.91)">
            <path d="M1428.29,565.437C1432.15,565.437 1432.16,559.437 1428.29,559.437C1424.43,559.437 1424.42,565.437 1428.29,565.437Z" style="fill:rgb(35,39,138);fill-rule:nonzero;"/>
        </g>
        <g transform="matrix(1.95546,0,0,1.91401,-2611.53,-1009.91)">
            <path d="M1453.86,565.437C1457.72,565.437 1457.73,559.437 1453.86,559.437C1450,559.437 1450,565.437 1453.86,565.437Z" style="fill:rgb(35,39,138);fill-rule:nonzero;"/>
        </g>
        <g transform="matrix(1.95546,0,0,1.91401,-2611.53,-1009.91)">
            <path d="M1415.5,580.937C1419.36,580.937 1419.37,574.937 1415.5,574.937C1411.64,574.937 1411.64,580.937 1415.5,580.937Z" style="fill:rgb(35,39,138);fill-rule:nonzero;"/>
        </g>
        <g transform="matrix(1.95546,0,0,1.91401,-2611.53,-1009.91)">
            <path d="M1441.08,580.937C1444.94,580.937 1444.94,574.937 1441.08,574.937C1437.22,574.937 1437.21,580.937 1441.08,580.937Z" style="fill:rgb(35,39,138);fill-rule:nonzero;"/>
        </g>
        <g transform="matrix(1.95546,0,0,1.91401,-2611.53,-1009.91)">
            <path d="M1466.65,580.937C1470.51,580.937 1470.52,574.937 1466.65,574.937C1462.79,574.937 1462.78,580.937 1466.65,580.937Z" style="fill:rgb(35,39,138);fill-rule:nonzero;"/>
        </g>
        <g transform="matrix(1.95546,0,0,1.91401,-2611.53,-1009.91)">
            <path d="M1403.22,595.837C1407.08,595.837 1407.08,589.837 1403.22,589.837C1399.36,589.837 1399.35,595.837 1403.22,595.837Z" style="fill:rgb(35,39,138);fill-rule:nonzero;"/>
        </g>
        <g transform="matrix(1.95546,0,0,1.91401,-2611.53,-1009.91)">
            <path d="M1428.79,595.837C1432.65,595.837 1432.66,589.837 1428.79,589.837C1424.93,589.837 1424.92,595.837 1428.79,595.837Z" style="fill:rgb(35,39,138);fill-rule:nonzero;"/>
        </g>
        <g transform="matrix(1.95546,0,0,1.91401,-2611.53,-1009.91)">
            <path d="M1454.36,595.837C1458.22,595.837 1458.23,589.837 1454.36,589.837C1450.5,589.837 1450.5,595.837 1454.36,595.837Z" style="fill:rgb(35,39,138);fill-rule:nonzero;"/>
        </g>
        <g transform="matrix(1.95546,0,0,1.91401,-2611.53,-1009.91)">
            <path d="M1416,611.337C1419.86,611.337 1419.87,605.337 1416,605.337C1412.14,605.337 1412.14,611.337 1416,611.337Z" style="fill:rgb(35,39,138);fill-rule:nonzero;"/>
        </g>
        <g transform="matrix(1.95546,0,0,1.91401,-2611.53,-1009.91)">
            <path d="M1441.58,611.337C1445.44,611.337 1445.44,605.337 1441.58,605.337C1437.72,605.337 1437.71,611.337 1441.58,611.337Z" style="fill:rgb(35,39,138);fill-rule:nonzero;"/>
        </g>
        <g transform="matrix(1.95546,0,0,1.91401,-2611.53,-1009.91)">
            <path d="M1467.15,611.337C1471.01,611.337 1471.02,605.337 1467.15,605.337C1463.29,605.337 1463.28,611.337 1467.15,611.337Z" style="fill:rgb(35,39,138);fill-rule:nonzero;"/>
        </g>
        <g transform="matrix(1.95546,0,0,1.91401,-2611.53,-1009.91)">
            <path d="M1403.22,626.237C1407.08,626.237 1407.08,620.237 1403.22,620.237C1399.36,620.237 1399.35,626.237 1403.22,626.237Z" style="fill:rgb(35,39,138);fill-rule:nonzero;"/>
        </g>
        <g transform="matrix(1.95546,0,0,1.91401,-2611.53,-1009.91)">
            <path d="M1428.79,626.237C1432.65,626.237 1432.66,620.237 1428.79,620.237C1424.93,620.237 1424.92,626.237 1428.79,626.237Z" style="fill:rgb(35,39,138);fill-rule:nonzero;"/>
        </g>
        <g transform="matrix(1.95546,0,0,1.91401,-2611.53,-1009.91)">
            <path d="M1454.36,626.237C1458.22,626.237 1458.23,620.237 1454.36,620.237C1450.5,620.237 1450.5,626.237 1454.36,626.237Z" style="fill:rgb(35,39,138);fill-rule:nonzero;"/>
        </g>
        <g transform="matrix(1.95546,0,0,1.91401,-2611.53,-1009.91)">
            <path d="M1416,641.737C1419.86,641.737 1419.87,635.737 1416,635.737C1412.14,635.737 1412.14,641.737 1416,641.737Z" style="fill:rgb(35,39,138);fill-rule:nonzero;"/>
        </g>
        <g transform="matrix(1.95546,0,0,1.91401,-2611.53,-1009.91)">
            <path d="M1441.58,641.737C1445.44,641.737 1445.44,635.737 1441.58,635.737C1437.72,635.737 1437.71,641.737 1441.58,641.737Z" style="fill:rgb(35,39,138);fill-rule:nonzero;"/>
        </g>
        <g transform="matrix(1.95546,0,0,1.91401,-2611.53,-1009.91)">
            <path d="M1403.22,656.637C1407.08,656.637 1407.08,650.637 1403.22,650.637C1399.36,650.637 1399.35,656.637 1403.22,656.637Z" style="fill:rgb(35,39,138);fill-rule:nonzero;"/>
        </g>
        <g transform="matrix(1.95546,0,0,1.91401,-2611.53,-1009.91)">
            <path d="M1428.79,656.637C1432.65,656.637 1432.66,650.637 1428.79,650.637C1424.93,650.637 1424.92,656.637 1428.79,656.637Z" style="fill:rgb(35,39,138);fill-rule:nonzero;"/>
        </g>
    </g>
</svg>
