<?xml version="1.0" encoding="utf-8"?>
<!-- Generator: Adobe Illustrator 18.0.0, SVG Export Plug-In . SVG Version: 6.00 Build 0)  -->
<!DOCTYPE svg PUBLIC "-//W3C//DTD SVG 1.1//EN" "http://www.w3.org/Graphics/SVG/1.1/DTD/svg11.dtd">
<svg version="1.1" id="Layer_1" xmlns="http://www.w3.org/2000/svg" xmlns:xlink="http://www.w3.org/1999/xlink" x="0px" y="0px"
	 viewBox="0 0 88.5 80.2" enable-background="new 0 0 88.5 80.2" xml:space="preserve">
<path fill="#363636" d="M83.1-0.4H5.3C2.4-0.4,0,2,0,4.9v69.7C0,77.6,2.4,80,5.3,80h77.8c2.9,0,5.3-2.4,5.3-5.3V4.9
	C88.5,2,86.1-0.4,83.1-0.4z M23.6,8.5c0-1.1,0.9-2,2-2h2c1.1,0,2,0.9,2,2v2.2c0,1.1-0.9,2-2,2h-2c-1.1,0-2-0.9-2-2V8.5z M14.4,8.5
	c0-1.1,0.9-2,2-2h2c1.1,0,2,0.9,2,2v2.2c0,1.1-0.9,2-2,2h-2c-1.1,0-2-0.9-2-2V8.5z M5.3,10.7V8.5c0-1.1,0.9-2,2-2h2c1.1,0,2,0.9,2,2
	v2.2c0,1.1-0.9,2-2,2h-2C6.2,12.7,5.3,11.8,5.3,10.7z M82.1,73.6H6.4v-55h75.7V73.6z"/>
<g>
	<g>
		<g>
			<circle fill="#363636" cx="43.7" cy="45.8" r="3.6"/>
			<path fill="#363636" d="M63.6,42.3l-5-0.9c-0.3-1-0.7-2-1.2-2.9l2.9-4.2c0.3-0.4,0.2-1-0.1-1.3l-3.6-3.6
				c-0.3-0.3-0.9-0.4-1.3-0.1l-4.2,2.9c-0.9-0.5-1.9-0.9-3-1.2l-0.9-5c-0.1-0.5-0.5-0.8-1-0.8h-5c-0.5,0-0.9,0.4-1,0.8l-0.9,5
				c-1,0.3-2,0.7-2.9,1.2l-4.2-2.9c-0.4-0.3-1-0.2-1.3,0.1l-3.6,3.6c-0.3,0.3-0.4,0.9-0.1,1.3l2.9,4.2c-0.5,0.9-0.9,1.9-1.2,2.9
				l-5,0.9c-0.5,0.1-0.8,0.5-0.8,1v5c0,0.5,0.4,0.9,0.8,1l5,0.9c0.3,1,0.7,2,1.2,2.9l-2.8,4.2c-0.3,0.4-0.2,1,0.1,1.3l3.6,3.6
				c0.3,0.3,0.9,0.4,1.3,0.1l4.2-2.8c0.9,0.5,1.8,0.9,2.8,1.2l0.9,5c0.1,0.5,0.5,0.8,1,0.8h5.1c0.5,0,0.9-0.4,1-0.8l0.9-5
				c1-0.3,2-0.7,3-1.2l4.2,2.9c0.4,0.3,1,0.2,1.3-0.1l3.6-3.6c0.3-0.3,0.4-0.9,0.1-1.3l-2.9-4.2c0.5-0.9,0.9-1.9,1.2-3l5-0.9
				c0.5-0.1,0.8-0.5,0.8-1v-5C64.5,42.8,64.1,42.3,63.6,42.3z M43.7,54.5c-4.8,0-8.7-3.9-8.7-8.7c0-4.8,3.9-8.7,8.7-8.7
				c4.8,0,8.7,3.9,8.7,8.7C52.4,50.6,48.5,54.5,43.7,54.5z"/>
		</g>
	</g>
</g>
</svg>
