<?xml version="1.0" encoding="utf-8"?>
<!-- Generator: Adobe Illustrator 18.0.0, SVG Export Plug-In . SVG Version: 6.00 Build 0)  -->
<!DOCTYPE svg PUBLIC "-//W3C//DTD SVG 1.1//EN" "http://www.w3.org/Graphics/SVG/1.1/DTD/svg11.dtd">
<svg version="1.1" id="Layer_1" xmlns="http://www.w3.org/2000/svg" xmlns:xlink="http://www.w3.org/1999/xlink" x="0px" y="0px"
	 viewBox="0 0 88.5 80.2" enable-background="new 0 0 88.5 80.2" xml:space="preserve">
<path fill="#363636" d="M83.3-0.4l-77.9,0C2.4-0.4,0,1.9,0,4.9l0,69.8C0,77.6,2.4,80,5.3,80l77.9,0c2.9,0,5.3-2.4,5.3-5.3l0-69.8
	C88.6,1.9,86.2-0.4,83.3-0.4z M23.6,8.5c0-1.1,0.9-2,2-2l2,0c1.1,0,2,0.9,2,2v2.2c0,1.1-0.9,2-2,2h-2c-1.1,0-2-0.9-2-2V8.5z
	 M14.5,8.5c0-1.1,0.9-2,2-2l2,0c1.1,0,2,0.9,2,2v2.2c0,1.1-0.9,2-2,2l-2,0c-1.1,0-2-0.9-2-2L14.5,8.5z M5.3,10.7l0-2.2
	c0-1.1,0.9-2,2-2l2,0c1.1,0,2,0.9,2,2l0,2.2c0,1.1-0.9,2-2,2h-2C6.2,12.7,5.3,11.8,5.3,10.7z M82.2,73.6l-75.8,0l0-55.1l75.8,0
	L82.2,73.6z"/>
<g>
	<g>
		<path fill="#363636" d="M34.8,65.5h-1.5c-0.9,0.8-1.8,1.5-2.8,2.1h4.3c0.3,0,0.5-0.2,0.5-0.5v-1.1C35.3,65.7,35.1,65.5,34.8,65.5z
			"/>
		<path fill="#363636" d="M43.7,65.5h-5.8c-0.3,0-0.5,0.2-0.5,0.5v1.1c0,0.3,0.2,0.5,0.5,0.5h5.8c0.3,0,0.5-0.2,0.5-0.5v-1.1
			C44.2,65.7,44,65.5,43.7,65.5z"/>
		<path fill="#363636" d="M52.6,65.5h-5.8c-0.3,0-0.5,0.2-0.5,0.5v1.1c0,0.3,0.2,0.5,0.5,0.5h5.8c0.3,0,0.5-0.2,0.5-0.5v-1.1
			C53.1,65.7,52.9,65.5,52.6,65.5z"/>
		<path fill="#363636" d="M61.5,65.5l-5.8,0c-0.3,0-0.5,0.2-0.5,0.5v1.1c0,0.3,0.2,0.5,0.5,0.5h5.8c0.3,0,0.5-0.2,0.5-0.5l0-1.1
			C62,65.7,61.8,65.5,61.5,65.5z"/>
		<path fill="#363636" d="M34.8,60.5c3.1-6.1,4.1-7.7,5.4-8.6l-2.8-2.8L19.9,66.6C19.8,66.8,19.8,67,20,67c0.6,0.2,2.1,0.5,3.8,0.5
			c1.4,0,3.1-0.2,4.7-0.9c0.7-0.3,1.5-0.7,2.2-1.2C32.2,64.4,33.6,62.8,34.8,60.5z"/>
		<path fill="#363636" d="M62.6,24.7c-0.5-0.5-1.1-0.7-1.8-0.7c-0.7,0-1.3,0.2-1.8,0.7L37.7,46c-0.3,0.3-0.3,0.8,0,1.1l1.3,1.3
			l2.2-2.2l6.2-6.2l5-5c0,0,0.1-0.1,0.1-0.1c0,0,0,0,0,0c0,0,0,0,0.1,0c0.5-0.4,1.2-0.3,1.7,0.1l0.2,0.2c0.4,0.4,0.5,1,0.3,1.5
			c-0.1,0.1-0.1,0.2-0.3,0.3l-6.7,6.7l-4.7,4.7l-2.1,2.1l1.3,1.3c0.2,0.2,0.4,0.2,0.6,0.2c0.2,0,0.4-0.1,0.6-0.2l21.3-21.3
			c1-1,1-2.6,0-3.6L62.6,24.7z"/>
	</g>
</g>
</svg>
