<?xml version="1.0" encoding="utf-8"?>
<!-- Generator: Adobe Illustrator 18.0.0, SVG Export Plug-In . SVG Version: 6.00 Build 0)  -->
<!DOCTYPE svg PUBLIC "-//W3C//DTD SVG 1.1//EN" "http://www.w3.org/Graphics/SVG/1.1/DTD/svg11.dtd">
<svg version="1.1" id="Layer_1" xmlns="http://www.w3.org/2000/svg" xmlns:xlink="http://www.w3.org/1999/xlink" x="0px" y="0px"
	 viewBox="0 0 88.5 80.2" enable-background="new 0 0 88.5 80.2" xml:space="preserve">
<path fill="#363636" d="M83.1,0H5.3C2.4,0,0,2.4,0,5.3V75c0,2.9,2.4,5.3,5.3,5.3h77.8c2.9,0,5.3-2.4,5.3-5.3V5.3
	C88.4,2.4,86.1,0,83.1,0z M23.6,8.9c0-1.1,0.9-2,2-2h2c1.1,0,2,0.9,2,2v2.2c0,1.1-0.9,2-2,2h-2c-1.1,0-2-0.9-2-2V8.9z M14.4,8.9
	c0-1.1,0.9-2,2-2h2c1.1,0,2,0.9,2,2v2.2c0,1.1-0.9,2-2,2h-2c-1.1,0-2-0.9-2-2V8.9z M5.3,11.1V8.9c0-1.1,0.9-2,2-2h2c1.1,0,2,0.9,2,2
	v2.2c0,1.1-0.9,2-2,2h-2C6.2,13.1,5.3,12.2,5.3,11.1z M82.1,74H6.4V19h75.7V74z"/>
<g>
	<g id="_x34_29._Network">
		<g>
			<path fill="#363636" d="M61.1,54.8v-6.8c0-2.3-1.9-4.3-4.3-4.3H46.2v-6.8c2.5-0.9,4.3-3.2,4.3-6c0-3.5-2.9-6.4-6.4-6.4
				c-3.5,0-6.4,2.9-6.4,6.4c0,2.8,1.8,5.1,4.3,6v6.8H31.4c-2.3,0-4.3,1.9-4.3,4.3v6.8c-2.5,0.9-4.3,3.2-4.3,6c0,3.5,2.9,6.4,6.4,6.4
				s6.4-2.9,6.4-6.4c0-2.8-1.8-5.1-4.3-6v-6.8H42v6.8c-2.5,0.9-4.3,3.2-4.3,6c0,3.5,2.9,6.4,6.4,6.4c3.5,0,6.4-2.9,6.4-6.4
				c0-2.8-1.8-5.1-4.3-6v-6.8h10.6v6.8c-2.5,0.9-4.3,3.2-4.3,6c0,3.5,2.9,6.4,6.4,6.4c3.5,0,6.4-2.9,6.4-6.4
				C65.4,58.1,63.6,55.7,61.1,54.8z M29.2,63c-1.2,0-2.1-1-2.1-2.1c0-1.2,1-2.1,2.1-2.1c1.2,0,2.1,1,2.1,2.1
				C31.4,62,30.4,63,29.2,63z M44.1,63c-1.2,0-2.1-1-2.1-2.1c0-1.2,1-2.1,2.1-2.1c1.2,0,2.1,1,2.1,2.1C46.2,62,45.3,63,44.1,63z
				 M44.1,33.2c-1.2,0-2.1-1-2.1-2.1c0-1.2,1-2.1,2.1-2.1c1.2,0,2.1,1,2.1,2.1C46.2,32.2,45.3,33.2,44.1,33.2z M59,63
				c-1.2,0-2.1-1-2.1-2.1c0-1.2,1-2.1,2.1-2.1c1.2,0,2.1,1,2.1,2.1C61.1,62,60.2,63,59,63z"/>
		</g>
	</g>
</g>
</svg>
