<?xml version="1.0" encoding="utf-8"?>
<!-- Generator: Adobe Illustrator 18.0.0, SVG Export Plug-In . SVG Version: 6.00 Build 0)  -->
<!DOCTYPE svg PUBLIC "-//W3C//DTD SVG 1.1//EN" "http://www.w3.org/Graphics/SVG/1.1/DTD/svg11.dtd">
<svg version="1.1" id="Layer_1" xmlns="http://www.w3.org/2000/svg" xmlns:xlink="http://www.w3.org/1999/xlink" x="0px" y="0px"
	 viewBox="0 0 88 80" enable-background="new 0 0 88 80" xml:space="preserve">
<path fill="#363636" d="M82.6-0.1H5.3C2.4-0.1,0,2.2,0,5.2v69.3c0,2.9,2.4,5.3,5.3,5.3h77.3c2.9,0,5.3-2.4,5.3-5.3V5.2
	C87.9,2.2,85.5-0.1,82.6-0.1z M23.4,8.7c0-1.1,0.9-2,1.9-2h2c1.1,0,1.9,0.9,1.9,2v2.2c0,1.1-0.9,1.9-1.9,1.9h-2
	c-1.1,0-1.9-0.9-1.9-1.9V8.7z M14.4,8.7c0-1.1,0.9-2,1.9-2h2c1.1,0,1.9,0.9,1.9,2v2.2c0,1.1-0.9,1.9-1.9,1.9h-2
	c-1.1,0-1.9-0.9-1.9-1.9V8.7z M5.3,10.9V8.7c0-1.1,0.9-2,2-2h1.9c1.1,0,2,0.9,2,2v2.2c0,1.1-0.9,1.9-2,1.9H7.2
	C6.2,12.9,5.3,12,5.3,10.9z M81.5,73.4H6.3V18.8h75.2V73.4z"/>
<g>
	<path fill="#363636" d="M17.2,42c0.7,0,1.2,0.3,1.2,1c0,1.6,0,3.5,0,5.6c0,2.6,0,4.1,0,5.8c0,1.8-1.7,3.4-3.8,3.4
		c-1,0-2.2-0.2-2.2-1.3c0-0.7,0.4-1.2,0.9-1.2c0.5,0,0.7,0.2,1.3,0.2c1,0,1.4-0.8,1.4-2.2c0.1-1.4,0-2.9,0-6.5c0-1.2,0-2.6,0-3.8
		C15.9,42.3,16.5,42,17.2,42z M15.5,37.8c0-1,0.8-1.5,1.7-1.5c1,0,1.6,0.7,1.6,1.6c0,1.1-0.7,1.5-1.7,1.5
		C16.1,39.4,15.5,38.8,15.5,37.8z"/>
	<path fill="#363636" d="M28.3,42.4c0.4,0.2,0.7,0.4,0.7,0.9c0,0.6-0.3,1.1-1,1.1c-0.7,0-1.5-0.5-2.7-0.5c-1,0-1.9,0.5-1.9,1.3
		c0,0.8,1,0.9,2.2,1.1c2.2,0.3,3.8,1,3.8,3.1c0,2.1-1.7,3.4-4.3,3.4c-2,0-4-0.7-4-1.5c0-0.6,0.2-1.2,1-1.2c0.8,0,1.7,0.7,3.3,0.7
		c1,0,1.8-0.4,1.8-1.2c0-0.9-0.8-1.1-2.2-1.3c-1.8-0.2-3.8-0.7-3.8-2.8c0-2,2-3.4,4.2-3.4C26.6,41.9,27.7,42.1,28.3,42.4z"/>
	<path fill="#363636" d="M35.6,36.1c0.5,0,1,0.5,1,1c0,0.2,0,0.4-0.1,0.5c-1.2,2-2.6,4.6-2.6,8.9c0,3.9,1.2,6.4,2.4,8.6
		c0.1,0.2,0.2,0.4,0.2,0.7c0,0.5-0.5,1-1.1,1s-0.8-0.3-1.2-1c-1-1.7-2.7-4.9-2.7-9.4c0-4.8,1.8-8,2.9-9.7
		C34.7,36.3,35,36.1,35.6,36.1z"/>
	<path fill="#363636" d="M44.2,42c2.9,0.4,4.2,2.9,4.2,5.3c0,3.1-2.4,5.4-5.5,5.4c-2.7,0-5.2-2-5.2-5.1c0-3.4,2.2-5.7,5.8-5.7
		C43.8,41.9,44,41.9,44.2,42z M43.1,44.1c-1.7,0.1-2.9,1.4-2.9,3.5c0,1.7,1.3,2.9,2.6,2.9c1.6,0,3.1-1.3,3.1-3.3
		C46,45.5,44.9,44.1,43.1,44.1z"/>
	<path fill="#363636" d="M52,36c0.6,0,1.3,0.2,1.3,1.1c-0.1,4.3,0,6.3,0,6.6c0.7-1.2,2-1.8,3.4-1.8c2.9,0,4.9,2.5,4.9,5.2
		c0,3.1-2.2,5.5-5.2,5.5c-1.3,0-2.7-0.7-3.3-1.8l0,0.8c-0.1,0.7-0.5,0.9-1.2,0.9c-0.7,0-1-0.5-1-1.4l0.1-4.3l-0.1-9.6
		C50.9,36.3,51.4,36,52,36z M56.3,44.1c-1.6,0-3,1.2-3,3.2c0,1.9,1.4,3.2,2.8,3.2c1.6,0,3-1.4,3-3.3C59.1,45.5,57.8,44.1,56.3,44.1z
		"/>
	<path fill="#363636" d="M68,46.5c0,4.5-1.7,7.6-2.7,9.4c-0.4,0.7-0.6,1-1.2,1c-0.6,0-1.1-0.5-1.1-1c0-0.3,0.1-0.5,0.2-0.7
		c1.2-2.2,2.4-4.7,2.4-8.6c0-4.3-1.4-6.9-2.6-8.9c-0.1-0.1-0.1-0.3-0.1-0.5c0-0.5,0.5-1,1-1c0.5,0,0.8,0.2,1.2,0.7
		C66.1,38.5,67.9,41.7,68,46.5z"/>
	<path fill="#363636" d="M70.8,52.6c0.3-0.4-0.6-0.6-0.6-1.5c0-0.8,0.6-1.5,1.5-1.5c0.9,0,1.6,0.7,1.6,1.6c0,1.6-1,2.6-1.9,3.2
		c-0.2,0.1-0.4,0.2-0.7,0.2c-0.3,0-0.7-0.3-0.7-0.7C69.9,53.6,70.5,53.3,70.8,52.6z M70.1,43.6c0-0.9,0.7-1.6,1.6-1.6
		c0.9,0,1.5,0.6,1.5,1.5c0,1-0.7,1.5-1.7,1.5C70.7,45.1,70.1,44.4,70.1,43.6z"/>
</g>
</svg>
