<?xml version="1.0" encoding="utf-8"?>
<!-- Generator: Adobe Illustrator 18.0.0, SVG Export Plug-In . SVG Version: 6.00 Build 0)  -->
<!DOCTYPE svg PUBLIC "-//W3C//DTD SVG 1.1//EN" "http://www.w3.org/Graphics/SVG/1.1/DTD/svg11.dtd">
<svg version="1.1" id="Layer_1" xmlns="http://www.w3.org/2000/svg" xmlns:xlink="http://www.w3.org/1999/xlink" x="0px" y="0px"
	 viewBox="0 0 88.5 80.2" enable-background="new 0 0 88.5 80.2" xml:space="preserve">
<path fill="#363636" d="M83.2,0H5.3C2.4,0,0,2.4,0,5.3v69.7c0,2.9,2.4,5.3,5.3,5.3h77.8c2.9,0,5.3-2.4,5.3-5.3V5.3
	C88.5,2.4,86.1,0,83.2,0z M23.6,8.9c0-1.1,0.9-2,2-2h2c1.1,0,2,0.9,2,2v2.2c0,1.1-0.9,2-2,2h-2c-1.1,0-2-0.9-2-2V8.9z M14.4,8.9
	c0-1.1,0.9-2,2-2h2c1.1,0,2,0.9,2,2v2.2c0,1.1-0.9,2-2,2h-2c-1.1,0-2-0.9-2-2V8.9z M5.3,11.2V8.9c0-1.1,0.9-2,2-2h2c1.1,0,2,0.9,2,2
	v2.2c0,1.1-0.9,2-2,2h-2C6.2,13.1,5.3,12.2,5.3,11.2z M82.1,74H6.4V19h75.7V74z"/>
<g>
	<path fill="#363636" d="M13.8,46.9c1.8,1,5.8,2.7,6.9,3.4c0.2,0.2,0.3,0.4,0.3,0.7c0,0.5-0.4,1.1-1,1.1c-0.3,0-0.6-0.1-0.8-0.2
		l-7-3.7c-0.6-0.3-0.9-0.8-0.9-1.4s0.4-1,0.9-1.3c1-0.6,5.5-3.1,6.8-3.7c0.3-0.2,0.5-0.3,0.8-0.3c0.5,0,1,0.6,1,1.2
		c0,0.2-0.1,0.5-0.4,0.6C19.2,44,15.1,46.1,13.8,46.9z"/>
	<path fill="#363636" d="M24.7,36.2c0.8,0,1.2,0.4,1.2,1.2c0,0.7,0,1.8-0.1,6.6c0.6-1.1,1.8-1.8,3.2-1.8c2.7,0,4.1,2,4.1,4.6
		c0,1.6,0,3.2,0,5c0,0.7-0.6,1.1-1.3,1.1c-0.7,0-1.3-0.3-1.3-1.1c0-0.9,0.1-3.8,0.1-4.8c0-1.7-0.8-2.6-2.2-2.6c-1.3,0-2.6,1.2-2.6,3
		c0,1.4,0,3.5,0,4.5c0,0.7-0.5,1.1-1.3,1.1c-0.7,0-1.2-0.4-1.2-1.1c0-1,0.1-2.3,0.1-3l0-11.3C23.4,36.7,23.8,36.2,24.7,36.2z"/>
	<path fill="#363636" d="M34.6,43.6c0-0.7,0.4-1.1,1.1-1.1h1.2l0-1.7c0-0.8,0.3-1.5,1.3-1.5c0.8,0,1,0.4,1,1.1c0,0.5,0,1.3,0,2h2
		c0.7,0,1.1,0.3,1.1,1.1c0,0.6-0.3,1.1-1,1.1h-2.1v4c0,1.4,0.3,2.2,1.2,2.2c0.5,0,0.7-0.2,1.1-0.2c0.6,0,0.9,0.5,0.9,1.1
		c0,0.5-0.2,0.8-0.5,1c-0.5,0.3-0.8,0.3-1.7,0.3c-2.2,0-3.4-1.2-3.4-4.1c0-1.4,0.1-2.9,0-4.3h-1.3C34.9,44.7,34.6,44.2,34.6,43.6z"
		/>
	<path fill="#363636" d="M44.4,43.5c0-0.8,0.5-1.1,1.3-1.1c0.6,0,1,0.4,1.1,1l0,0.8c0.6-1.2,2-1.8,3.1-1.8c1.6,0,2.7,0.9,3.1,2
		c0.6-1.1,1.9-2,3.4-2c2.8,0,3.9,1.9,3.9,4.5v2.3c0,0.9,0,1.9,0,3c0,0.8-0.8,1-1.3,1c-0.7,0-1.2-0.4-1.2-1c0-1.2,0.1-3,0.1-4.9
		c0-1.5-0.5-2.7-1.9-2.7c-1.3,0-2.3,0.9-2.3,2.5c0,0.9,0,1.3,0,2.4v2.4c0,0.8-0.5,1.3-1.3,1.3c-0.7,0-1.2-0.4-1.2-1.1
		c0-2,0.1-2.7,0-5.1c0-1.3-0.6-2.4-1.9-2.4c-1.8,0-2.4,1.4-2.4,3.4l0,4.2c0,0.7-0.6,1-1.3,1c-0.6,0-1.2-0.3-1.2-1.1
		c0-0.3,0-0.5,0-1.2l0.1-3.4C44.5,44.3,44.4,43.9,44.4,43.5z"/>
	<path fill="#363636" d="M64.7,36.4c0.9,0,1.3,0.5,1.3,1.4c-0.1,3.7-0.1,7.7-0.1,11.2c0,1,0.1,2,0.1,2.9c0,0.7-0.3,1.1-1.2,1.1
		c-0.8,0.1-1.4-0.4-1.4-1.8c-0.1-3,0-9.8,0-13.7C63.4,36.8,63.9,36.4,64.7,36.4z"/>
	<path fill="#363636" d="M68.4,42.7c0-0.5,0.4-1.2,1-1.2c0.3,0,0.5,0.1,0.8,0.3c1.3,0.7,5.8,3.1,6.8,3.7c0.5,0.3,0.9,0.7,0.9,1.3
		s-0.3,1.1-0.9,1.4l-7,3.7c-0.3,0.1-0.5,0.2-0.8,0.2c-0.6,0-1-0.7-1-1.1c0-0.3,0.1-0.5,0.3-0.7c1.2-0.7,5.1-2.5,6.9-3.4
		c-1.4-0.8-5.4-2.9-6.7-3.5C68.5,43.2,68.4,42.9,68.4,42.7z"/>
</g>
</svg>
