<?xml version="1.0" encoding="UTF-8"?>
<svg width="15px" height="26px" viewBox="0 0 15 26" version="1.1" xmlns="http://www.w3.org/2000/svg" xmlns:xlink="http://www.w3.org/1999/xlink">
    <!-- Generator: Sketch 47.1 (45422) - http://www.bohemiancoding.com/sketch -->
    <title>Group</title>
    <desc>Created with Sketch.</desc>
    <defs></defs>
    <g id="Welcome" stroke="none" stroke-width="1" fill="none" fill-rule="evenodd">
        <g id="Home/Work" transform="translate(-435.000000, -820.000000)" fill="#00D8FF">
            <g id="Group" transform="translate(435.000000, 820.000000)">
                <path d="M7.5,7 C8.46868493,7 9.29410959,6.6590137 9.97665753,5.97665753 C10.6588219,5.29430137 11,4.46868493 11,3.5 C11,2.53112329 10.6588219,1.70589041 9.97665753,1.02334247 C9.29410959,0.341178082 8.46868493,0 7.5,0 C6.53112329,0 5.70550685,0.340986301 5.02334247,1.02334247 C4.34117808,1.70569863 4,2.53112329 4,3.5 C4,4.46887671 4.3409863,5.29449315 5.02334247,5.97665753 C5.70569863,6.65882192 6.53131507,7 7.5,7 L7.5,7 Z" id="Shape"></path>
                <path d="M14.1797717,7.83114866 C13.6326532,7.27711028 12.9688473,7 12.1876348,7 L2.81254493,7 C2.0311526,7 1.36716689,7.27692809 0.820228216,7.83114866 C0.273469337,8.38536922 0,9.05837736 0,9.84999089 L0,16.025123 C0,16.4210208 0.136644771,16.7573427 0.410114108,17.0342708 C0.683583445,17.3113811 1.0156662,17.4498451 1.40618257,17.4498451 C1.79687874,17.4498451 2.12896149,17.3113811 2.40243082,17.0342708 C2.67572037,16.7573427 2.81254493,16.4210208 2.81254493,16.025123 L2.81254493,10.8001093 L3.74999998,10.8001093 L3.74999998,24.3373383 C3.74999998,24.7924478 3.91127677,25.1836087 4.23347075,25.5100923 C4.55566474,25.836576 4.94132662,25.9998178 5.39063621,25.9998178 C5.83994579,25.9998178 6.22578747,25.836576 6.54798145,25.5100923 C6.87017544,25.1836087 7.03127243,24.79263 7.03127243,24.3373383 L7.03127243,17.4498451 L7.96872748,17.4498451 L7.96872748,24.3375205 C7.96872748,24.79263 8.12982447,25.1837909 8.45201846,25.5102745 C8.77421244,25.8367582 9.16005412,26 9.60936371,26 C10.0586733,26 10.444515,25.8367582 10.766709,25.5102745 C11.0890827,25.1836087 11.2499999,24.7928121 11.2499999,24.3375205 L11.2499999,10.8001093 L12.1876348,10.8001093 L12.1876348,16.0249408 C12.1876348,16.4208386 12.3242795,16.7571605 12.5977489,17.0340886 C12.8710384,17.3111989 13.2031212,17.4496629 13.5936375,17.4496629 C13.9841539,17.4496629 14.3165963,17.3111989 14.5898858,17.0340886 C14.8631753,16.7571605 14.9999999,16.4208386 14.9999999,16.0249408 L14.9999999,9.84999089 C15.0001797,9.05819517 14.7265306,8.38536922 14.1797717,7.83114866 L14.1797717,7.83114866 Z" id="Shape"></path>
            </g>
        </g>
    </g>
</svg>