<?xml version="1.0" encoding="UTF-8"?>
<svg width="20px" height="21px" viewBox="0 0 20 21" version="1.1" xmlns="http://www.w3.org/2000/svg" xmlns:xlink="http://www.w3.org/1999/xlink">
    <!-- Generator: Sketch 47.1 (45422) - http://www.bohemiancoding.com/sketch -->
    <title>Shape</title>
    <desc>Created with Sketch.</desc>
    <defs></defs>
    <g id="Welcome" stroke="none" stroke-width="1" fill="none" fill-rule="evenodd">
        <g id="About" transform="translate(-1311.000000, -1533.000000)" fill="#00D8FF">
            <path d="M1329.65837,1538.55373 C1328.76421,1537.0216 1327.55123,1535.80861 1326.01926,1534.91446 C1324.48697,1534.0203 1322.8142,1533.5733 1320.99984,1533.5733 C1319.18564,1533.5733 1317.51239,1534.02046 1315.98042,1534.91446 C1314.44829,1535.80861 1313.23531,1537.0216 1312.34115,1538.55373 C1311.447,1540.08586 1311,1541.75894 1311,1543.57298 C1311,1545.75188 1311.63574,1547.71135 1312.90753,1549.45172 C1314.17917,1551.19208 1315.82189,1552.39644 1317.8357,1553.06478 C1318.07014,1553.10825 1318.2437,1553.07772 1318.35653,1552.97384 C1318.46936,1552.86964 1318.52577,1552.7394 1318.52577,1552.58326 C1318.52577,1552.55721 1318.52353,1552.32292 1318.51922,1551.88024 C1318.51474,1551.4374 1318.51267,1551.05113 1318.51267,1550.72159 L1318.21318,1550.77337 C1318.0222,1550.80837 1317.78136,1550.82324 1317.4905,1550.81892 C1317.1998,1550.81492 1316.89807,1550.7844 1316.58564,1550.72783 C1316.27304,1550.67157 1315.98234,1550.54148 1315.71321,1550.33756 C1315.44425,1550.13348 1315.25327,1549.86643 1315.14044,1549.53674 L1315.0102,1549.23709 C1314.92342,1549.03764 1314.78678,1548.81614 1314.60012,1548.57322 C1314.41345,1548.33015 1314.22471,1548.16522 1314.03374,1548.07844 L1313.94264,1548.0134 C1313.88191,1547.96993 1313.8255,1547.91767 1313.7734,1547.85694 C1313.7213,1547.79621 1313.68231,1547.73548 1313.65626,1547.67459 C1313.63021,1547.61386 1313.65178,1547.56384 1313.7213,1547.52469 C1313.79082,1547.48553 1313.91659,1547.46636 1314.09894,1547.46636 L1314.35928,1547.50535 C1314.53283,1547.54003 1314.74762,1547.64407 1315.0038,1547.81779 C1315.25982,1547.99134 1315.4703,1548.217 1315.63523,1548.4946 C1315.83499,1548.85066 1316.07567,1549.12186 1316.3579,1549.30852 C1316.63997,1549.49519 1316.92428,1549.58836 1317.21067,1549.58836 C1317.49705,1549.58836 1317.74444,1549.56662 1317.95284,1549.52331 C1318.16108,1549.48 1318.35637,1549.4148 1318.53871,1549.32802 C1318.61686,1548.7463 1318.82958,1548.2993 1319.17669,1547.98687 C1318.68191,1547.93477 1318.23715,1547.85646 1317.84209,1547.75242 C1317.44719,1547.64822 1317.03919,1547.47898 1316.61824,1547.24438 C1316.19713,1547.01009 1315.84778,1546.71923 1315.57002,1546.37211 C1315.29227,1546.02484 1315.06437,1545.56905 1314.8865,1545.00491 C1314.70863,1544.44061 1314.61961,1543.78969 1314.61961,1543.05183 C1314.61961,1542.00138 1314.96257,1541.10738 1315.64833,1540.36953 C1315.32711,1539.57973 1315.35747,1538.69436 1315.73942,1537.71343 C1315.99113,1537.63528 1316.36445,1537.69393 1316.85924,1537.88922 C1317.35402,1538.08451 1317.71632,1538.25184 1317.94645,1538.39056 C1318.17658,1538.52927 1318.361,1538.64674 1318.49988,1538.74215 C1319.30726,1538.51649 1320.14052,1538.40366 1320.99984,1538.40366 C1321.85916,1538.40366 1322.69258,1538.51649 1323.50012,1538.74215 L1323.9949,1538.42971 C1324.33323,1538.22131 1324.73276,1538.03034 1325.19254,1537.85678 C1325.65265,1537.68322 1326.00439,1537.63544 1326.24747,1537.71359 C1326.63805,1538.69452 1326.67273,1539.57989 1326.35151,1540.36968 C1327.03727,1541.10754 1327.38023,1542.0017 1327.38023,1543.05199 C1327.38023,1543.78985 1327.29105,1544.44285 1327.11334,1545.01146 C1326.93531,1545.58024 1326.7055,1546.03571 1326.42343,1546.37867 C1326.1412,1546.72163 1325.78961,1547.01025 1325.36866,1547.24454 C1324.94755,1547.47898 1324.53955,1547.64822 1324.14465,1547.75242 C1323.74959,1547.85662 1323.30483,1547.93493 1322.81005,1547.98703 C1323.26136,1548.37761 1323.48702,1548.99385 1323.48702,1549.83591 L1323.48702,1552.58294 C1323.48702,1552.73908 1323.54135,1552.86933 1323.64986,1552.97336 C1323.75838,1553.0774 1323.9297,1553.10793 1324.16414,1553.06446 C1326.17811,1552.39612 1327.82083,1551.19176 1329.09247,1549.45124 C1330.3641,1547.71103 1331,1545.75156 1331,1543.5725 C1330.99952,1541.75878 1330.5522,1540.08586 1329.65837,1538.55373 L1329.65837,1538.55373 Z" id="Shape"></path>
        </g>
    </g>
</svg>