<?xml version="1.0" encoding="UTF-8"?>
<svg width="20px" height="17px" viewBox="0 0 20 17" version="1.1" xmlns="http://www.w3.org/2000/svg" xmlns:xlink="http://www.w3.org/1999/xlink">
    <!-- Generator: Sketch 47.1 (45422) - http://www.bohemiancoding.com/sketch -->
    <title>Shape</title>
    <desc>Created with Sketch.</desc>
    <defs></defs>
    <g id="Welcome" stroke="none" stroke-width="1" fill="none" fill-rule="evenodd">
        <g id="About" transform="translate(-1311.000000, -1645.000000)" fill="#00D8FF">
            <path d="M1331,1646.96863 C1330.21325,1647.3071 1329.42618,1647.51847 1328.63974,1647.60336 C1329.52805,1647.07034 1330.12882,1646.31738 1330.4419,1645.34449 C1329.62945,1645.82658 1328.76232,1646.15648 1327.84021,1646.33421 C1327.02791,1645.47129 1326.02979,1645.03967 1324.84522,1645.03967 C1323.71158,1645.03967 1322.74508,1645.43935 1321.9454,1646.23888 C1321.14587,1647.03841 1320.74619,1648.00491 1320.74619,1649.13855 C1320.74619,1649.44306 1320.77999,1649.75614 1320.84774,1650.07764 C1319.17252,1649.99306 1317.60104,1649.57219 1316.13314,1648.81503 C1314.66524,1648.05771 1313.41945,1647.04884 1312.39578,1645.78826 C1312.02351,1646.42268 1311.83738,1647.11224 1311.83738,1647.85678 C1311.83738,1648.55896 1312.00233,1649.21051 1312.33239,1649.81113 C1312.66229,1650.41175 1313.10653,1650.89819 1313.66493,1651.27046 C1313.00497,1651.24507 1312.38737,1651.07155 1311.81214,1650.75006 L1311.81214,1650.80084 C1311.81214,1651.79071 1312.12304,1652.65986 1312.74485,1653.40876 C1313.36665,1654.15767 1314.15138,1654.62916 1315.09888,1654.8237 C1314.74358,1654.91669 1314.38393,1654.96327 1314.02023,1654.96327 C1313.78331,1654.96327 1313.52521,1654.94208 1313.24609,1654.90003 C1313.50839,1655.72058 1313.99063,1656.39519 1314.69281,1656.924 C1315.39498,1657.45297 1316.1903,1657.72555 1317.07861,1657.74268 C1315.58968,1658.90997 1313.89344,1659.49376 1311.98987,1659.49376 C1311.62601,1659.49376 1311.2961,1659.4771 1311,1659.44314 C1312.90357,1660.66976 1315.00168,1661.283 1317.2945,1661.283 C1318.74963,1661.283 1320.11597,1661.05263 1321.39322,1660.59157 C1322.67094,1660.13052 1323.76221,1659.51292 1324.66749,1658.73863 C1325.57263,1657.96465 1326.35315,1657.07415 1327.00875,1656.06731 C1327.66436,1655.06062 1328.15283,1654.00954 1328.47447,1652.91391 C1328.79597,1651.81812 1328.95671,1650.72062 1328.95671,1649.62063 C1328.95671,1649.38372 1328.95251,1649.20615 1328.94394,1649.08761 C1329.74783,1648.50413 1330.43318,1647.79759 1331,1646.96863 L1331,1646.96863 Z" id="Shape"></path>
        </g>
    </g>
</svg>