<?xml version="1.0" encoding="UTF-8" standalone="no"?>
<!DOCTYPE svg PUBLIC "-//W3C//DTD SVG 1.1//EN" "http://www.w3.org/Graphics/SVG/1.1/DTD/svg11.dtd">
<svg width="100%" height="100%" viewBox="0 0 716 302" version="1.1" xmlns="http://www.w3.org/2000/svg" xmlns:xlink="http://www.w3.org/1999/xlink" xml:space="preserve" xmlns:serif="http://www.serif.com/" style="fill-rule:evenodd;clip-rule:evenodd;stroke-linejoin:round;stroke-miterlimit:1.41421;">
    <g id="Artboard1" transform="matrix(0.992962,0,0,0.968505,-0.692335,4.22446)">
        <rect x="0.697" y="-4.362" width="720.422" height="310.812" style="fill:none;"/>
        <clipPath id="_clip1">
            <rect x="0.697" y="-4.362" width="720.422" height="310.812"/>
        </clipPath>
        <g clip-path="url(#_clip1)">
            <g transform="matrix(1.04986,0,0,1.07637,-816.392,-12.4958)">
                <path d="M779.158,263.483C803.514,263.483 803.514,279.483 827.869,279.483C852.224,279.483 852.224,263.483 876.579,263.483C900.934,263.483 900.934,279.483 925.29,279.483C949.646,279.483 949.646,263.483 974.001,263.483C998.358,263.483 998.358,279.483 1022.72,279.483C1047.07,279.483 1047.07,263.483 1071.43,263.483C1095.79,263.483 1095.79,279.483 1120.14,279.483C1144.5,279.483 1144.5,263.483 1168.86,263.483C1193.22,263.483 1193.22,279.483 1217.57,279.483C1241.93,279.483 1241.93,263.483 1266.29,263.483" style="fill:none;stroke:rgb(0,216,255);stroke-width:19.98px;"/>
            </g>
            <g transform="matrix(1.04986,0,0,1.07637,-816.392,-12.4958)">
                <path d="M779.158,224.632C803.514,224.632 803.514,240.632 827.869,240.632C852.224,240.632 852.224,224.632 876.579,224.632C900.934,224.632 900.934,240.632 925.29,240.632C949.646,240.632 949.646,224.632 974.001,224.632C998.358,224.632 998.358,240.632 1022.72,240.632C1047.07,240.632 1047.07,224.632 1071.43,224.632C1095.79,224.632 1095.79,240.632 1120.14,240.632C1144.5,240.632 1144.5,224.632 1168.86,224.632C1193.22,224.632 1193.22,240.632 1217.57,240.632C1241.93,240.632 1241.93,224.632 1266.29,224.632" style="fill:none;stroke:rgb(0,216,255);stroke-width:19.98px;"/>
            </g>
            <g transform="matrix(1.04986,0,0,1.07637,-816.392,-12.4958)">
                <path d="M779.158,185.781C803.514,185.781 803.514,201.781 827.869,201.781C852.224,201.781 852.224,185.781 876.579,185.781C900.934,185.781 900.934,201.781 925.29,201.781C949.646,201.781 949.646,185.781 974.001,185.781C998.358,185.781 998.358,201.781 1022.72,201.781C1047.07,201.781 1047.07,185.781 1071.43,185.781C1095.79,185.781 1095.79,201.781 1120.14,201.781C1144.5,201.781 1144.5,185.781 1168.86,185.781C1193.22,185.781 1193.22,201.781 1217.57,201.781C1241.93,201.781 1241.93,185.781 1266.29,185.781C1290.64,185.781 1290.64,201.781 1315,201.781C1339.36,201.781 1339.36,185.781 1363.72,185.781" style="fill:none;stroke:rgb(0,216,255);stroke-width:19.98px;"/>
            </g>
            <g transform="matrix(1.04986,0,0,1.07637,-816.392,-12.4958)">
                <path d="M779.158,146.929C803.514,146.929 803.514,162.929 827.869,162.929C852.224,162.929 852.224,146.929 876.579,146.929C900.934,146.929 900.934,162.929 925.29,162.929C949.646,162.929 949.646,146.929 974.001,146.929C998.358,146.929 998.358,162.929 1022.72,162.929C1047.07,162.929 1047.07,146.929 1071.43,146.929C1095.79,146.929 1095.79,162.929 1120.14,162.929C1144.5,162.929 1144.5,146.929 1168.86,146.929C1193.22,146.929 1193.22,162.929 1217.57,162.929C1241.93,162.929 1241.93,146.929 1266.29,146.929C1290.64,146.929 1290.64,162.929 1315,162.929C1339.36,162.929 1339.36,146.929 1363.72,146.929" style="fill:none;stroke:rgb(0,216,255);stroke-width:19.98px;"/>
            </g>
            <g transform="matrix(1.04986,0,0,1.07637,-816.392,-12.4958)">
                <path d="M779.158,108.078C803.514,108.078 803.514,124.078 827.869,124.078C852.224,124.078 852.224,108.078 876.579,108.078C900.934,108.078 900.934,124.078 925.29,124.078C949.646,124.078 949.646,108.078 974.001,108.078C998.358,108.078 998.358,124.078 1022.72,124.078C1047.07,124.078 1047.07,108.078 1071.43,108.078C1095.79,108.078 1095.79,124.078 1120.14,124.078C1144.5,124.078 1144.5,108.078 1168.86,108.078C1193.22,108.078 1193.22,124.078 1217.57,124.078C1241.93,124.078 1241.93,108.078 1266.29,108.078C1290.64,108.078 1290.64,124.078 1315,124.078C1339.36,124.078 1339.36,108.078 1363.72,108.078C1388.08,108.078 1388.08,124.078 1412.44,124.078C1436.8,124.078 1436.8,108.078 1461.16,108.078" style="fill:none;stroke:rgb(0,216,255);stroke-width:19.98px;"/>
            </g>
            <g transform="matrix(1.04986,0,0,1.07637,-816.392,-12.4958)">
                <path d="M779.158,69.227C803.514,69.227 803.514,85.227 827.869,85.227C852.224,85.227 852.224,69.227 876.579,69.227C900.934,69.227 900.934,85.227 925.29,85.227C949.646,85.227 949.646,69.227 974.001,69.227C998.358,69.227 998.358,85.227 1022.72,85.227C1047.07,85.227 1047.07,69.227 1071.43,69.227C1095.79,69.227 1095.79,85.227 1120.14,85.227C1144.5,85.227 1144.5,69.227 1168.86,69.227C1193.22,69.227 1193.22,85.227 1217.57,85.227C1241.93,85.227 1241.93,69.227 1266.29,69.227C1290.64,69.227 1290.64,85.227 1315,85.227C1339.36,85.227 1339.36,69.227 1363.72,69.227C1388.08,69.227 1388.08,85.227 1412.44,85.227C1436.8,85.227 1436.8,69.227 1461.16,69.227" style="fill:none;stroke:rgb(0,216,255);stroke-width:19.98px;"/>
            </g>
            <g transform="matrix(1.04986,0,0,1.07637,-816.392,-12.4958)">
                <path d="M779.158,30.375C803.514,30.375 803.514,46.375 827.869,46.375C852.224,46.375 852.224,30.375 876.579,30.375C900.934,30.375 900.934,46.375 925.29,46.375C949.646,46.375 949.646,30.375 974.001,30.375C998.358,30.375 998.358,46.375 1022.72,46.375C1047.07,46.375 1047.07,30.375 1071.43,30.375C1095.79,30.375 1095.79,46.375 1120.14,46.375C1144.5,46.375 1144.5,30.375 1168.86,30.375C1193.22,30.375 1193.22,46.375 1217.57,46.375C1241.93,46.375 1241.93,30.375 1266.29,30.375C1290.64,30.375 1290.64,46.375 1315,46.375C1339.36,46.375 1339.36,30.375 1363.72,30.375C1388.08,30.375 1388.08,46.375 1412.44,46.375C1436.8,46.375 1436.8,30.375 1461.16,30.375" style="fill:none;stroke:rgb(0,216,255);stroke-width:19.98px;"/>
            </g>
        </g>
    </g>
</svg>
