<?xml version="1.0" encoding="UTF-8"?>
<svg width="255px" height="70px" viewBox="0 0 255 70" version="1.1" xmlns="http://www.w3.org/2000/svg" xmlns:xlink="http://www.w3.org/1999/xlink">
    <!-- Generator: Sketch 47.1 (45422) - http://www.bohemiancoding.com/sketch -->
    <title>Page 1</title>
    <desc>Created with Sketch.</desc>
    <defs></defs>
    <g id="Welcome" stroke="none" stroke-width="1" fill="none" fill-rule="evenodd">
        <g id="About" transform="translate(-177.000000, -477.000000)" fill="#31FF3D">
            <path d="M271.653283,644.704613 C279.222,637.628671 281.474136,627.161051 283.610778,617.436443 C285.911036,606.968823 288.353738,594.843862 299.930102,591.117251 C327.654473,582.193403 342.360728,620.36422 368.845462,615.251679 C379.726936,613.15161 388.412097,604.094944 392.592985,594.152822 C398.040459,581.200153 396.989462,567.013621 399.820994,553.498881 C402.785344,539.346997 412.063181,527.580068 427.814659,530.865877 C442.276452,533.884124 450.567007,547.564406 455.24067,560.455478 C457.923984,567.856729 469.382929,563.569971 466.69384,556.151396 C458.857562,534.536666 439.864549,513.000856 414.419262,518.973829 C402.812292,521.699491 394.602583,530.775406 390.550663,541.701153 C385.644087,554.927158 386.76438,569.038619 383.515144,582.582233 C380.949249,593.278916 372.294888,606.913001 359.396116,602.645492 C353.08821,600.556973 348.066139,595.660021 342.838104,591.764018 C337.423353,587.727498 331.631322,583.925815 325.350365,581.383019 C314.341847,576.928794 301.726036,576.066438 290.96968,581.719877 C281.1931,586.857442 276.442441,596.302938 273.630158,606.562669 C270.956469,616.32 270.750504,631.800066 260.958525,637.582473 C247.006831,645.822981 234.498815,629.596053 229.879049,618.433543 C226.874276,611.17666 215.403781,615.43647 218.425878,622.737625 C222.93015,633.617174 230.042665,644.471699 241.355317,649.139588 C251.541902,653.339725 263.401226,652.417697 271.653283,644.704613 L781.889172,276.135076" id="Page-1" transform="translate(499.906250, 463.876448) rotate(25.000000) translate(-499.906250, -463.876448) "></path>
        </g>
    </g>
</svg>