<?xml version="1.0" encoding="UTF-8"?>
<svg width="20px" height="21px" viewBox="0 0 20 21" version="1.1" xmlns="http://www.w3.org/2000/svg" xmlns:xlink="http://www.w3.org/1999/xlink">
    <!-- Generator: Sketch 47.1 (45422) - http://www.bohemiancoding.com/sketch -->
    <title>Shape</title>
    <desc>Created with Sketch.</desc>
    <defs></defs>
    <g id="Welcome" stroke="none" stroke-width="1" fill="none" fill-rule="evenodd">
        <g id="About" transform="translate(-1310.000000, -1426.000000)" fill="#00D8FF">
            <path d="M1329.24502,1426.89814 C1328.74159,1426.39455 1328.13812,1426.14284 1327.43523,1426.14284 L1312.56525,1426.14284 C1311.86204,1426.14284 1311.25889,1426.39471 1310.7553,1426.89814 C1310.25171,1427.40157 1310,1428.00488 1310,1428.70793 L1310,1443.57775 C1310,1444.2808 1310.25171,1444.88411 1310.7553,1445.38754 C1311.25889,1445.89113 1311.8622,1446.143 1312.56525,1446.143 L1327.43507,1446.143 C1328.13796,1446.143 1328.74143,1445.89113 1329.24486,1445.38754 C1329.74845,1444.88411 1330,1444.2808 1330,1443.57775 L1330,1428.70793 C1330,1428.00473 1329.74845,1427.40173 1329.24502,1426.89814 L1329.24502,1426.89814 Z M1317.18128,1433.34985 C1317.96679,1432.5904 1318.91084,1432.21051 1320.01326,1432.21051 C1321.12432,1432.21051 1322.07269,1432.5904 1322.85835,1433.34985 C1323.64386,1434.10947 1324.03669,1435.02747 1324.03669,1436.10384 C1324.03669,1437.18006 1323.64386,1438.09822 1322.85835,1438.85752 C1322.07269,1439.61713 1321.12448,1439.99702 1320.01326,1439.99702 C1318.91084,1439.99702 1317.96695,1439.61697 1317.18128,1438.85752 C1316.39561,1438.09806 1316.00278,1437.18006 1316.00278,1436.10384 C1316.00278,1435.02747 1316.39561,1434.10947 1317.18128,1433.34985 L1317.18128,1433.34985 Z M1327.73473,1443.04412 C1327.73473,1443.26962 1327.65642,1443.45837 1327.50028,1443.61036 C1327.34382,1443.76234 1327.15731,1443.83826 1326.94012,1443.83826 L1313.02105,1443.83826 C1312.79538,1443.83826 1312.60648,1443.76234 1312.45465,1443.61036 C1312.30266,1443.45869 1312.22675,1443.26962 1312.22675,1443.04412 L1312.22675,1434.60635 L1314.06258,1434.60635 C1313.88902,1435.15324 1313.80224,1435.72188 1313.80224,1436.31209 C1313.80224,1437.97899 1314.40987,1439.40042 1315.62513,1440.57668 C1316.84055,1441.75279 1318.30321,1442.34108 1320.01326,1442.34108 C1321.14174,1442.34108 1322.18344,1442.07178 1323.13851,1441.53368 C1324.09343,1440.99525 1324.84825,1440.26408 1325.4041,1439.33953 C1325.95979,1438.41498 1326.23755,1437.40573 1326.23755,1436.31209 C1326.23755,1435.72188 1326.15045,1435.1534 1325.97689,1434.60635 L1327.73489,1434.60635 L1327.73489,1443.04412 L1327.73473,1443.04412 Z M1327.73473,1431.41621 C1327.73473,1431.66792 1327.64795,1431.88064 1327.47407,1432.0542 C1327.30051,1432.22793 1327.08795,1432.31471 1326.83607,1432.31471 L1324.57049,1432.31471 C1324.31893,1432.31471 1324.10606,1432.22793 1323.93249,1432.0542 C1323.75893,1431.88064 1323.67215,1431.66792 1323.67215,1431.41621 L1323.67215,1429.26793 C1323.67215,1429.02485 1323.75893,1428.81437 1323.93249,1428.63633 C1324.10606,1428.45845 1324.31893,1428.36943 1324.57049,1428.36943 L1326.83607,1428.36943 C1327.08795,1428.36943 1327.30051,1428.45845 1327.47407,1428.63633 C1327.64795,1428.81437 1327.73473,1429.02485 1327.73473,1429.26793 L1327.73473,1431.41621 L1327.73473,1431.41621 Z" id="Shape"></path>
        </g>
    </g>
</svg>