<?xml version="1.0" encoding="UTF-8"?>
<svg width="20px" height="21px" viewBox="0 0 20 21" version="1.1" xmlns="http://www.w3.org/2000/svg" xmlns:xlink="http://www.w3.org/1999/xlink">
    <!-- Generator: Sketch 47.1 (45422) - http://www.bohemiancoding.com/sketch -->
    <title>Shape</title>
    <desc>Created with Sketch.</desc>
    <defs></defs>
    <g id="Welcome" stroke="none" stroke-width="1" fill="none" fill-rule="evenodd">
        <g id="About" transform="translate(-1308.000000, -1320.000000)" fill="#00D8FF">
            <path d="M1326.8998,1321.24288 C1326.16655,1320.50947 1325.28322,1320.14268 1324.25031,1320.14268 L1311.75001,1320.14268 C1310.7171,1320.14268 1309.83377,1320.50947 1309.1002,1321.24288 C1308.36679,1321.97645 1308,1322.85978 1308,1323.89269 L1308,1336.39283 C1308,1337.42575 1308.36679,1338.30907 1309.1002,1339.04264 C1309.83377,1339.77621 1310.7171,1340.143 1311.75001,1340.143 L1324.25015,1340.143 C1325.28306,1340.143 1326.16639,1339.77621 1326.89964,1339.04264 C1327.63321,1338.30907 1328,1337.42575 1328,1336.39283 L1328,1323.89269 C1328,1322.85978 1327.63321,1321.97629 1326.8998,1321.24288 L1326.8998,1321.24288 Z M1314.09377,1336.88763 L1311.08596,1336.88763 L1311.08596,1327.85095 L1314.09377,1327.85095 L1314.09377,1336.88763 L1314.09377,1336.88763 Z M1313.82047,1326.17795 C1313.50803,1326.47745 1313.09569,1326.62721 1312.58347,1326.62721 L1312.57036,1326.62721 C1312.07556,1326.62721 1311.67426,1326.47745 1311.36596,1326.17795 C1311.05767,1325.87845 1310.9036,1325.50735 1310.9036,1325.06465 C1310.9036,1324.61332 1311.06215,1324.23998 1311.37891,1323.94479 C1311.69583,1323.6496 1312.10593,1323.50193 1312.60936,1323.50193 C1313.11279,1323.50193 1313.5165,1323.6496 1313.82031,1323.94479 C1314.12413,1324.23998 1314.28044,1324.61332 1314.28907,1325.06465 C1314.28907,1325.50719 1314.13292,1325.87829 1313.82047,1326.17795 L1313.82047,1326.17795 Z M1324.9142,1336.88763 L1321.90639,1336.88763 L1321.90639,1332.05692 C1321.90639,1330.6943 1321.40296,1330.01267 1320.39594,1330.01267 C1320.01413,1330.01267 1319.69289,1330.11895 1319.43254,1330.33167 C1319.17188,1330.54423 1318.97658,1330.80266 1318.84649,1331.10647 C1318.78575,1331.26278 1318.75539,1331.5057 1318.75539,1331.83557 L1318.75539,1336.88763 L1315.74758,1336.88763 C1315.77363,1331.43618 1315.77363,1328.4239 1315.74758,1327.85095 L1318.75539,1327.85095 L1318.75539,1329.12679 C1319.38779,1328.13798 1320.28582,1327.64254 1321.45075,1327.64254 C1322.49245,1327.64254 1323.33023,1327.98551 1323.96391,1328.67114 C1324.5976,1329.35693 1324.91436,1330.36827 1324.91436,1331.70484 L1324.91436,1336.88763 L1324.9142,1336.88763 Z" id="Shape"></path>
        </g>
    </g>
</svg>