<?xml version="1.0" encoding="UTF-8"?>
<svg width="190px" height="64px" viewBox="0 0 190 64" version="1.1" xmlns="http://www.w3.org/2000/svg" xmlns:xlink="http://www.w3.org/1999/xlink">
    <!-- Generator: Sketch 47.1 (45422) - http://www.bohemiancoding.com/sketch -->
    <title>Group 5</title>
    <desc>Created with Sketch.</desc>
    <defs>
        <path d="M0,38.3416006 L0.94380002,39.8288006 C4.5760001,39.2282006 7.17860016,37.0832006 7.97940017,33.9944005 C8.32260018,32.5358005 8.35120018,30.0762004 8.35120018,26.5870003 L8.35120018,15.3472001 L10.7536002,14.9754001 L10.7536002,13.2022 L1.60160003,13.2022 L1.60160003,14.9754001 L4.17560009,15.3758001 L4.17560009,28.5032004 C4.17560009,31.8494005 4.00400009,33.3652005 3.57500008,34.6522005 C2.91720006,36.6542006 1.43000003,37.8840006 0,38.3416006 Z M12.8414003,26.5298003 C12.8414003,20.9528002 16.5880004,18.1500002 20.7064004,18.1500002 C25.5684006,18.1500002 28.2282006,21.3818002 28.2282006,26.3868003 C28.2282006,32.0782005 24.4816005,34.7666005 20.3632004,34.7666005 C15.5298003,34.7666005 12.8414003,31.5348004 12.8414003,26.5298003 Z M20.5920004,32.9076005 C22.6798005,32.9076005 23.8238005,30.9342004 23.8238005,26.6728003 C23.8238005,22.4972002 22.9372005,20.0090002 20.5348004,20.0090002 C18.4184004,20.0090002 17.2172004,21.9538002 17.2172004,26.2438003 C17.2172004,30.4480004 18.1896004,32.9076005 20.5920004,32.9076005 Z M32.1750007,32.5072005 L30.5734007,32.7360005 L30.5734007,34.4520005 L37.9808008,34.4520005 L37.9808008,32.7360005 L36.2362008,32.4786005 L36.2362008,22.0682002 C37.0656008,21.3818002 38.4098008,20.6668002 39.6968009,20.6668002 C41.7846009,20.6668002 42.1850009,21.8394002 42.1850009,24.6136003 L42.1850009,32.4786005 L40.5262009,32.7360005 L40.5262009,34.4520005 L48.048001,34.4520005 L48.048001,32.7360005 L46.217601,32.4786005 L46.217601,24.6136003 C46.217601,20.2092002 45.245201,18.2358002 41.6130009,18.2358002 C39.0962008,18.2358002 36.9226008,19.5514002 35.9788008,20.4094002 L36.1790008,17.9212002 L36.1504008,11.5434 L35.4068008,11 L35.3210008,11 L30.0014007,11.6292 L30.0014007,13.1736 L32.1750007,13.5454001 L32.1750007,32.5072005 Z M51.5944011,32.4786005 L49.9356011,32.7360005 L49.9356011,34.4520005 L57.4002012,34.4520005 L57.4002012,32.7360005 L55.6842012,32.4786005 L55.6842012,22.0682002 C56.4850012,21.4676002 57.8292013,20.6668002 59.1734013,20.6668002 C61.1468013,20.6668002 61.6044013,21.7822002 61.6044013,24.6136003 L61.6044013,32.5072005 L60.0600013,32.7360005 L60.0600013,34.4520005 L67.4388015,34.4520005 L67.4388015,32.7360005 L65.6942014,32.5072005 L65.6942014,24.6136003 C65.6942014,20.0376002 64.5788014,18.2358002 61.1182013,18.2358002 C58.7730013,18.2358002 56.4850012,19.4370002 55.2838012,20.5524002 L55.3124012,19.8660002 L55.3124012,18.7506002 L54.5974012,18.1786002 L54.5116012,18.1786002 L49.7640011,18.7792002 L49.7640011,20.7526002 L51.5944011,21.2674002 L51.5944011,32.4786005 Z M78.3640017,32.4500005 L76.1046016,32.7360005 L76.1046016,34.4520005 L83.6836018,34.4520005 L83.6836018,32.7360005 L80.7950018,32.4500005 L80.7950018,17.1490001 L82.7970018,20.9242002 L91.691602,34.4520005 L95.1522021,34.4520005 L95.1522021,15.3472001 L97.3544021,14.9754001 L97.3544021,13.2022 L90.261602,13.2022 L90.261602,14.9754001 L92.721202,15.3472001 L92.721202,29.3326004 L91.119602,26.0722003 L82.5968018,13.2022 L76.1046016,13.2022 L76.1046016,14.9754001 L78.3640017,15.3472001 L78.3640017,32.4500005 Z M106.134602,42.1740007 C100.700602,42.1740007 98.8702021,40.2292006 98.8702021,37.7124006 C98.8702021,36.0822005 100.128602,34.5950005 101.558602,33.9372005 C100.643402,33.3938005 100.243002,32.5644005 100.243002,31.4776004 C100.243002,30.1906004 101.158202,28.9036004 102.502402,28.2744004 C100.328802,27.4450004 99.3850022,25.7004003 99.3850022,23.5268003 C99.3850022,20.1520002 102.702602,18.1500002 106.420602,18.1500002 C108.651402,18.1500002 110.310202,18.5790002 111.397002,19.4370002 C111.826002,18.8936002 113.113002,18.0928002 114.485802,18.0928002 L115.486803,18.0928002 L115.486803,21.2102002 L112.541002,21.2102002 C112.798402,21.7536002 112.970002,22.4114002 112.970002,23.1550003 C112.998602,26.6156003 110.367402,28.8750004 106.048802,28.8750004 C105.219402,28.8750004 104.447202,28.8178004 103.789402,28.6748004 C103.417602,29.1610004 103.188802,29.7616004 103.188802,30.1906004 C103.188802,31.4490004 103.989602,31.8208005 106.277602,31.8208005 L109.337802,31.8208005 C113.227402,31.8208005 115.172202,33.2508005 115.172202,36.0536005 C115.172202,39.7430006 110.796402,42.1740007 106.134602,42.1740007 Z M106.334802,27.1018003 C108.222402,27.1018003 108.994602,25.7004003 108.994602,23.4696003 C108.994602,20.9528002 108.108002,19.8660002 106.277602,19.8660002 C104.533002,19.8660002 103.474802,20.9814002 103.474802,23.3552003 C103.474802,25.6432003 104.304202,27.1018003 106.334802,27.1018003 Z M106.563602,40.2006006 C108.794402,40.2006006 110.996602,39.0852006 110.996602,36.9116006 C110.996602,35.3100005 110.338802,34.5950005 108.050802,34.5950005 L104.933402,34.5950005 C104.447202,34.5950005 104.018202,34.5664005 103.617802,34.5092005 C103.188802,35.0812005 102.845602,35.9106005 102.845602,36.9688006 C102.845602,38.9422006 103.789402,40.2006006 106.563602,40.2006006 Z M129.901203,34.7380005 C131.359803,34.7380005 132.532403,34.4520005 133.218803,34.3090005 L133.247403,32.6788005 L131.645803,32.6788005 L131.645803,18.6076002 L130.959403,18.2072002 L130.902203,18.2072002 L125.725603,18.5790002 L125.725603,20.1806002 L127.641803,20.6096002 L127.641803,31.1058004 C127.069803,31.6206004 125.983003,32.4214005 124.495803,32.4214005 C122.608203,32.4214005 122.064803,31.4204004 122.064803,28.6748004 L122.064803,18.6076002 L121.492803,18.2072002 L121.464203,18.2072002 L116.602203,18.5790002 L116.602203,20.2092002 L118.032203,20.6096002 L118.032203,28.6748004 C118.032203,33.0220005 119.433603,34.7666005 123.123003,34.7666005 C125.125003,34.7666005 127.155603,33.5082005 128.099403,32.3642005 L128.099403,33.1364005 C128.099403,34.1946005 128.642803,34.7380005 129.901203,34.7380005 Z M137.823403,41.5734007 C141.198203,41.5734007 142.656803,39.2568006 144.315603,34.8238005 C144.630203,34.1374005 147.004003,27.3306004 149.234803,20.5524002 L150.636203,20.2092002 L150.636203,18.5504002 L144.430003,18.5504002 L144.430003,20.2092002 L146.231803,20.5524002 L143.886603,28.4746004 L143.000003,31.8494005 L141.970403,28.4746004 L139.425003,20.5524002 L141.512803,20.2092002 L141.512803,18.5504002 L133.647803,18.5504002 L133.647803,20.2092002 L134.934803,20.5810002 L140.311603,34.4520005 L141.856003,34.4520005 C140.797803,37.4264006 139.653803,38.5704006 137.766203,38.5704006 C137.137003,38.5704006 136.136003,38.3988006 135.878603,38.2272006 L135.878603,41.2874007 C136.221803,41.4590007 137.165603,41.5734007 137.823403,41.5734007 Z M158.873003,34.7666005 C153.639203,34.7666005 151.408403,31.3632004 151.408403,26.5012003 C151.408403,21.2960002 154.497203,18.1500002 159.101803,18.1500002 C162.962804,18.1500002 165.022004,20.2664002 165.107804,23.9272003 C165.107804,25.1570003 165.050604,26.0436003 164.879004,26.7300003 L155.584003,26.7300003 C155.727003,30.1334004 157.214203,32.2212005 159.988403,32.2212005 C161.532804,32.2212005 163.306004,31.5920004 164.164004,30.9628004 L164.879004,32.5358005 C163.963804,33.5082005 161.418403,34.7666005 158.873003,34.7666005 Z M155.584003,25.0140003 L161.103803,25.0140003 C161.132403,24.6136003 161.161003,24.1846003 161.161003,23.7842003 C161.161003,21.5248002 160.503203,19.9804002 158.615603,19.9804002 C156.928203,19.9804002 155.698403,21.0100002 155.584003,25.0140003 Z M168.997404,32.4786005 L167.338604,32.7360005 L167.338604,34.4520005 L174.803204,34.4520005 L174.803204,32.7360005 L173.087204,32.4786005 L173.087204,22.0682002 C173.888004,21.4676002 175.232204,20.6668002 176.576404,20.6668002 C178.549804,20.6668002 179.007404,21.7822002 179.007404,24.6136003 L179.007404,32.5072005 L177.463004,32.7360005 L177.463004,34.4520005 L184.841804,34.4520005 L184.841804,32.7360005 L183.097204,32.5072005 L183.097204,24.6136003 C183.097204,20.0376002 181.981804,18.2358002 178.521204,18.2358002 C176.176004,18.2358002 173.888004,19.4370002 172.686804,20.5524002 L172.715404,19.8660002 L172.715404,18.7506002 L172.000404,18.1786002 L171.914604,18.1786002 L167.167004,18.7792002 L167.167004,20.7526002 L168.997404,21.2674002 L168.997404,32.4786005 Z" id="path-1"></path>
        <filter x="-1.5%" y="-8.0%" width="105.0%" height="125.7%" filterUnits="objectBoundingBox" id="filter-2">
            <feMorphology radius="0.5" operator="dilate" in="SourceAlpha" result="shadowSpreadOuter1"></feMorphology>
            <feOffset dx="4" dy="3" in="shadowSpreadOuter1" result="shadowOffsetOuter1"></feOffset>
            <feComposite in="shadowOffsetOuter1" in2="SourceAlpha" operator="out" result="shadowOffsetOuter1"></feComposite>
            <feColorMatrix values="0 0 0 0 0.37254902   0 0 0 0 0.0980392157   0 0 0 0 0.588235294  0 0 0 0.5 0" type="matrix" in="shadowOffsetOuter1"></feColorMatrix>
        </filter>
    </defs>
    <g id="Welcome" stroke="none" stroke-width="1" fill="none" fill-rule="evenodd">
        <g id="Home/Work" transform="translate(-503.000000, -50.000000)">
            <g id="Group-5" transform="translate(504.000000, 52.000000)">
                <polygon id="Triangle" stroke="#E19FD5" stroke-width="3" opacity="0.612205616" transform="translate(87.707851, 34.733654) rotate(-170.000000) translate(-87.707851, -34.733654) " points="87.7078511 9.80913273 142.814936 59.658176 32.6007665 59.658176"></polygon>
                <g id="John-Nguyen">
                    <use fill="black" fill-opacity="1" filter="url(#filter-2)" xlink:href="#path-1"></use>
                    <use fill="#FFFFFF" fill-rule="evenodd" xlink:href="#path-1"></use>
                </g>
            </g>
        </g>
    </g>
</svg>