<?xml version="1.0" encoding="UTF-8" standalone="no"?>
<!DOCTYPE svg PUBLIC "-//W3C//DTD SVG 1.1//EN" "http://www.w3.org/Graphics/SVG/1.1/DTD/svg11.dtd">
<svg width="100%" height="100%" viewBox="0 0 363 202" version="1.1" xmlns="http://www.w3.org/2000/svg" xmlns:xlink="http://www.w3.org/1999/xlink" xml:space="preserve" xmlns:serif="http://www.serif.com/" style="fill-rule:evenodd;clip-rule:evenodd;stroke-linejoin:round;stroke-miterlimit:1.41421;">
    <g id="Artboard1" transform="matrix(0.514313,0,0,0.521654,-0.271791,0.610481)">
        <rect x="0.528" y="-1.17" width="704.207" height="386.52" style="fill:none;"/>
        <g transform="matrix(4.20939,0,0,4.15015,-4595.41,-2709.17)">
            <path d="M1165.05,653.999C1178.77,654.065 1192.56,658.097 1204.15,665.624C1217.62,674.376 1228.05,687.719 1233.24,702.889C1235.81,710.395 1237.1,718.339 1237.11,726.277L1231.11,726.287C1231.08,708.898 1224.08,691.939 1211.98,679.695C1196.5,664.035 1173.02,656.791 1151.06,661.43C1134.21,664.986 1118.94,675.423 1109.42,689.889C1102.59,700.258 1098.79,712.609 1098.55,724.997C1098.54,725.427 1098.54,725.857 1098.54,726.287L1092.54,726.277C1092.56,713.004 1096.3,699.617 1103.35,688.241C1112.05,674.215 1125.64,663.321 1141.22,657.941C1148.64,655.379 1156.39,654.064 1164.35,654C1164.59,653.999 1164.82,653.999 1165.05,653.999Z" style="fill:rgb(35,39,138);fill-rule:nonzero;"/>
        </g>
        <g transform="matrix(4.20939,0,0,4.15015,-4595.41,-2709.17)">
            <path d="M1192.31,679.141C1211.56,679.233 1230.23,688.017 1242.52,702.821C1252.18,714.46 1257.58,729.539 1257.6,744.622L1232.6,744.66C1232.58,734.134 1228.29,723.549 1220.74,716.003C1213.25,708.512 1202.78,704.141 1192.1,704.141C1178.7,704.141 1165.53,711.191 1158.11,722.616C1153.88,729.125 1151.61,736.87 1151.6,744.661L1126.6,744.621C1126.63,723.284 1137.63,702.312 1155.63,690.225C1166,683.27 1178.25,679.392 1190.84,679.153C1191.33,679.144 1191.82,679.141 1192.31,679.141Z" style="fill:rgb(0,216,255);fill-rule:nonzero;"/>
        </g>
    </g>
</svg>
