<?xml version="1.0" encoding="utf-8"?>
<!-- Generator: Adobe Illustrator 18.0.0, SVG Export Plug-In . SVG Version: 6.00 Build 0)  -->
<!DOCTYPE svg PUBLIC "-//W3C//DTD SVG 1.1//EN" "http://www.w3.org/Graphics/SVG/1.1/DTD/svg11.dtd">
<svg version="1.1" id="Layer_1" xmlns="http://www.w3.org/2000/svg" xmlns:xlink="http://www.w3.org/1999/xlink" x="0px" y="0px"
	 viewBox="0 0 940 460" enable-background="new 0 0 940 460" xml:space="preserve">
<g>
	
		<image overflow="visible" opacity="0.2" width="972" height="478" xlink:href="FA7A76CEF97D7B69.png"  transform="matrix(1 0 0 1 -16 -11)">
	</image>
	<g>
		<path fill="#414242" d="M934,440.5c0,2.5-2,4.5-4.5,4.5H9.5C7,445,5,443,5,440.5v-425C5,13,7,11,9.5,11h920c2.5,0,4.5,2,4.5,4.5
			V440.5z"/>
		<g>
			<path d="M929.8,12c2.2,0,4.2,1.4,4.2,3.6v424.6c0,2.2-2,3.8-4.2,3.8H10c-2.2,0-4-1.6-4-3.8V15.6c0-2.2,1.8-3.6,4-3.6h920
				 M929.8,11H10c-2.8,0-5,1.8-5,4.6v424.6c0,2.8,2.2,4.8,5,4.8h919.8c2.8,0,5.2-2,5.2-4.8V15.6C935,12.8,932.6,11,929.8,11
				L929.8,11z"/>
		</g>
	</g>
</g>
<defs>
	<filter id="Adobe_OpacityMaskFilter" filterUnits="userSpaceOnUse" x="5" y="3" width="930" height="65">
		<feFlood  style="flood-color:white;flood-opacity:1" result="back"/>
		<feBlend  in="SourceGraphic" in2="back" mode="normal"/>
	</filter>
</defs>
<mask maskUnits="userSpaceOnUse" x="5" y="3" width="930" height="65" id="SVGID_1_">
	<g filter="url(#Adobe_OpacityMaskFilter)">
		<rect x="1.1" y="55.8" width="938.7" height="67.1"/>
	</g>
</mask>
<g mask="url(#SVGID_1_)">
	<linearGradient id="SVGID_2_" gradientUnits="userSpaceOnUse" x1="470.5" y1="68" x2="470.5" y2="4">
		<stop  offset="0" style="stop-color:#3D3D3D"/>
		<stop  offset="0.2264" style="stop-color:#282828"/>
		<stop  offset="1" style="stop-color:#484848"/>
	</linearGradient>
	<path fill="url(#SVGID_2_)" d="M935,63.5c0,2.5-2,4.5-4.5,4.5h-920C8,68,6,66,6,63.5v-55C6,6,8,4,10.5,4h920c2.5,0,4.5,2,4.5,4.5
		V63.5z"/>
	<path d="M929.8,4c2.2,0,4.2,1.8,4.2,4v55.2c0,2.2-2,3.8-4.2,3.8H10.2C8,67,6,65.4,6,63.2V8c0-2.2,2-4,4.2-4H930 M929.8,3H10.2
		C7.4,3,5,5.2,5,8v55.2C5,66,7.4,68,10.2,68h919.7c2.8,0,5.2-2,5.2-4.8V8C935,5.2,932.6,3,929.8,3L929.8,3z"/>
</g>
<defs>
	<filter id="Adobe_OpacityMaskFilter_1_" filterUnits="userSpaceOnUse" x="6" y="5" width="928" height="64">
		<feFlood  style="flood-color:white;flood-opacity:1" result="back"/>
		<feBlend  in="SourceGraphic" in2="back" mode="normal"/>
	</filter>
</defs>
<mask maskUnits="userSpaceOnUse" x="6" y="5" width="928" height="64" id="SVGID_3_">
	<g filter="url(#Adobe_OpacityMaskFilter_1_)">
		<rect x="5" y="57.1" width="934.8" height="15.2"/>
	</g>
</mask>
<g mask="url(#SVGID_3_)">
	<g opacity="0.4">
		<path fill="#828282" d="M934,64c0,2.2-1.8,4-4,4H10c-2.2,0-4-1.8-4-4V9c0-2.2,1.8-4,4-4h920c2.2,0,4,1.8,4,4V64z"/>
	</g>
	<g>
		<linearGradient id="SVGID_4_" gradientUnits="userSpaceOnUse" x1="470" y1="69" x2="470" y2="6">
			<stop  offset="0" style="stop-color:#3D3D3D"/>
			<stop  offset="0.2264" style="stop-color:#282828"/>
			<stop  offset="0.581" style="stop-color:#2C2C2C"/>
			<stop  offset="0.6024" style="stop-color:#303030"/>
			<stop  offset="1" style="stop-color:#484848"/>
		</linearGradient>
		<path fill="url(#SVGID_4_)" d="M934,65c0,2.2-1.8,4-4,4H10c-2.2,0-4-1.8-4-4V10c0-2.2,1.8-4,4-4h920c2.2,0,4,1.8,4,4V65z"/>
	</g>
</g>
<g>
	<g opacity="0.32">
		<circle fill="#FFFFFF" cx="36.4" cy="31.6" r="11.4"/>
		<circle opacity="0.7" fill="none" stroke="#FFFFFF" stroke-width="0.6" stroke-miterlimit="10" cx="36.4" cy="31.6" r="11.4"/>
	</g>
	<g>
		<circle fill="#FF5C5B" cx="36.4" cy="30.6" r="11.4"/>
		<circle opacity="0.7" fill="none" stroke="#E94042" stroke-width="0.6" stroke-miterlimit="10" cx="36.4" cy="30.6" r="11.4"/>
	</g>
</g>
<g>
	<defs>
		<filter id="Adobe_OpacityMaskFilter_2_" filterUnits="userSpaceOnUse" x="32.6" y="26.8" width="7.6" height="3.8">
			<feFlood  style="flood-color:white;flood-opacity:1" result="back"/>
			<feBlend  in="SourceGraphic" in2="back" mode="normal"/>
		</filter>
	</defs>
	<mask maskUnits="userSpaceOnUse" x="32.6" y="26.8" width="7.6" height="3.8" id="SVGID_5_">
		<g filter="url(#Adobe_OpacityMaskFilter_2_)">
			<g>
				<path d="M55.3,44.2c0,10.9-8.6,19.7-19.2,19.7c-10.6,0-19.2-8.8-19.2-19.7c0-10.9,8.6-19.7,19.2-19.7
					C46.7,24.5,55.3,33.3,55.3,44.2z"/>
			</g>
		</g>
	</mask>
	<g opacity="0.9" mask="url(#SVGID_5_)">
		<path fill="#FFFFFF" d="M40.2,26.8c0,2.1-1.7,3.8-3.8,3.8c-2.1,0-3.8-1.7-3.8-3.8"/>
	</g>
</g>
<g>
	<g opacity="0.32">
		<circle fill="#FFFFFF" cx="76.2" cy="31.6" r="11.4"/>
		<circle opacity="0.7" fill="none" stroke="#FFFFFF" stroke-width="0.6" stroke-miterlimit="10" cx="76.2" cy="31.6" r="11.4"/>
	</g>
	<g>
		<circle fill="#FFC250" cx="76.2" cy="30.6" r="11.4"/>
		<circle opacity="0.7" fill="none" stroke="#E49D40" stroke-width="0.6" stroke-miterlimit="10" cx="76.2" cy="30.6" r="11.4"/>
	</g>
</g>
<g>
	<defs>
		<filter id="Adobe_OpacityMaskFilter_3_" filterUnits="userSpaceOnUse" x="80" y="26.8" width="0" height="0">
			<feFlood  style="flood-color:white;flood-opacity:1" result="back"/>
			<feBlend  in="SourceGraphic" in2="back" mode="normal"/>
		</filter>
	</defs>
	<mask maskUnits="userSpaceOnUse" x="80" y="26.8" width="0" height="0" id="SVGID_6_">
		<g filter="url(#Adobe_OpacityMaskFilter_3_)">
			<g>
				<path d="M95.2,44.2c0,10.9-8.6,19.7-19.2,19.7c-10.6,0-19.2-8.8-19.2-19.7c0-10.9,8.6-19.7,19.2-19.7
					C86.6,24.5,95.2,33.3,95.2,44.2z"/>
			</g>
		</g>
	</mask>
	<g opacity="0.9" mask="url(#SVGID_6_)">
		<path fill="#FFFFFF" d="M80,26.8"/>
	</g>
	<defs>
		<filter id="Adobe_OpacityMaskFilter_4_" filterUnits="userSpaceOnUse" x="76.2" y="30.6" width="0" height="0">
			<feFlood  style="flood-color:white;flood-opacity:1" result="back"/>
			<feBlend  in="SourceGraphic" in2="back" mode="normal"/>
		</filter>
	</defs>
	<mask maskUnits="userSpaceOnUse" x="76.2" y="30.6" width="0" height="0" id="SVGID_7_">
		<g filter="url(#Adobe_OpacityMaskFilter_4_)">
			<g>
				<path d="M95.2,44.2c0,10.9-8.6,19.7-19.2,19.7c-10.6,0-19.2-8.8-19.2-19.7c0-10.9,8.6-19.7,19.2-19.7
					C86.6,24.5,95.2,33.3,95.2,44.2z"/>
			</g>
		</g>
	</mask>
	<g opacity="0.9" mask="url(#SVGID_7_)">
		<path fill="#FFFFFF" d="M76.2,30.6"/>
	</g>
</g>
<g>
	<g opacity="0.32">
		<circle fill="#FFFFFF" cx="116.1" cy="31.6" r="11.4"/>
		<circle opacity="0.7" fill="none" stroke="#FFFFFF" stroke-width="0.6" stroke-miterlimit="10" cx="116.1" cy="31.6" r="11.4"/>
	</g>
	<g>
		<circle fill="#00CA59" cx="116.1" cy="30.6" r="11.4"/>
		<circle opacity="0.7" fill="none" stroke="#00AB44" stroke-width="0.6" stroke-miterlimit="10" cx="116.1" cy="30.6" r="11.4"/>
	</g>
</g>
<g>
	<defs>
		<filter id="Adobe_OpacityMaskFilter_5_" filterUnits="userSpaceOnUse" x="112.3" y="26.8" width="0" height="0">
			<feFlood  style="flood-color:white;flood-opacity:1" result="back"/>
			<feBlend  in="SourceGraphic" in2="back" mode="normal"/>
		</filter>
	</defs>
	<mask maskUnits="userSpaceOnUse" x="112.3" y="26.8" width="0" height="0" id="SVGID_8_">
		<g filter="url(#Adobe_OpacityMaskFilter_5_)">
			<g>
				<path d="M135,44.2c0,10.9-8.6,19.7-19.2,19.7c-10.6,0-19.2-8.8-19.2-19.7c0-10.9,8.6-19.7,19.2-19.7
					C126.4,24.5,135,33.3,135,44.2z"/>
			</g>
		</g>
	</mask>
	<g opacity="0.9" mask="url(#SVGID_8_)">
		<path fill="#FFFFFF" d="M112.3,26.8"/>
	</g>
	<defs>
		<filter id="Adobe_OpacityMaskFilter_6_" filterUnits="userSpaceOnUse" x="119.8" y="26.8" width="0" height="0">
			<feFlood  style="flood-color:white;flood-opacity:1" result="back"/>
			<feBlend  in="SourceGraphic" in2="back" mode="normal"/>
		</filter>
	</defs>
	<mask maskUnits="userSpaceOnUse" x="119.8" y="26.8" width="0" height="0" id="SVGID_9_">
		<g filter="url(#Adobe_OpacityMaskFilter_6_)">
			<g>
				<path d="M135,44.2c0,10.9-8.6,19.7-19.2,19.7c-10.6,0-19.2-8.8-19.2-19.7c0-10.9,8.6-19.7,19.2-19.7
					C126.4,24.5,135,33.3,135,44.2z"/>
			</g>
		</g>
	</mask>
	<g opacity="0.9" mask="url(#SVGID_9_)">
		<path fill="#FFFFFF" d="M119.8,26.8"/>
	</g>
</g>
<g>
	<path fill="#60D9EF" d="M66.8,120.8h2l1.7,10.6l5.6-10.6h2.2l-6.8,12.5h-2.6L66.8,120.8z"/>
	<path fill="#60D9EF" d="M90.3,126.1l-1.4,7.1h-2l0.4-1.8c-0.5,0.7-1.2,1.2-1.9,1.6s-1.5,0.6-2.3,0.6c-1.1,0-2-0.3-2.7-0.9
		c-0.7-0.6-1-1.4-1-2.5c0-1.5,0.6-2.6,1.7-3.5c1.1-0.9,2.7-1.3,4.7-1.3h2.7l0.1-0.7c0-0.1,0-0.1,0-0.2c0-0.1,0-0.2,0-0.3
		c0-0.6-0.2-1.1-0.7-1.5c-0.5-0.3-1.1-0.5-2-0.5c-0.6,0-1.3,0.1-2.1,0.3s-1.5,0.5-2.3,0.9l0.4-2c0.8-0.3,1.6-0.5,2.3-0.7
		c0.7-0.1,1.4-0.2,2.1-0.2c1.4,0,2.5,0.3,3.2,0.9c0.8,0.6,1.2,1.4,1.2,2.5c0,0.2,0,0.5-0.1,0.9C90.5,125.3,90.4,125.7,90.3,126.1z
		 M86.2,127c-0.9,0-1.5,0-2,0.1s-0.8,0.2-1.1,0.3c-0.5,0.2-0.9,0.5-1.2,1c-0.3,0.5-0.5,1-0.5,1.5c0,0.6,0.2,1.1,0.6,1.5
		c0.4,0.4,0.9,0.6,1.6,0.6c1.1,0,2-0.4,2.8-1.2c0.8-0.8,1.3-1.9,1.6-3.2l0.1-0.5H86.2z"/>
	<path fill="#60D9EF" d="M105.4,123.4c-0.3-0.3-0.7-0.6-1.2-0.7c-0.4-0.2-0.9-0.2-1.5-0.2c-1.2,0-2.3,0.4-3.1,1.3
		c-0.9,0.8-1.4,2-1.7,3.5l-1.2,6.1h-2l2.4-12.5h2l-0.4,2.4c0.5-0.9,1.1-1.6,1.9-2c0.8-0.5,1.7-0.7,2.7-0.7c0.5,0,1,0.1,1.4,0.2
		c0.4,0.1,0.8,0.3,1.1,0.6L105.4,123.4z"/>
	<path fill="#FFFFFF" d="M130.5,121.2v2c-0.6-0.3-1.2-0.6-1.8-0.8c-0.6-0.2-1.2-0.3-1.8-0.3c-0.9,0-1.6,0.2-2.1,0.5
		c-0.5,0.3-0.7,0.8-0.7,1.4c0,0.6,0.2,1,0.5,1.2c0.3,0.3,1.2,0.5,2.5,0.8l0.8,0.2c1,0.2,1.8,0.6,2.3,1.2s0.8,1.3,0.8,2.3
		c0,1.2-0.4,2.2-1.3,2.9c-0.9,0.7-2.1,1-3.6,1c-0.6,0-1.3-0.1-1.9-0.2c-0.7-0.1-1.4-0.3-2.2-0.6v-2.1c0.8,0.4,1.5,0.7,2.2,0.9
		s1.4,0.3,2,0.3c0.9,0,1.6-0.2,2.1-0.6c0.5-0.4,0.7-0.9,0.7-1.5c0-0.9-0.9-1.6-2.7-2l-0.1,0l-0.8-0.2c-1.2-0.2-2-0.6-2.6-1.2
		c-0.5-0.5-0.8-1.3-0.8-2.2c0-1.2,0.4-2.1,1.2-2.8c0.8-0.6,2-1,3.5-1c0.7,0,1.3,0.1,1.9,0.2C129.3,120.8,129.9,121,130.5,121.2z"/>
	<path fill="#FFFFFF" d="M136,116h2.1v10l5.4-5.2h2.5l-4.9,4.7l5.7,7.8h-2.5l-4.6-6.4l-1.5,1.4v5H136V116z"/>
	<path fill="#FFFFFF" d="M150.6,120.8h5.2v10.8h4.1v1.6h-10.2v-1.6h4.1v-9.2h-3.2V120.8z M153.8,116h2v2.6h-2V116z"/>
	<path fill="#FFFFFF" d="M172.5,125.5v7.7h-2.1v-7.7c0-1.1-0.2-1.9-0.6-2.5c-0.4-0.5-1-0.8-1.8-0.8c-1,0-1.7,0.3-2.2,1
		c-0.5,0.7-0.8,1.7-0.8,2.9v7h-2v-12.5h2v1.9c0.4-0.7,0.9-1.3,1.5-1.6c0.6-0.4,1.4-0.6,2.2-0.6c1.3,0,2.2,0.4,2.8,1.3
		C172.2,122.6,172.5,123.8,172.5,125.5z"/>
	<path fill="#FFFFFF" d="M186.2,125.5v7.7h-2.1v-7.7c0-1.1-0.2-1.9-0.6-2.5c-0.4-0.5-1-0.8-1.8-0.8c-1,0-1.7,0.3-2.2,1
		c-0.5,0.7-0.8,1.7-0.8,2.9v7h-2v-12.5h2v1.9c0.4-0.7,0.9-1.3,1.5-1.6c0.6-0.4,1.4-0.6,2.2-0.6c1.3,0,2.2,0.4,2.8,1.3
		C185.9,122.6,186.2,123.8,186.2,125.5z"/>
	<path fill="#FFFFFF" d="M197.7,129.3c-0.3,0.9-0.8,2-1.3,3.4c-0.7,2-1.2,3.2-1.5,3.6c-0.3,0.6-0.8,1-1.3,1.3
		c-0.5,0.3-1.1,0.4-1.8,0.4h-1.6v-1.7h1.2c0.6,0,1.1-0.2,1.4-0.5s0.8-1.2,1.3-2.7l-4.8-12.3h2.2l3.7,9.7l3.6-9.7h2.2L197.7,129.3z"
		/>
	<path fill="#FFFFFF" d="M214.2,131.9c-0.6,0.6-1.3,1-2,1.3c-0.8,0.3-1.6,0.4-2.4,0.4c-2.1,0-3.7-0.8-4.9-2.3s-1.8-3.6-1.8-6.3
		c0-2.7,0.6-4.8,1.8-6.3s2.8-2.3,4.9-2.3c0.7,0,1.4,0.1,2,0.3c0.6,0.2,1.3,0.5,1.8,0.9v2.3c-0.6-0.6-1.2-1-1.8-1.3
		c-0.6-0.3-1.3-0.4-2-0.4c-1.5,0-2.6,0.6-3.3,1.7c-0.7,1.1-1.1,2.8-1.1,5.1c0,2.3,0.4,4,1.1,5.1c0.7,1.1,1.8,1.7,3.3,1.7
		c0.5,0,0.9-0.1,1.3-0.2c0.4-0.1,0.7-0.3,1-0.5v-4.5h-2.4v-1.8h4.6V131.9z"/>
	<path fill="#FFFFFF" d="M217.8,128.5v-7.7h2v7.7c0,1.1,0.2,1.9,0.6,2.5s1,0.8,1.8,0.8c1,0,1.7-0.3,2.2-1c0.5-0.7,0.8-1.7,0.8-2.9
		v-7h2.1v12.4h-2.1v-1.9c-0.4,0.7-0.9,1.3-1.5,1.6c-0.6,0.4-1.4,0.6-2.2,0.6c-1.3,0-2.2-0.4-2.8-1.3
		C218.1,131.5,217.8,130.2,217.8,128.5z"/>
	<path fill="#FFFFFF" d="M238.9,129.3c-0.3,0.9-0.8,2-1.3,3.4c-0.7,2-1.2,3.2-1.5,3.6c-0.3,0.6-0.8,1-1.3,1.3
		c-0.5,0.3-1.1,0.4-1.8,0.4h-1.6v-1.7h1.2c0.6,0,1.1-0.2,1.4-0.5s0.8-1.2,1.3-2.7l-4.8-12.3h2.2l3.7,9.7l3.6-9.7h2.2L238.9,129.3z"
		/>
	<path fill="#FFFFFF" d="M247.9,129.2h3.5v2.9l-2.2,4.2h-2.4l1.1-4.2V129.2z M247.8,120.8h3.5v4h-3.5V120.8z"/>
	<path fill="#60D9EF" d="M66.8,148.1h2l1.7,10.6l5.6-10.6h2.2l-6.8,12.5h-2.6L66.8,148.1z"/>
	<path fill="#60D9EF" d="M90.3,153.5l-1.4,7.1h-2l0.4-1.8c-0.5,0.7-1.2,1.2-1.9,1.6s-1.5,0.6-2.3,0.6c-1.1,0-2-0.3-2.7-0.9
		c-0.7-0.6-1-1.4-1-2.5c0-1.5,0.6-2.6,1.7-3.5c1.1-0.9,2.7-1.3,4.7-1.3h2.7l0.1-0.7c0-0.1,0-0.1,0-0.2c0-0.1,0-0.2,0-0.3
		c0-0.6-0.2-1.1-0.7-1.5c-0.5-0.3-1.1-0.5-2-0.5c-0.6,0-1.3,0.1-2.1,0.3c-0.7,0.2-1.5,0.5-2.3,0.9l0.4-2c0.8-0.3,1.6-0.5,2.3-0.7
		c0.7-0.1,1.4-0.2,2.1-0.2c1.4,0,2.5,0.3,3.2,0.9s1.2,1.4,1.2,2.5c0,0.2,0,0.5-0.1,0.9C90.5,152.6,90.4,153,90.3,153.5z M86.2,154.3
		c-0.9,0-1.5,0-2,0.1s-0.8,0.2-1.1,0.3c-0.5,0.2-0.9,0.5-1.2,1c-0.3,0.5-0.5,1-0.5,1.5c0,0.6,0.2,1.1,0.6,1.5
		c0.4,0.4,0.9,0.6,1.6,0.6c1.1,0,2-0.4,2.8-1.2c0.8-0.8,1.3-1.9,1.6-3.2l0.1-0.5H86.2z"/>
	<path fill="#60D9EF" d="M105.4,150.7c-0.3-0.3-0.7-0.6-1.2-0.7c-0.4-0.2-0.9-0.2-1.5-0.2c-1.2,0-2.3,0.4-3.1,1.3
		c-0.9,0.8-1.4,2-1.7,3.5l-1.2,6.1h-2l2.4-12.5h2l-0.4,2.4c0.5-0.9,1.1-1.6,1.9-2c0.8-0.5,1.7-0.7,2.7-0.7c0.5,0,1,0.1,1.4,0.2
		c0.4,0.1,0.8,0.3,1.1,0.6L105.4,150.7z"/>
	<path fill="#FFFFFF" d="M119.7,148.1h2l2.2,10.1l1.8-6.4h1.7l1.8,6.4l2.2-10.1h2l-2.9,12.5h-2l-2-6.8l-2,6.8h-2L119.7,148.1z"/>
	<path fill="#FFFFFF" d="M145.8,153.3v1H137v0.1c-0.1,1.7,0.3,2.9,1,3.7c0.7,0.7,1.7,1.1,3,1.1c0.7,0,1.3-0.1,2-0.3s1.5-0.5,2.3-0.9
		v2c-0.8,0.3-1.5,0.6-2.3,0.7c-0.7,0.2-1.4,0.2-2.1,0.2c-1.9,0-3.4-0.6-4.5-1.7c-1.1-1.2-1.6-2.8-1.6-4.8c0-2,0.5-3.6,1.6-4.8
		c1.1-1.2,2.5-1.8,4.3-1.8c1.6,0,2.8,0.5,3.8,1.6C145.3,150.5,145.8,151.8,145.8,153.3z M143.8,152.7c-0.1-0.9-0.4-1.6-0.9-2.2
		c-0.5-0.6-1.3-0.9-2.3-0.9c-1,0-1.8,0.3-2.4,1c-0.6,0.7-1,1.4-1,2.2L143.8,152.7z"/>
	<path fill="#FFFFFF" d="M151.3,149.7c0.3-0.6,0.8-1.1,1.4-1.4s1.2-0.5,2-0.5c1.5,0,2.7,0.6,3.5,1.7c0.9,1.2,1.3,2.7,1.3,4.8
		c0,2.1-0.4,3.7-1.3,4.8c-0.9,1.2-2,1.8-3.6,1.8c-0.7,0-1.4-0.2-2-0.5c-0.6-0.3-1-0.8-1.4-1.4v1.6h-2v-17.3h2V149.7z M157.3,154.4
		c0-1.6-0.3-2.8-0.8-3.6c-0.5-0.8-1.2-1.2-2.2-1.2c-1,0-1.7,0.4-2.3,1.2c-0.5,0.8-0.8,2-0.8,3.6c0,1.6,0.3,2.8,0.8,3.6
		c0.5,0.8,1.3,1.2,2.3,1.2c1,0,1.7-0.4,2.2-1.2C157,157.1,157.3,155.9,157.3,154.4z"/>
	<path fill="#FFFFFF" d="M165.7,156.6h3.5v2.9l-2.2,4.2h-2.4l1.1-4.2V156.6z M165.5,148.1h3.5v4h-3.5V148.1z"/>
	<path fill="#60D9EF" d="M66.8,175.4h2l1.7,10.6l5.6-10.6h2.2l-6.8,12.5h-2.6L66.8,175.4z"/>
	<path fill="#60D9EF" d="M90.3,180.8l-1.4,7.1h-2l0.4-1.8c-0.5,0.7-1.2,1.2-1.9,1.6c-0.7,0.4-1.5,0.6-2.3,0.6c-1.1,0-2-0.3-2.7-0.9
		c-0.7-0.6-1-1.4-1-2.5c0-1.5,0.6-2.6,1.7-3.5c1.1-0.9,2.7-1.3,4.7-1.3h2.7l0.1-0.7c0-0.1,0-0.1,0-0.2c0-0.1,0-0.2,0-0.3
		c0-0.6-0.2-1.1-0.7-1.5c-0.5-0.3-1.1-0.5-2-0.5c-0.6,0-1.3,0.1-2.1,0.3c-0.7,0.2-1.5,0.5-2.3,0.9l0.4-2c0.8-0.3,1.6-0.5,2.3-0.7
		c0.7-0.1,1.4-0.2,2.1-0.2c1.4,0,2.5,0.3,3.2,0.9s1.2,1.4,1.2,2.5c0,0.2,0,0.5-0.1,0.9S90.4,180.3,90.3,180.8z M86.2,181.6
		c-0.9,0-1.5,0-2,0.1s-0.8,0.2-1.1,0.3c-0.5,0.2-0.9,0.5-1.2,1s-0.5,1-0.5,1.5c0,0.6,0.2,1.1,0.6,1.5c0.4,0.4,0.9,0.6,1.6,0.6
		c1.1,0,2-0.4,2.8-1.2c0.8-0.8,1.3-1.9,1.6-3.2l0.1-0.5H86.2z"/>
	<path fill="#60D9EF" d="M105.4,178c-0.3-0.3-0.7-0.6-1.2-0.7c-0.4-0.2-0.9-0.2-1.5-0.2c-1.2,0-2.3,0.4-3.1,1.3s-1.4,2-1.7,3.5
		l-1.2,6.1h-2l2.4-12.5h2l-0.4,2.4c0.5-0.9,1.1-1.6,1.9-2c0.8-0.5,1.7-0.7,2.7-0.7c0.5,0,1,0.1,1.4,0.2c0.4,0.1,0.8,0.3,1.1,0.6
		L105.4,178z"/>
	<path fill="#FFFFFF" d="M123.8,186.3v6.3h-2.1v-17.2h2.1v1.6c0.3-0.6,0.8-1.1,1.4-1.4s1.2-0.5,2-0.5c1.5,0,2.7,0.6,3.5,1.7
		c0.9,1.2,1.3,2.8,1.3,4.8c0,2-0.4,3.6-1.3,4.8c-0.9,1.2-2,1.7-3.5,1.7c-0.8,0-1.4-0.2-2-0.5S124.1,186.9,123.8,186.3z M129.8,181.7
		c0-1.6-0.3-2.8-0.8-3.6s-1.2-1.2-2.2-1.2c-1,0-1.7,0.4-2.3,1.2s-0.8,2-0.8,3.6c0,1.6,0.3,2.8,0.8,3.6s1.3,1.2,2.3,1.2
		c1,0,1.7-0.4,2.2-1.2S129.8,183.3,129.8,181.7z"/>
	<path fill="#FFFFFF" d="M146.2,178c-0.4-0.3-0.9-0.6-1.3-0.7c-0.5-0.2-0.9-0.2-1.5-0.2c-1.3,0-2.2,0.4-2.9,1.2c-0.7,0.8-1,2-1,3.5
		v6.2h-2.1v-12.5h2.1v2.4c0.3-0.9,0.9-1.6,1.6-2c0.7-0.5,1.5-0.7,2.5-0.7c0.5,0,1,0.1,1.4,0.2c0.4,0.1,0.9,0.3,1.3,0.6V178z"/>
	<path fill="#FFFFFF" d="M153.9,175.1c1.7,0,3,0.6,4,1.7c0.9,1.1,1.4,2.7,1.4,4.9c0,2.1-0.5,3.7-1.4,4.9c-0.9,1.1-2.2,1.7-4,1.7
		c-1.7,0-3-0.6-4-1.7c-0.9-1.1-1.4-2.7-1.4-4.9c0-2.1,0.5-3.7,1.4-4.9C150.9,175.7,152.2,175.1,153.9,175.1z M153.9,176.9
		c-1,0-1.8,0.4-2.4,1.2c-0.5,0.8-0.8,2-0.8,3.6c0,1.6,0.3,2.8,0.8,3.6c0.5,0.8,1.3,1.2,2.4,1.2c1,0,1.8-0.4,2.4-1.2s0.8-2,0.8-3.6
		c0-1.6-0.3-2.8-0.8-3.6S155,176.9,153.9,176.9z"/>
	<path fill="#FFFFFF" d="M165,177c0.3-0.6,0.8-1.1,1.4-1.4c0.6-0.3,1.2-0.5,2-0.5c1.5,0,2.7,0.6,3.5,1.7c0.9,1.2,1.3,2.7,1.3,4.8
		c0,2.1-0.4,3.7-1.3,4.8c-0.9,1.2-2,1.8-3.6,1.8c-0.7,0-1.4-0.2-2-0.5c-0.6-0.3-1-0.8-1.4-1.4v1.6h-2v-17.3h2V177z M171,181.7
		c0-1.6-0.3-2.8-0.8-3.6c-0.5-0.8-1.2-1.2-2.2-1.2c-1,0-1.7,0.4-2.3,1.2s-0.8,2-0.8,3.6c0,1.6,0.3,2.8,0.8,3.6s1.3,1.2,2.3,1.2
		c1,0,1.7-0.4,2.2-1.2C170.7,184.5,171,183.3,171,181.7z"/>
	<path fill="#FFFFFF" d="M182.5,183.4c0,0.9,0.2,1.6,0.5,2.1c0.3,0.5,0.8,0.7,1.5,0.7h2.4v1.7h-2.6c-1.2,0-2.2-0.4-2.8-1.2
		c-0.7-0.8-1-1.9-1-3.3v-11.3h-3.3v-1.6h5.3V183.4z"/>
	<path fill="#FFFFFF" d="M200.6,180.7v1h-8.9v0.1c-0.1,1.7,0.3,2.9,1,3.7c0.7,0.7,1.7,1.1,3,1.1c0.7,0,1.3-0.1,2-0.3
		c0.7-0.2,1.5-0.5,2.3-0.9v2c-0.8,0.3-1.5,0.6-2.3,0.7c-0.7,0.2-1.4,0.2-2.1,0.2c-1.9,0-3.4-0.6-4.5-1.7c-1.1-1.2-1.6-2.8-1.6-4.8
		c0-2,0.5-3.6,1.6-4.8c1.1-1.2,2.5-1.8,4.3-1.8c1.6,0,2.8,0.5,3.8,1.6C200.1,177.8,200.6,179.1,200.6,180.7z M198.6,180.1
		c-0.1-0.9-0.4-1.6-0.9-2.2c-0.5-0.6-1.3-0.9-2.3-0.9c-1,0-1.8,0.3-2.4,1s-1,1.4-1,2.2L198.6,180.1z"/>
	<path fill="#FFFFFF" d="M209.4,176.7c0.3-0.5,0.6-0.9,1-1.2c0.4-0.3,0.9-0.4,1.4-0.4c1,0,1.7,0.4,2.1,1.2c0.4,0.8,0.6,2.2,0.6,4.4
		v7.2h-1.9v-7.1c0-1.8-0.1-2.8-0.3-3.3s-0.6-0.6-1.1-0.6c-0.6,0-1,0.2-1.2,0.7c-0.2,0.5-0.3,1.5-0.3,3.2v7.1h-1.9v-7.1
		c0-1.8-0.1-2.9-0.3-3.3c-0.2-0.4-0.6-0.6-1.1-0.6c-0.5,0-0.9,0.2-1.1,0.7c-0.2,0.5-0.3,1.5-0.3,3.2v7.1h-1.9v-12.5h1.9v1.1
		c0.2-0.4,0.6-0.8,0.9-1c0.4-0.2,0.8-0.4,1.3-0.4c0.6,0,1,0.1,1.4,0.4S209.2,176.2,209.4,176.7z"/>
	<path fill="#FFFFFF" d="M226.9,171.9v2.3c-0.7-0.4-1.4-0.8-2.1-1c-0.7-0.2-1.4-0.3-2.1-0.3c-1.1,0-1.9,0.2-2.5,0.7s-0.9,1.2-0.9,2
		c0,0.7,0.2,1.3,0.6,1.7c0.4,0.4,1.2,0.7,2.3,1l1.2,0.3c1.6,0.4,2.7,0.9,3.4,1.7c0.7,0.8,1.1,1.8,1.1,3.2c0,1.6-0.5,2.8-1.5,3.6
		c-1,0.8-2.4,1.2-4.3,1.2c-0.8,0-1.6-0.1-2.3-0.3c-0.8-0.2-1.6-0.4-2.4-0.8v-2.4c0.9,0.5,1.7,0.9,2.4,1.2c0.8,0.3,1.5,0.4,2.3,0.4
		c1.1,0,2-0.3,2.6-0.8c0.6-0.5,0.9-1.2,0.9-2.1c0-0.8-0.2-1.5-0.7-1.9s-1.2-0.8-2.3-1l-1.2-0.3c-1.5-0.3-2.7-0.9-3.4-1.6
		s-1-1.6-1-2.8c0-1.5,0.5-2.7,1.5-3.6c1-0.9,2.3-1.3,4-1.3c0.6,0,1.3,0.1,2,0.2C225.3,171.4,226.1,171.6,226.9,171.9z"/>
	<path fill="#FFFFFF" d="M236.2,175.1c1.7,0,3,0.6,4,1.7c0.9,1.1,1.4,2.7,1.4,4.9c0,2.1-0.5,3.7-1.4,4.9c-0.9,1.1-2.2,1.7-4,1.7
		c-1.7,0-3-0.6-4-1.7c-0.9-1.1-1.4-2.7-1.4-4.9c0-2.1,0.5-3.7,1.4-4.9C233.1,175.7,234.4,175.1,236.2,175.1z M236.2,176.9
		c-1,0-1.8,0.4-2.4,1.2s-0.8,2-0.8,3.6c0,1.6,0.3,2.8,0.8,3.6s1.3,1.2,2.4,1.2c1,0,1.8-0.4,2.4-1.2c0.5-0.8,0.8-2,0.8-3.6
		c0-1.6-0.3-2.8-0.8-3.6C238,177.3,237.2,176.9,236.2,176.9z"/>
	<path fill="#FFFFFF" d="M251,183.4c0,0.9,0.2,1.6,0.5,2.1c0.3,0.5,0.8,0.7,1.5,0.7h2.4v1.7h-2.6c-1.2,0-2.2-0.4-2.8-1.2
		c-0.7-0.8-1-1.9-1-3.3v-11.3h-3.3v-1.6h5.3V183.4z"/>
	<path fill="#FFFFFF" d="M257.8,175.4h2.1l3.6,10.5l3.6-10.5h2.1l-4.4,12.5h-2.6L257.8,175.4z"/>
	<path fill="#FFFFFF" d="M282.9,180.7v1H274v0.1c-0.1,1.7,0.3,2.9,1,3.7c0.7,0.7,1.7,1.1,3,1.1c0.7,0,1.3-0.1,2-0.3
		c0.7-0.2,1.5-0.5,2.3-0.9v2c-0.8,0.3-1.5,0.6-2.3,0.7c-0.7,0.2-1.4,0.2-2.1,0.2c-1.9,0-3.4-0.6-4.5-1.7s-1.6-2.8-1.6-4.8
		c0-2,0.5-3.6,1.6-4.8s2.5-1.8,4.3-1.8c1.6,0,2.8,0.5,3.8,1.6S282.8,179.1,282.9,180.7z M280.9,180.1c-0.1-0.9-0.4-1.6-0.9-2.2
		c-0.5-0.6-1.3-0.9-2.3-0.9c-1,0-1.8,0.3-2.4,1s-1,1.4-1,2.2L280.9,180.1z"/>
	<path fill="#FFFFFF" d="M297,178c-0.4-0.3-0.9-0.6-1.3-0.7c-0.5-0.2-0.9-0.2-1.5-0.2c-1.3,0-2.2,0.4-2.9,1.2c-0.7,0.8-1,2-1,3.5
		v6.2h-2.1v-12.5h2.1v2.4c0.3-0.9,0.9-1.6,1.6-2c0.7-0.5,1.5-0.7,2.5-0.7c0.5,0,1,0.1,1.4,0.2c0.4,0.1,0.9,0.3,1.3,0.6V178z"/>
	<path fill="#FFFFFF" d="M302.8,183.9h3.5v2.9l-2.2,4.2h-2.4l1.1-4.2V183.9z M302.6,175.5h3.5v4h-3.5V175.5z"/>
	<path fill="#60D9EF" d="M66.8,202.8h2l1.7,10.6l5.6-10.6h2.2l-6.8,12.5h-2.6L66.8,202.8z"/>
	<path fill="#60D9EF" d="M90.3,208.1l-1.4,7.1h-2l0.4-1.8c-0.5,0.7-1.2,1.2-1.9,1.6s-1.5,0.6-2.3,0.6c-1.1,0-2-0.3-2.7-0.9
		c-0.7-0.6-1-1.4-1-2.5c0-1.5,0.6-2.6,1.7-3.5c1.1-0.9,2.7-1.3,4.7-1.3h2.7l0.1-0.7c0-0.1,0-0.1,0-0.2c0-0.1,0-0.2,0-0.3
		c0-0.6-0.2-1.1-0.7-1.5c-0.5-0.3-1.1-0.5-2-0.5c-0.6,0-1.3,0.1-2.1,0.3c-0.7,0.2-1.5,0.5-2.3,0.9l0.4-2c0.8-0.3,1.6-0.5,2.3-0.7
		c0.7-0.1,1.4-0.2,2.1-0.2c1.4,0,2.5,0.3,3.2,0.9c0.8,0.6,1.2,1.4,1.2,2.5c0,0.2,0,0.5-0.1,0.9C90.5,207.2,90.4,207.7,90.3,208.1z
		 M86.2,209c-0.9,0-1.5,0-2,0.1s-0.8,0.2-1.1,0.3c-0.5,0.2-0.9,0.5-1.2,1c-0.3,0.5-0.5,1-0.5,1.5c0,0.6,0.2,1.1,0.6,1.5
		c0.4,0.4,0.9,0.6,1.6,0.6c1.1,0,2-0.4,2.8-1.2c0.8-0.8,1.3-1.9,1.6-3.2l0.1-0.5H86.2z"/>
	<path fill="#60D9EF" d="M105.4,205.3c-0.3-0.3-0.7-0.6-1.2-0.7c-0.4-0.2-0.9-0.2-1.5-0.2c-1.2,0-2.3,0.4-3.1,1.3
		c-0.9,0.8-1.4,2-1.7,3.5l-1.2,6.1h-2l2.4-12.5h2l-0.4,2.4c0.5-0.9,1.1-1.6,1.9-2c0.8-0.5,1.7-0.7,2.7-0.7c0.5,0,1,0.1,1.4,0.2
		c0.4,0.1,0.8,0.3,1.1,0.6L105.4,205.3z"/>
	<path fill="#FFFFFF" d="M131.4,214.6c-0.5,0.3-1.1,0.6-1.7,0.7s-1.2,0.2-1.8,0.2c-1.9,0-3.4-0.6-4.5-1.7c-1.1-1.2-1.6-2.8-1.6-4.8
		s0.5-3.6,1.6-4.8c1.1-1.2,2.6-1.7,4.5-1.7c0.6,0,1.2,0.1,1.8,0.2c0.6,0.2,1.1,0.4,1.7,0.7v2.1c-0.5-0.5-1.1-0.8-1.6-1
		c-0.5-0.2-1.2-0.3-1.9-0.3c-1.3,0-2.3,0.4-3,1.2c-0.7,0.8-1,2-1,3.6c0,1.5,0.3,2.7,1,3.6c0.7,0.8,1.7,1.3,3,1.3
		c0.7,0,1.3-0.1,1.9-0.3c0.6-0.2,1.1-0.6,1.6-1V214.6z"/>
	<path fill="#FFFFFF" d="M146.2,205.3c-0.4-0.3-0.9-0.6-1.3-0.7c-0.5-0.2-0.9-0.2-1.5-0.2c-1.3,0-2.2,0.4-2.9,1.2
		c-0.7,0.8-1,2-1,3.5v6.2h-2.1v-12.5h2.1v2.4c0.3-0.9,0.9-1.6,1.6-2c0.7-0.5,1.5-0.7,2.5-0.7c0.5,0,1,0.1,1.4,0.2
		c0.4,0.1,0.9,0.3,1.3,0.6V205.3z"/>
	<path fill="#FFFFFF" d="M159.5,208v1h-8.9v0.1c-0.1,1.7,0.3,2.9,1,3.7c0.7,0.7,1.7,1.1,3,1.1c0.7,0,1.3-0.1,2-0.3
		c0.7-0.2,1.5-0.5,2.3-0.9v2c-0.8,0.3-1.5,0.6-2.3,0.7s-1.4,0.2-2.1,0.2c-1.9,0-3.4-0.6-4.5-1.7c-1.1-1.2-1.6-2.8-1.6-4.8
		c0-2,0.5-3.6,1.6-4.8s2.5-1.8,4.3-1.8c1.6,0,2.8,0.5,3.8,1.6C159,205.2,159.5,206.5,159.5,208z M157.5,207.4
		c-0.1-0.9-0.4-1.6-0.9-2.2c-0.5-0.6-1.3-0.9-2.3-0.9c-1,0-1.8,0.3-2.4,1c-0.6,0.7-1,1.4-1,2.2L157.5,207.4z"/>
	<path fill="#FFFFFF" d="M172.6,208.1v7.1h-2.1v-1.8c-0.4,0.7-1,1.3-1.7,1.6c-0.7,0.4-1.5,0.5-2.4,0.5c-1.3,0-2.3-0.4-3-1.1
		c-0.8-0.7-1.1-1.7-1.1-2.9c0-1.4,0.5-2.4,1.4-3.2c0.9-0.7,2.3-1.1,4.1-1.1h2.7V207c0-1-0.3-1.7-0.8-2.2c-0.5-0.4-1.3-0.7-2.4-0.7
		c-0.7,0-1.4,0.1-2.1,0.3c-0.7,0.2-1.4,0.5-2.1,0.9v-2c0.8-0.3,1.5-0.5,2.2-0.7s1.4-0.2,2-0.2c1,0,1.9,0.2,2.6,0.5
		c0.7,0.3,1.3,0.8,1.8,1.4c0.3,0.4,0.5,0.8,0.6,1.4C172.5,206.2,172.6,207,172.6,208.1z M168.6,209h-0.7c-1.2,0-2.1,0.2-2.7,0.6
		c-0.6,0.4-0.9,1-0.9,1.9c0,0.7,0.2,1.3,0.7,1.7c0.5,0.4,1.1,0.6,1.9,0.6c1.1,0,2-0.4,2.7-1.2s1-1.9,1-3.2V209H168.6z"/>
	<path fill="#FFFFFF" d="M181.3,199.2v3.5h4.6v1.6h-4.6v6.8c0,0.9,0.2,1.6,0.5,1.9c0.3,0.4,1,0.5,1.8,0.5h2.3v1.6h-2.5
		c-1.5,0-2.6-0.3-3.2-0.9c-0.6-0.6-0.9-1.7-0.9-3.2v-6.8h-3.3v-1.6h3.3v-3.5H181.3z"/>
	<path fill="#FFFFFF" d="M191.7,202.8h5.2v10.8h4.1v1.6h-10.2v-1.6h4.1v-9.2h-3.2V202.8z M194.9,198h2v2.6h-2V198z"/>
	<path fill="#FFFFFF" d="M203,202.8h2.1l3.6,10.5l3.6-10.5h2.1l-4.4,12.5h-2.6L203,202.8z"/>
	<path fill="#FFFFFF" d="M228.1,208v1h-8.9v0.1c-0.1,1.7,0.3,2.9,1,3.7c0.7,0.7,1.7,1.1,3,1.1c0.7,0,1.3-0.1,2-0.3
		c0.7-0.2,1.5-0.5,2.3-0.9v2c-0.8,0.3-1.5,0.6-2.3,0.7s-1.4,0.2-2.1,0.2c-1.9,0-3.4-0.6-4.5-1.7c-1.1-1.2-1.6-2.8-1.6-4.8
		c0-2,0.5-3.6,1.6-4.8s2.5-1.8,4.3-1.8c1.6,0,2.8,0.5,3.8,1.6C227.5,205.2,228,206.5,228.1,208z M226,207.4
		c-0.1-0.9-0.4-1.6-0.9-2.2c-0.5-0.6-1.3-0.9-2.3-0.9c-1,0-1.8,0.3-2.4,1c-0.6,0.7-1,1.4-1,2.2L226,207.4z"/>
	<path fill="#FFFFFF" d="M234.2,211.2h3.5v2.9l-2.2,4.2h-2.4l1.1-4.2V211.2z M234.1,202.8h3.5v4h-3.5V202.8z"/>
	<path fill="#F92772" d="M68.3,257.5h5.2v10.8h4.1v1.6H67.5v-1.6h4.1v-9.2h-3.2V257.5z M71.5,252.6h2v2.6h-2V252.6z"/>
	<path fill="#F92772" d="M90.3,252.6v1.7H88c-0.7,0-1.2,0.2-1.5,0.5c-0.3,0.3-0.4,0.8-0.4,1.6v1.1h4.3v1.6h-4.3v10.9h-2V259h-3.3
		v-1.6H84v-0.9c0-1.4,0.3-2.4,0.9-3c0.6-0.6,1.6-1,2.9-1H90.3z"/>
	<path fill="#FFFFFF" d="M115.5,251.5c-1,1.7-1.7,3.4-2.2,5.1c-0.5,1.7-0.7,3.4-0.7,5.1c0,1.7,0.2,3.4,0.7,5.1
		c0.5,1.7,1.2,3.4,2.2,5.1h-1.8c-1.1-1.8-2-3.5-2.5-5.2s-0.8-3.3-0.8-5c0-1.7,0.3-3.3,0.8-5c0.5-1.7,1.4-3.4,2.5-5.1H115.5z"/>
	<path fill="#FFFFFF" d="M130.5,257.9v2c-0.6-0.3-1.2-0.6-1.8-0.8c-0.6-0.2-1.2-0.3-1.8-0.3c-0.9,0-1.6,0.2-2.1,0.5
		c-0.5,0.3-0.7,0.8-0.7,1.4c0,0.6,0.2,1,0.5,1.2c0.3,0.3,1.2,0.5,2.5,0.8l0.8,0.2c1,0.2,1.8,0.6,2.3,1.2s0.8,1.3,0.8,2.3
		c0,1.2-0.4,2.2-1.3,2.9c-0.9,0.7-2.1,1-3.6,1c-0.6,0-1.3-0.1-1.9-0.2s-1.4-0.3-2.2-0.6v-2.1c0.8,0.4,1.5,0.7,2.2,0.9s1.4,0.3,2,0.3
		c0.9,0,1.6-0.2,2.1-0.6c0.5-0.4,0.7-0.9,0.7-1.5c0-0.9-0.9-1.6-2.7-2l-0.1,0l-0.8-0.2c-1.2-0.2-2-0.6-2.6-1.2
		c-0.5-0.5-0.8-1.3-0.8-2.2c0-1.2,0.4-2.1,1.2-2.8c0.8-0.6,2-1,3.5-1c0.7,0,1.3,0.1,1.9,0.2C129.3,257.4,129.9,257.6,130.5,257.9z"
		/>
	<path fill="#FFFFFF" d="M136,252.6h2.1v10l5.4-5.2h2.5l-4.9,4.7l5.7,7.8h-2.5l-4.6-6.4l-1.5,1.4v5H136V252.6z"/>
	<path fill="#FFFFFF" d="M150.6,257.5h5.2v10.8h4.1v1.6h-10.2v-1.6h4.1v-9.2h-3.2V257.5z M153.8,252.6h2v2.6h-2V252.6z"/>
	<path fill="#FFFFFF" d="M172.5,262.2v7.7h-2.1v-7.7c0-1.1-0.2-1.9-0.6-2.5c-0.4-0.5-1-0.8-1.8-0.8c-1,0-1.7,0.3-2.2,1
		c-0.5,0.7-0.8,1.7-0.8,2.9v7h-2v-12.5h2v1.9c0.4-0.7,0.9-1.3,1.5-1.6c0.6-0.4,1.4-0.6,2.2-0.6c1.3,0,2.2,0.4,2.8,1.3
		C172.2,259.2,172.5,260.5,172.5,262.2z"/>
	<path fill="#FFFFFF" d="M186.2,262.2v7.7h-2.1v-7.7c0-1.1-0.2-1.9-0.6-2.5c-0.4-0.5-1-0.8-1.8-0.8c-1,0-1.7,0.3-2.2,1
		s-0.8,1.7-0.8,2.9v7h-2v-12.5h2v1.9c0.4-0.7,0.9-1.3,1.5-1.6c0.6-0.4,1.4-0.6,2.2-0.6c1.3,0,2.2,0.4,2.8,1.3
		C185.9,259.2,186.2,260.5,186.2,262.2z"/>
	<path fill="#FFFFFF" d="M197.7,265.9c-0.3,0.9-0.8,2-1.3,3.4c-0.7,2-1.2,3.2-1.5,3.6c-0.3,0.6-0.8,1-1.3,1.3
		c-0.5,0.3-1.1,0.4-1.8,0.4h-1.6v-1.7h1.2c0.6,0,1.1-0.2,1.4-0.5s0.8-1.2,1.3-2.7l-4.8-12.3h2.2l3.7,9.7l3.6-9.7h2.2L197.7,265.9z"
		/>
	<path fill="#FFFFFF" d="M214.2,268.5c-0.6,0.6-1.3,1-2,1.3c-0.8,0.3-1.6,0.4-2.4,0.4c-2.1,0-3.7-0.8-4.9-2.3
		c-1.2-1.5-1.8-3.6-1.8-6.3c0-2.7,0.6-4.8,1.8-6.3s2.8-2.3,4.9-2.3c0.7,0,1.4,0.1,2,0.3s1.3,0.5,1.8,0.9v2.3c-0.6-0.6-1.2-1-1.8-1.3
		c-0.6-0.3-1.3-0.4-2-0.4c-1.5,0-2.6,0.6-3.3,1.7c-0.7,1.1-1.1,2.8-1.1,5.1c0,2.3,0.4,4,1.1,5.1c0.7,1.1,1.8,1.7,3.3,1.7
		c0.5,0,0.9-0.1,1.3-0.2c0.4-0.1,0.7-0.3,1-0.5v-4.5h-2.4v-1.8h4.6V268.5z"/>
	<path fill="#FFFFFF" d="M217.8,265.2v-7.7h2v7.7c0,1.1,0.2,1.9,0.6,2.5s1,0.8,1.8,0.8c1,0,1.7-0.3,2.2-1c0.5-0.7,0.8-1.7,0.8-2.9
		v-7h2.1v12.4h-2.1V268c-0.4,0.7-0.9,1.3-1.5,1.6c-0.6,0.4-1.4,0.6-2.2,0.6c-1.3,0-2.2-0.4-2.8-1.3
		C218.1,268.1,217.8,266.8,217.8,265.2z"/>
	<path fill="#FFFFFF" d="M238.9,265.9c-0.3,0.9-0.8,2-1.3,3.4c-0.7,2-1.2,3.2-1.5,3.6c-0.3,0.6-0.8,1-1.3,1.3s-1.1,0.4-1.8,0.4h-1.6
		v-1.7h1.2c0.6,0,1.1-0.2,1.4-0.5s0.8-1.2,1.3-2.7l-4.8-12.3h2.2l3.7,9.7l3.6-9.7h2.2L238.9,265.9z"/>
	<path fill="#F92772" d="M264.7,256.8v4.9h4.9v1.9h-4.9v4.9h-1.9v-4.9h-4.9v-1.9h4.9v-4.9H264.7z"/>
	<path fill="#FFFFFF" d="M284.2,257.4h2l2.2,10.1l1.8-6.4h1.7l1.8,6.4l2.2-10.1h2l-2.9,12.5h-2l-2-6.8l-2,6.8h-2L284.2,257.4z"/>
	<path fill="#FFFFFF" d="M310.3,262.6v1h-8.9v0.1c-0.1,1.7,0.3,2.9,1,3.7c0.7,0.7,1.7,1.1,3,1.1c0.7,0,1.3-0.1,2-0.3
		c0.7-0.2,1.5-0.5,2.3-0.9v2c-0.8,0.3-1.5,0.6-2.3,0.7s-1.4,0.2-2.1,0.2c-1.9,0-3.4-0.6-4.5-1.7c-1.1-1.2-1.6-2.8-1.6-4.8
		c0-2,0.5-3.6,1.6-4.8c1.1-1.2,2.5-1.8,4.3-1.8c1.6,0,2.8,0.5,3.8,1.6C309.8,259.8,310.3,261.1,310.3,262.6z M308.3,262
		c-0.1-0.9-0.4-1.6-0.9-2.2c-0.5-0.6-1.3-0.9-2.3-0.9c-1,0-1.8,0.3-2.4,1s-1,1.4-1,2.2L308.3,262z"/>
	<path fill="#FFFFFF" d="M315.8,259c0.3-0.6,0.8-1.1,1.4-1.4s1.2-0.5,2-0.5c1.5,0,2.7,0.6,3.5,1.7c0.9,1.2,1.3,2.7,1.3,4.8
		c0,2.1-0.4,3.7-1.3,4.8c-0.9,1.2-2,1.8-3.6,1.8c-0.7,0-1.4-0.2-2-0.5c-0.6-0.3-1-0.8-1.4-1.4v1.6h-2v-17.3h2V259z M321.8,263.7
		c0-1.6-0.3-2.8-0.8-3.6c-0.5-0.8-1.2-1.2-2.2-1.2c-1,0-1.7,0.4-2.3,1.2c-0.5,0.8-0.8,2-0.8,3.6c0,1.6,0.3,2.8,0.8,3.6
		s1.3,1.2,2.3,1.2c1,0,1.7-0.4,2.2-1.2C321.5,266.4,321.8,265.2,321.8,263.7z"/>
	<path fill="#F92772" d="M347,256.8v4.9h4.9v1.9H347v4.9h-1.9v-4.9h-4.9v-1.9h4.9v-4.9H347z"/>
	<path fill="#FFFFFF" d="M370.6,268.3v6.3h-2.1v-17.2h2.1v1.6c0.3-0.6,0.8-1.1,1.4-1.4s1.2-0.5,2-0.5c1.5,0,2.7,0.6,3.5,1.7
		s1.3,2.8,1.3,4.8c0,2-0.4,3.6-1.3,4.8c-0.9,1.2-2,1.7-3.5,1.7c-0.8,0-1.4-0.2-2-0.5C371.3,269.4,370.9,268.9,370.6,268.3z
		 M376.6,263.7c0-1.6-0.3-2.8-0.8-3.6s-1.2-1.2-2.2-1.2c-1,0-1.7,0.4-2.3,1.2c-0.5,0.8-0.8,2-0.8,3.6c0,1.6,0.3,2.8,0.8,3.6
		c0.5,0.8,1.3,1.2,2.3,1.2c1,0,1.7-0.4,2.2-1.2S376.6,265.2,376.6,263.7z"/>
	<path fill="#FFFFFF" d="M393,260c-0.4-0.3-0.9-0.6-1.3-0.7c-0.5-0.2-0.9-0.2-1.5-0.2c-1.3,0-2.2,0.4-2.9,1.2c-0.7,0.8-1,2-1,3.5
		v6.2h-2.1v-12.5h2.1v2.4c0.3-0.9,0.9-1.6,1.6-2c0.7-0.5,1.5-0.7,2.5-0.7c0.5,0,1,0.1,1.4,0.2c0.4,0.1,0.9,0.3,1.3,0.6V260z"/>
	<path fill="#FFFFFF" d="M400.7,257.1c1.7,0,3,0.6,4,1.7s1.4,2.7,1.4,4.9c0,2.1-0.5,3.7-1.4,4.9c-0.9,1.1-2.2,1.7-4,1.7
		c-1.7,0-3-0.6-4-1.7s-1.4-2.7-1.4-4.9c0-2.1,0.5-3.7,1.4-4.9S398.9,257.1,400.7,257.1z M400.7,258.9c-1,0-1.8,0.4-2.4,1.2
		c-0.5,0.8-0.8,2-0.8,3.6c0,1.6,0.3,2.8,0.8,3.6c0.5,0.8,1.3,1.2,2.4,1.2c1,0,1.8-0.4,2.4-1.2c0.5-0.8,0.8-2,0.8-3.6
		c0-1.6-0.3-2.8-0.8-3.6S401.7,258.9,400.7,258.9z"/>
	<path fill="#FFFFFF" d="M411.7,259c0.3-0.6,0.8-1.1,1.4-1.4c0.6-0.3,1.2-0.5,2-0.5c1.5,0,2.7,0.6,3.5,1.7c0.9,1.2,1.3,2.7,1.3,4.8
		c0,2.1-0.4,3.7-1.3,4.8s-2,1.8-3.6,1.8c-0.7,0-1.4-0.2-2-0.5s-1-0.8-1.4-1.4v1.6h-2v-17.3h2V259z M417.7,263.7
		c0-1.6-0.3-2.8-0.8-3.6s-1.2-1.2-2.2-1.2c-1,0-1.7,0.4-2.3,1.2c-0.5,0.8-0.8,2-0.8,3.6c0,1.6,0.3,2.8,0.8,3.6
		c0.5,0.8,1.3,1.2,2.3,1.2c1,0,1.7-0.4,2.2-1.2S417.7,265.2,417.7,263.7z"/>
	<path fill="#FFFFFF" d="M429.2,265.4c0,0.9,0.2,1.6,0.5,2.1c0.3,0.5,0.8,0.7,1.5,0.7h2.4v1.7H431c-1.2,0-2.2-0.4-2.8-1.2
		s-1-1.9-1-3.3v-11.3h-3.3v-1.6h5.3V265.4z"/>
	<path fill="#FFFFFF" d="M447.4,262.6v1h-8.9v0.1c-0.1,1.7,0.3,2.9,1,3.7c0.7,0.7,1.7,1.1,3,1.1c0.7,0,1.3-0.1,2-0.3
		c0.7-0.2,1.5-0.5,2.3-0.9v2c-0.8,0.3-1.5,0.6-2.3,0.7s-1.4,0.2-2.1,0.2c-1.9,0-3.4-0.6-4.5-1.7c-1.1-1.2-1.6-2.8-1.6-4.8
		c0-2,0.5-3.6,1.6-4.8c1.1-1.2,2.5-1.8,4.3-1.8c1.6,0,2.8,0.5,3.8,1.6C446.8,259.8,447.3,261.1,447.4,262.6z M445.4,262
		c-0.1-0.9-0.4-1.6-0.9-2.2c-0.5-0.6-1.3-0.9-2.3-0.9c-1,0-1.8,0.3-2.4,1s-1,1.4-1,2.2L445.4,262z"/>
	<path fill="#FFFFFF" d="M456.2,258.7c0.3-0.5,0.6-0.9,1-1.2c0.4-0.3,0.9-0.4,1.4-0.4c1,0,1.7,0.4,2.1,1.2c0.4,0.8,0.6,2.2,0.6,4.4
		v7.2h-1.9v-7.1c0-1.8-0.1-2.8-0.3-3.3c-0.2-0.4-0.6-0.6-1.1-0.6c-0.6,0-1,0.2-1.2,0.7s-0.3,1.5-0.3,3.2v7.1h-1.9v-7.1
		c0-1.8-0.1-2.9-0.3-3.3s-0.6-0.6-1.1-0.6c-0.5,0-0.9,0.2-1.1,0.7s-0.3,1.5-0.3,3.2v7.1h-1.9v-12.5h1.9v1.1c0.2-0.4,0.6-0.8,0.9-1
		c0.4-0.2,0.8-0.4,1.3-0.4c0.6,0,1,0.1,1.4,0.4C455.7,257.8,456,258.2,456.2,258.7z"/>
	<path fill="#FFFFFF" d="M473.6,253.8v2.3c-0.7-0.4-1.4-0.8-2.1-1c-0.7-0.2-1.4-0.3-2.1-0.3c-1.1,0-1.9,0.2-2.5,0.7
		c-0.6,0.5-0.9,1.2-0.9,2c0,0.7,0.2,1.3,0.6,1.7c0.4,0.4,1.2,0.7,2.3,1l1.2,0.3c1.6,0.4,2.7,0.9,3.4,1.7c0.7,0.8,1.1,1.8,1.1,3.2
		c0,1.6-0.5,2.8-1.5,3.6s-2.4,1.2-4.3,1.2c-0.8,0-1.6-0.1-2.3-0.3c-0.8-0.2-1.6-0.4-2.4-0.8v-2.4c0.9,0.5,1.7,0.9,2.4,1.2
		c0.8,0.3,1.5,0.4,2.3,0.4c1.1,0,2-0.3,2.6-0.8s0.9-1.2,0.9-2.1c0-0.8-0.2-1.5-0.7-1.9c-0.4-0.4-1.2-0.8-2.3-1l-1.2-0.3
		c-1.5-0.3-2.7-0.9-3.4-1.6s-1-1.6-1-2.8c0-1.5,0.5-2.7,1.5-3.6c1-0.9,2.3-1.3,4-1.3c0.6,0,1.3,0.1,2,0.2
		C472.1,253.3,472.8,253.5,473.6,253.8z"/>
	<path fill="#FFFFFF" d="M482.9,257.1c1.7,0,3,0.6,4,1.7s1.4,2.7,1.4,4.9c0,2.1-0.5,3.7-1.4,4.9s-2.2,1.7-4,1.7c-1.7,0-3-0.6-4-1.7
		s-1.4-2.7-1.4-4.9c0-2.1,0.5-3.7,1.4-4.9S481.2,257.1,482.9,257.1z M482.9,258.9c-1,0-1.8,0.4-2.4,1.2c-0.5,0.8-0.8,2-0.8,3.6
		c0,1.6,0.3,2.8,0.8,3.6c0.5,0.8,1.3,1.2,2.4,1.2c1,0,1.8-0.4,2.4-1.2c0.5-0.8,0.8-2,0.8-3.6c0-1.6-0.3-2.8-0.8-3.6
		C484.8,259.3,484,258.9,482.9,258.9z"/>
	<path fill="#FFFFFF" d="M497.8,265.4c0,0.9,0.2,1.6,0.5,2.1c0.3,0.5,0.8,0.7,1.5,0.7h2.4v1.7h-2.6c-1.2,0-2.2-0.4-2.8-1.2
		s-1-1.9-1-3.3v-11.3h-3.3v-1.6h5.3V265.4z"/>
	<path fill="#FFFFFF" d="M504.6,257.4h2.1l3.6,10.5l3.6-10.5h2.1l-4.4,12.5H509L504.6,257.4z"/>
	<path fill="#FFFFFF" d="M529.6,262.6v1h-8.9v0.1c-0.1,1.7,0.3,2.9,1,3.7c0.7,0.7,1.7,1.1,3,1.1c0.7,0,1.3-0.1,2-0.3
		c0.7-0.2,1.5-0.5,2.3-0.9v2c-0.8,0.3-1.5,0.6-2.3,0.7s-1.4,0.2-2.1,0.2c-1.9,0-3.4-0.6-4.5-1.7c-1.1-1.2-1.6-2.8-1.6-4.8
		c0-2,0.5-3.6,1.6-4.8c1.1-1.2,2.5-1.8,4.3-1.8c1.6,0,2.8,0.5,3.8,1.6C529.1,259.8,529.6,261.1,529.6,262.6z M527.6,262
		c-0.1-0.9-0.4-1.6-0.9-2.2c-0.5-0.6-1.3-0.9-2.3-0.9c-1,0-1.8,0.3-2.4,1s-1,1.4-1,2.2L527.6,262z"/>
	<path fill="#FFFFFF" d="M543.7,260c-0.4-0.3-0.9-0.6-1.3-0.7c-0.5-0.2-0.9-0.2-1.5-0.2c-1.3,0-2.2,0.4-2.9,1.2c-0.7,0.8-1,2-1,3.5
		v6.2h-2.1v-12.5h2.1v2.4c0.3-0.9,0.9-1.6,1.6-2s1.5-0.7,2.5-0.7c0.5,0,1,0.1,1.4,0.2s0.9,0.3,1.3,0.6V260z"/>
	<path fill="#F92772" d="M566.3,256.8v4.9h4.9v1.9h-4.9v4.9h-1.9v-4.9h-4.9v-1.9h4.9v-4.9H566.3z"/>
	<path fill="#FFFFFF" d="M597.5,269.2c-0.5,0.3-1.1,0.6-1.7,0.7s-1.2,0.2-1.8,0.2c-1.9,0-3.4-0.6-4.5-1.7c-1.1-1.2-1.6-2.8-1.6-4.8
		s0.5-3.6,1.6-4.8c1.1-1.2,2.6-1.7,4.5-1.7c0.6,0,1.2,0.1,1.8,0.2c0.6,0.2,1.1,0.4,1.7,0.7v2.1c-0.5-0.5-1.1-0.8-1.6-1
		c-0.5-0.2-1.2-0.3-1.9-0.3c-1.3,0-2.3,0.4-3,1.2s-1,2-1,3.6c0,1.5,0.3,2.7,1,3.6s1.7,1.3,3,1.3c0.7,0,1.3-0.1,1.9-0.3
		c0.6-0.2,1.1-0.6,1.6-1V269.2z"/>
	<path fill="#FFFFFF" d="M612.3,260c-0.4-0.3-0.9-0.6-1.3-0.7c-0.5-0.2-0.9-0.2-1.5-0.2c-1.3,0-2.2,0.4-2.9,1.2c-0.7,0.8-1,2-1,3.5
		v6.2h-2.1v-12.5h2.1v2.4c0.3-0.9,0.9-1.6,1.6-2s1.5-0.7,2.5-0.7c0.5,0,1,0.1,1.4,0.2s0.9,0.3,1.3,0.6V260z"/>
	<path fill="#FFFFFF" d="M625.6,262.6v1h-8.9v0.1c-0.1,1.7,0.3,2.9,1,3.7c0.7,0.7,1.7,1.1,3,1.1c0.7,0,1.3-0.1,2-0.3
		c0.7-0.2,1.5-0.5,2.3-0.9v2c-0.8,0.3-1.5,0.6-2.3,0.7s-1.4,0.2-2.1,0.2c-1.9,0-3.4-0.6-4.5-1.7c-1.1-1.2-1.6-2.8-1.6-4.8
		c0-2,0.5-3.6,1.6-4.8c1.1-1.2,2.5-1.8,4.3-1.8c1.6,0,2.8,0.5,3.8,1.6C625.1,259.8,625.5,261.1,625.6,262.6z M623.6,262
		c-0.1-0.9-0.4-1.6-0.9-2.2c-0.5-0.6-1.3-0.9-2.3-0.9c-1,0-1.8,0.3-2.4,1c-0.6,0.7-1,1.4-1,2.2L623.6,262z"/>
	<path fill="#FFFFFF" d="M638.6,262.8v7.1h-2.1V268c-0.4,0.7-1,1.3-1.7,1.6c-0.7,0.4-1.5,0.5-2.4,0.5c-1.3,0-2.3-0.4-3-1.1
		c-0.8-0.7-1.1-1.7-1.1-2.9c0-1.4,0.5-2.4,1.4-3.2c0.9-0.7,2.3-1.1,4.1-1.1h2.7v-0.3c0-1-0.3-1.7-0.8-2.2c-0.5-0.4-1.3-0.7-2.4-0.7
		c-0.7,0-1.4,0.1-2.1,0.3s-1.4,0.5-2.1,0.9v-2c0.8-0.3,1.5-0.5,2.2-0.7s1.4-0.2,2-0.2c1,0,1.9,0.2,2.6,0.5c0.7,0.3,1.3,0.8,1.8,1.4
		c0.3,0.4,0.5,0.8,0.6,1.4S638.6,261.7,638.6,262.8z M634.7,263.6H634c-1.2,0-2.1,0.2-2.7,0.6c-0.6,0.4-0.9,1-0.9,1.9
		c0,0.7,0.2,1.3,0.7,1.7s1.1,0.6,1.9,0.6c1.1,0,2-0.4,2.7-1.2c0.6-0.8,1-1.9,1-3.2v-0.5H634.7z"/>
	<path fill="#FFFFFF" d="M647.4,253.9v3.5h4.6v1.6h-4.6v6.8c0,0.9,0.2,1.6,0.5,1.9c0.3,0.4,1,0.5,1.8,0.5h2.3v1.6h-2.5
		c-1.5,0-2.6-0.3-3.2-0.9s-0.9-1.7-0.9-3.2V259H642v-1.6h3.3v-3.5H647.4z"/>
	<path fill="#FFFFFF" d="M657.8,257.5h5.2v10.8h4.1v1.6h-10.2v-1.6h4.1v-9.2h-3.2V257.5z M661,252.6h2v2.6h-2V252.6z"/>
	<path fill="#FFFFFF" d="M669.1,257.4h2.1l3.6,10.5l3.6-10.5h2.1l-4.4,12.5h-2.6L669.1,257.4z"/>
	<path fill="#FFFFFF" d="M694.1,262.6v1h-8.9v0.1c-0.1,1.7,0.3,2.9,1,3.7c0.7,0.7,1.7,1.1,3,1.1c0.7,0,1.3-0.1,2-0.3
		c0.7-0.2,1.5-0.5,2.3-0.9v2c-0.8,0.3-1.5,0.6-2.3,0.7s-1.4,0.2-2.1,0.2c-1.9,0-3.4-0.6-4.5-1.7c-1.1-1.2-1.6-2.8-1.6-4.8
		c0-2,0.5-3.6,1.6-4.8c1.1-1.2,2.5-1.8,4.3-1.8c1.6,0,2.8,0.5,3.8,1.6C693.6,259.8,694.1,261.1,694.1,262.6z M692.1,262
		c-0.1-0.9-0.4-1.6-0.9-2.2c-0.5-0.6-1.3-0.9-2.3-0.9c-1,0-1.8,0.3-2.4,1c-0.6,0.7-1,1.4-1,2.2L692.1,262z"/>
	<path fill="#FFFFFF" d="M699.3,251.5h1.8c1.1,1.7,2,3.5,2.5,5.1c0.5,1.7,0.8,3.3,0.8,5c0,1.7-0.3,3.3-0.8,5
		c-0.5,1.7-1.4,3.4-2.5,5.1h-1.8c1-1.7,1.7-3.4,2.2-5.1s0.7-3.4,0.7-5c0-1.7-0.2-3.4-0.7-5.1C701,254.9,700.3,253.2,699.3,251.5z"/>
	<path fill="#FFFFFF" d="M734.3,270.4v1.6h-0.7c-1.8,0-3.1-0.3-3.7-0.8c-0.6-0.5-0.9-1.6-0.9-3.3v-2.2c0-0.8-0.2-1.5-0.7-2.1
		s-1.2-0.9-2.1-0.9h-1.4v-1.6h1.4c1,0,1.8-0.2,2.2-0.7c0.4-0.5,0.6-1.2,0.6-2.2v-2.9c0-1.6,0.3-2.7,0.9-3.3c0.6-0.5,1.9-0.8,3.7-0.8
		h0.7v1.6h-0.8c-1,0-1.7,0.2-2,0.5s-0.5,1-0.5,2.1v3c0,1.3-0.3,2.2-0.8,2.6s-1.5,0.8-3,1c1.4,0.2,2.4,0.5,3,1
		c0.5,0.5,0.8,1.4,0.8,2.6v2.3c0,1.1,0.2,1.7,0.5,2.1c0.3,0.3,1,0.5,2,0.5H734.3z"/>
	<path fill="#FFFFFF" d="M144.9,296.6c-0.5,0.3-1.1,0.6-1.7,0.7c-0.6,0.2-1.2,0.2-1.8,0.2c-1.9,0-3.4-0.6-4.5-1.7
		c-1.1-1.2-1.6-2.8-1.6-4.8s0.5-3.6,1.6-4.8c1.1-1.2,2.6-1.7,4.5-1.7c0.6,0,1.2,0.1,1.8,0.2s1.1,0.4,1.7,0.7v2.1
		c-0.5-0.5-1.1-0.8-1.6-1c-0.5-0.2-1.2-0.3-1.9-0.3c-1.3,0-2.3,0.4-3,1.2s-1,2-1,3.6c0,1.5,0.3,2.7,1,3.6c0.7,0.8,1.7,1.2,3,1.2
		c0.7,0,1.3-0.1,1.9-0.3c0.6-0.2,1.1-0.6,1.6-1V296.6z"/>
	<path fill="#FFFFFF" d="M153.7,284.4c1.7,0,3,0.6,4,1.7c0.9,1.1,1.4,2.7,1.4,4.9c0,2.1-0.5,3.8-1.4,4.9c-0.9,1.1-2.2,1.7-4,1.7
		c-1.7,0-3-0.6-4-1.7c-0.9-1.1-1.4-2.7-1.4-4.9c0-2.1,0.5-3.7,1.4-4.9C150.6,285,152,284.4,153.7,284.4z M153.7,286.2
		c-1,0-1.8,0.4-2.4,1.2c-0.5,0.8-0.8,2-0.8,3.6c0,1.6,0.3,2.8,0.8,3.6c0.5,0.8,1.3,1.2,2.4,1.2c1,0,1.8-0.4,2.4-1.2
		c0.5-0.8,0.8-2,0.8-3.6c0-1.6-0.3-2.8-0.8-3.6S154.7,286.2,153.7,286.2z"/>
	<path fill="#FFFFFF" d="M172.2,289.5v7.7h-2.1v-7.7c0-1.1-0.2-1.9-0.6-2.5c-0.4-0.5-1-0.8-1.8-0.8c-1,0-1.7,0.3-2.2,1
		c-0.5,0.7-0.8,1.6-0.8,2.9v7h-2v-12.5h2v1.9c0.4-0.7,0.9-1.2,1.5-1.6c0.6-0.4,1.4-0.6,2.2-0.6c1.3,0,2.2,0.4,2.8,1.3
		C171.9,286.5,172.2,287.8,172.2,289.5z"/>
	<path fill="#FFFFFF" d="M185.1,285.2v2c-0.6-0.3-1.2-0.6-1.8-0.8s-1.2-0.3-1.8-0.3c-0.9,0-1.6,0.2-2.1,0.5
		c-0.5,0.3-0.7,0.8-0.7,1.4c0,0.6,0.2,1,0.5,1.2c0.3,0.3,1.2,0.5,2.5,0.8l0.8,0.2c1,0.2,1.8,0.6,2.3,1.2s0.8,1.3,0.8,2.3
		c0,1.2-0.4,2.2-1.3,2.9c-0.9,0.7-2.1,1-3.6,1c-0.6,0-1.3-0.1-1.9-0.2c-0.7-0.1-1.4-0.3-2.2-0.6v-2.1c0.8,0.4,1.5,0.7,2.2,0.9
		c0.7,0.2,1.4,0.3,2,0.3c0.9,0,1.6-0.2,2.1-0.5c0.5-0.4,0.7-0.9,0.7-1.5c0-0.9-0.9-1.6-2.7-2l-0.1,0l-0.8-0.2
		c-1.2-0.2-2-0.6-2.6-1.2c-0.5-0.5-0.8-1.3-0.8-2.2c0-1.2,0.4-2.1,1.2-2.8c0.8-0.6,2-1,3.5-1c0.7,0,1.3,0.1,1.9,0.2
		C183.9,284.7,184.5,284.9,185.1,285.2z"/>
	<path fill="#FFFFFF" d="M194.8,284.4c1.7,0,3,0.6,4,1.7c0.9,1.1,1.4,2.7,1.4,4.9c0,2.1-0.5,3.8-1.4,4.9c-0.9,1.1-2.2,1.7-4,1.7
		c-1.7,0-3-0.6-4-1.7c-0.9-1.1-1.4-2.7-1.4-4.9c0-2.1,0.5-3.7,1.4-4.9C191.8,285,193.1,284.4,194.8,284.4z M194.8,286.2
		c-1,0-1.8,0.4-2.4,1.2c-0.5,0.8-0.8,2-0.8,3.6c0,1.6,0.3,2.8,0.8,3.6c0.5,0.8,1.3,1.2,2.4,1.2c1,0,1.8-0.4,2.4-1.2
		c0.5-0.8,0.8-2,0.8-3.6c0-1.6-0.3-2.8-0.8-3.6C196.6,286.6,195.9,286.2,194.8,286.2z"/>
	<path fill="#FFFFFF" d="M209.7,292.7c0,0.9,0.2,1.6,0.5,2.1c0.3,0.5,0.8,0.7,1.5,0.7h2.4v1.7h-2.6c-1.2,0-2.2-0.4-2.8-1.2
		s-1-1.9-1-3.3v-11.3h-3.3v-1.6h5.3V292.7z"/>
	<path fill="#FFFFFF" d="M227.8,289.9v1H219v0.1c-0.1,1.7,0.3,2.9,1,3.7c0.7,0.7,1.7,1.1,3,1.1c0.7,0,1.3-0.1,2-0.3
		c0.7-0.2,1.5-0.5,2.3-0.9v2c-0.8,0.3-1.5,0.6-2.3,0.7c-0.7,0.2-1.4,0.2-2.1,0.2c-1.9,0-3.4-0.6-4.5-1.7c-1.1-1.2-1.6-2.8-1.6-4.8
		c0-2,0.5-3.6,1.6-4.8c1.1-1.2,2.5-1.8,4.3-1.8c1.6,0,2.8,0.5,3.8,1.6C227.3,287.1,227.8,288.4,227.8,289.9z M225.8,289.3
		c-0.1-0.9-0.4-1.6-0.9-2.2c-0.5-0.6-1.3-0.9-2.3-0.9c-1,0-1.8,0.3-2.4,1s-1,1.4-1,2.2L225.8,289.3z"/>
	<path fill="#60D9EF" d="M233.4,292.7h3.9v4.5h-3.9V292.7z"/>
	<path fill="#60D9EF" d="M250.8,292.7c0,0.9,0.2,1.6,0.5,2.1c0.3,0.5,0.8,0.7,1.5,0.7h2.4v1.7h-2.6c-1.2,0-2.2-0.4-2.8-1.2
		c-0.7-0.8-1-1.9-1-3.3v-11.3h-3.3v-1.6h5.3V292.7z"/>
	<path fill="#60D9EF" d="M263.4,284.4c1.7,0,3,0.6,4,1.7c0.9,1.1,1.4,2.7,1.4,4.9c0,2.1-0.5,3.8-1.4,4.9c-0.9,1.1-2.2,1.7-4,1.7
		c-1.7,0-3-0.6-4-1.7c-0.9-1.1-1.4-2.7-1.4-4.9c0-2.1,0.5-3.7,1.4-4.9C260.3,285,261.6,284.4,263.4,284.4z M263.4,286.2
		c-1,0-1.8,0.4-2.4,1.2s-0.8,2-0.8,3.6c0,1.6,0.3,2.8,0.8,3.6c0.5,0.8,1.3,1.2,2.4,1.2c1,0,1.8-0.4,2.4-1.2c0.5-0.8,0.8-2,0.8-3.6
		c0-1.6-0.3-2.8-0.8-3.6C265.2,286.6,264.4,286.2,263.4,286.2z"/>
	<path fill="#60D9EF" d="M281.8,296.4c0,1.9-0.4,3.3-1.3,4.2c-0.9,1-2.2,1.4-3.9,1.4c-0.6,0-1.2-0.1-1.8-0.2s-1.2-0.3-1.8-0.5v-2
		c0.7,0.3,1.4,0.6,2,0.8c0.6,0.2,1.1,0.2,1.6,0.2c1.1,0,1.9-0.3,2.4-0.9s0.8-1.6,0.8-2.9v-0.1v-1.4c-0.3,0.7-0.8,1.2-1.3,1.6
		s-1.2,0.5-2.1,0.5c-1.5,0-2.6-0.6-3.5-1.7s-1.3-2.7-1.3-4.7c0-2,0.4-3.5,1.3-4.7s2-1.7,3.5-1.7c0.8,0,1.5,0.2,2,0.5
		c0.6,0.3,1,0.8,1.4,1.5v-1.6h2V296.4z M279.8,290.9c0-1.5-0.3-2.7-0.8-3.5c-0.5-0.8-1.2-1.2-2.2-1.2c-1,0-1.8,0.4-2.3,1.2
		c-0.5,0.8-0.8,2-0.8,3.5s0.3,2.7,0.8,3.5c0.5,0.8,1.3,1.2,2.3,1.2c0.9,0,1.7-0.4,2.2-1.2S279.8,292.4,279.8,290.9z"/>
	<path fill="#FFFFFF" d="M293.4,278.8c-1,1.7-1.7,3.4-2.2,5.1s-0.7,3.4-0.7,5.1c0,1.7,0.2,3.4,0.7,5.1s1.2,3.4,2.2,5.1h-1.8
		c-1.1-1.8-2-3.5-2.5-5.2c-0.5-1.7-0.8-3.3-0.8-5c0-1.7,0.3-3.3,0.8-5c0.5-1.7,1.4-3.4,2.5-5.1H293.4z"/>
	<path fill="#E6DB74" d="M302.2,280v6.8h-2.5V280H302.2z M308.1,280v6.8h-2.5V280H308.1z"/>
	<path fill="#E6DB74" d="M312.5,296.5v-2.6c0.7,0.6,1.4,1.1,2.1,1.4c0.7,0.3,1.5,0.4,2.2,0.4c1.1,0,1.8-0.3,2.2-0.8s0.6-1.6,0.6-3.1
		v-9.3h-4.2v-1.9h6.5v11.2c0,2.1-0.4,3.6-1.2,4.4c-0.8,0.9-2.1,1.3-3.9,1.3c-0.7,0-1.4-0.1-2.1-0.2S313.3,296.9,312.5,296.5z"/>
	<path fill="#E6DB74" d="M331.9,284.4c1.7,0,3,0.6,4,1.7c0.9,1.1,1.4,2.7,1.4,4.9c0,2.1-0.5,3.8-1.4,4.9c-0.9,1.1-2.2,1.7-4,1.7
		c-1.7,0-3-0.6-4-1.7c-0.9-1.1-1.4-2.7-1.4-4.9c0-2.1,0.5-3.7,1.4-4.9C328.8,285,330.2,284.4,331.9,284.4z M331.9,286.2
		c-1,0-1.8,0.4-2.4,1.2s-0.8,2-0.8,3.6c0,1.6,0.3,2.8,0.8,3.6c0.5,0.8,1.3,1.2,2.4,1.2c1,0,1.8-0.4,2.4-1.2c0.5-0.8,0.8-2,0.8-3.6
		c0-1.6-0.3-2.8-0.8-3.6C333.7,286.6,332.9,286.2,331.9,286.2z"/>
	<path fill="#E6DB74" d="M350.4,289.5v7.7h-2.1v-7.7c0-1.1-0.2-1.9-0.6-2.5s-1-0.8-1.8-0.8c-1,0-1.7,0.3-2.2,1
		c-0.5,0.7-0.8,1.6-0.8,2.9v7h-2v-17.3h2v6.7c0.4-0.7,0.9-1.2,1.5-1.6c0.6-0.4,1.4-0.6,2.2-0.6c1.3,0,2.2,0.4,2.8,1.3
		C350.1,286.5,350.4,287.8,350.4,289.5z"/>
	<path fill="#E6DB74" d="M364.1,289.5v7.7h-2.1v-7.7c0-1.1-0.2-1.9-0.6-2.5s-1-0.8-1.8-0.8c-1,0-1.7,0.3-2.2,1
		c-0.5,0.7-0.8,1.6-0.8,2.9v7h-2v-12.5h2v1.9c0.4-0.7,0.9-1.2,1.5-1.6c0.6-0.4,1.4-0.6,2.2-0.6c1.3,0,2.2,0.4,2.8,1.3
		C363.8,286.5,364.1,287.8,364.1,289.5z"/>
	<path fill="#E6DB74" d="M380.1,280.6h3.1l6.5,13.6v-13.6h2.4v16.5H389l-6.5-13.6v13.6h-2.4V280.6z"/>
	<path fill="#E6DB74" d="M405.2,296.4c0,1.9-0.4,3.3-1.3,4.2c-0.9,1-2.2,1.4-3.9,1.4c-0.6,0-1.2-0.1-1.8-0.2
		c-0.6-0.1-1.2-0.3-1.8-0.5v-2c0.7,0.3,1.4,0.6,2,0.8c0.6,0.2,1.1,0.2,1.6,0.2c1.1,0,1.9-0.3,2.4-0.9c0.5-0.6,0.8-1.6,0.8-2.9v-0.1
		v-1.4c-0.3,0.7-0.8,1.2-1.3,1.6c-0.6,0.3-1.2,0.5-2.1,0.5c-1.5,0-2.6-0.6-3.5-1.7c-0.9-1.2-1.3-2.7-1.3-4.7c0-2,0.4-3.5,1.3-4.7
		c0.9-1.2,2-1.7,3.5-1.7c0.8,0,1.5,0.2,2,0.5c0.6,0.3,1,0.8,1.4,1.5v-1.6h2V296.4z M403.1,290.9c0-1.5-0.3-2.7-0.8-3.5
		c-0.5-0.8-1.2-1.2-2.2-1.2c-1,0-1.8,0.4-2.3,1.2c-0.5,0.8-0.8,2-0.8,3.5s0.3,2.7,0.8,3.5c0.5,0.8,1.3,1.2,2.3,1.2
		c0.9,0,1.7-0.4,2.2-1.2C402.9,293.6,403.1,292.4,403.1,290.9z"/>
	<path fill="#E6DB74" d="M409.5,292.5v-7.7h2v7.7c0,1.1,0.2,1.9,0.6,2.5c0.4,0.5,1,0.8,1.8,0.8c1,0,1.7-0.3,2.2-1
		c0.5-0.7,0.8-1.7,0.8-2.9v-7h2.1v12.4h-2.1v-1.9c-0.4,0.7-0.9,1.3-1.5,1.6c-0.6,0.4-1.4,0.6-2.2,0.6c-1.3,0-2.2-0.4-2.8-1.2
		C409.8,295.4,409.5,294.2,409.5,292.5z"/>
	<path fill="#E6DB74" d="M430.5,293.2c-0.3,0.9-0.8,2-1.3,3.4c-0.7,2-1.2,3.2-1.5,3.6c-0.3,0.6-0.8,1-1.3,1.3s-1.1,0.4-1.8,0.4H423
		v-1.7h1.2c0.6,0,1.1-0.2,1.4-0.5s0.8-1.2,1.3-2.7l-4.8-12.3h2.2l3.7,9.7l3.6-9.7h2.2L430.5,293.2z"/>
	<path fill="#E6DB74" d="M447.2,289.9v1h-8.9v0.1c-0.1,1.7,0.3,2.9,1,3.7c0.7,0.7,1.7,1.1,3,1.1c0.7,0,1.3-0.1,2-0.3
		c0.7-0.2,1.5-0.5,2.3-0.9v2c-0.8,0.3-1.5,0.6-2.3,0.7c-0.7,0.2-1.4,0.2-2.1,0.2c-1.9,0-3.4-0.6-4.5-1.7s-1.6-2.8-1.6-4.8
		c0-2,0.5-3.6,1.6-4.8c1.1-1.2,2.5-1.8,4.3-1.8c1.6,0,2.8,0.5,3.8,1.6C446.6,287.1,447.1,288.4,447.2,289.9z M445.1,289.3
		c-0.1-0.9-0.4-1.6-0.9-2.2c-0.5-0.6-1.3-0.9-2.3-0.9c-1,0-1.8,0.3-2.4,1s-1,1.4-1,2.2L445.1,289.3z"/>
	<path fill="#E6DB74" d="M460.1,289.5v7.7H458v-7.7c0-1.1-0.2-1.9-0.6-2.5c-0.4-0.5-1-0.8-1.8-0.8c-1,0-1.7,0.3-2.2,1
		s-0.8,1.6-0.8,2.9v7h-2v-12.5h2v1.9c0.4-0.7,0.9-1.2,1.5-1.6c0.6-0.4,1.4-0.6,2.2-0.6c1.3,0,2.2,0.4,2.8,1.3
		S460.1,287.8,460.1,289.5z"/>
	<path fill="#E6DB74" d="M466.7,280v6.8h-2.5V280H466.7z M472.6,280v6.8h-2.5V280H472.6z"/>
	<path fill="#FFFFFF" d="M479.7,278.8h1.8c1.1,1.7,2,3.5,2.5,5.1c0.5,1.7,0.8,3.3,0.8,5c0,1.7-0.3,3.3-0.8,5
		c-0.5,1.7-1.4,3.4-2.5,5.1h-1.8c1-1.7,1.7-3.4,2.2-5.1s0.7-3.4,0.7-5c0-1.7-0.2-3.4-0.7-5.1S480.7,280.5,479.7,278.8z"/>
	<path fill="#FFFFFF" d="M494.5,293.2h3.5v2.9l-2.2,4.2h-2.4l1.1-4.2V293.2z M494.3,284.8h3.5v4h-3.5V284.8z"/>
	<path fill="#FFFFFF" d="M76.3,325.1v1.6h-0.7c-1.8,0-3.1-0.3-3.7-0.8c-0.6-0.5-0.9-1.6-0.9-3.3v-2.2c0-0.8-0.2-1.5-0.7-2.1
		s-1.2-0.9-2.1-0.9h-1.4v-1.6h1.4c1,0,1.8-0.2,2.2-0.7c0.4-0.5,0.6-1.2,0.6-2.2V310c0-1.6,0.3-2.7,0.9-3.3c0.6-0.5,1.9-0.8,3.7-0.8
		h0.7v1.6h-0.8c-1,0-1.7,0.2-2,0.5c-0.3,0.3-0.5,1-0.5,2.1v3c0,1.3-0.3,2.2-0.8,2.6c-0.5,0.4-1.5,0.8-3,1c1.4,0.2,2.4,0.5,3,1
		s0.8,1.4,0.8,2.6v2.3c0,1.1,0.2,1.7,0.5,2.1c0.3,0.3,1,0.5,2,0.5H76.3z"/>
	<path fill="#F92772" d="M104.7,317.3v1h-8.9v0.1c-0.1,1.7,0.3,2.9,1,3.7s1.7,1.1,3,1.1c0.7,0,1.3-0.1,2-0.3
		c0.7-0.2,1.5-0.5,2.3-0.9v2c-0.8,0.3-1.5,0.6-2.3,0.7c-0.7,0.2-1.4,0.2-2.1,0.2c-1.9,0-3.4-0.6-4.5-1.7c-1.1-1.2-1.6-2.8-1.6-4.8
		c0-2,0.5-3.6,1.6-4.8c1.1-1.2,2.5-1.8,4.3-1.8c1.6,0,2.8,0.5,3.8,1.6C104.1,314.5,104.6,315.7,104.7,317.3z M102.6,316.7
		c-0.1-0.9-0.4-1.6-0.9-2.2c-0.5-0.6-1.3-0.9-2.3-0.9c-1,0-1.8,0.3-2.4,1c-0.6,0.7-1,1.4-1,2.2L102.6,316.7z"/>
	<path fill="#F92772" d="M113.9,320c0,0.9,0.2,1.6,0.5,2.1c0.3,0.5,0.8,0.7,1.5,0.7h2.4v1.7h-2.6c-1.2,0-2.2-0.4-2.8-1.2
		s-1-1.9-1-3.3v-11.3h-3.3v-1.6h5.3V320z"/>
	<path fill="#F92772" d="M130.5,312.5v2c-0.6-0.3-1.2-0.6-1.8-0.8c-0.6-0.2-1.2-0.3-1.8-0.3c-0.9,0-1.6,0.2-2.1,0.5
		c-0.5,0.3-0.7,0.8-0.7,1.4c0,0.6,0.2,1,0.5,1.2c0.3,0.3,1.2,0.5,2.5,0.8l0.8,0.2c1,0.2,1.8,0.6,2.3,1.2c0.5,0.6,0.8,1.3,0.8,2.3
		c0,1.2-0.4,2.2-1.3,2.9c-0.9,0.7-2.1,1-3.6,1c-0.6,0-1.3-0.1-1.9-0.2s-1.4-0.3-2.2-0.6v-2.1c0.8,0.4,1.5,0.7,2.2,0.9
		c0.7,0.2,1.4,0.3,2,0.3c0.9,0,1.6-0.2,2.1-0.6c0.5-0.4,0.7-0.9,0.7-1.5c0-0.9-0.9-1.6-2.7-2l-0.1,0l-0.8-0.2
		c-1.2-0.2-2-0.6-2.6-1.2c-0.5-0.5-0.8-1.3-0.8-2.2c0-1.2,0.4-2.1,1.2-2.8c0.8-0.6,2-1,3.5-1c0.7,0,1.3,0.1,1.9,0.2
		C129.3,312.1,129.9,312.3,130.5,312.5z"/>
	<path fill="#F92772" d="M145.8,317.3v1H137v0.1c-0.1,1.7,0.3,2.9,1,3.7s1.7,1.1,3,1.1c0.7,0,1.3-0.1,2-0.3c0.7-0.2,1.5-0.5,2.3-0.9
		v2c-0.8,0.3-1.5,0.6-2.3,0.7c-0.7,0.2-1.4,0.2-2.1,0.2c-1.9,0-3.4-0.6-4.5-1.7c-1.1-1.2-1.6-2.8-1.6-4.8c0-2,0.5-3.6,1.6-4.8
		c1.1-1.2,2.5-1.8,4.3-1.8c1.6,0,2.8,0.5,3.8,1.6C145.3,314.5,145.8,315.7,145.8,317.3z M143.8,316.7c-0.1-0.9-0.4-1.6-0.9-2.2
		c-0.5-0.6-1.3-0.9-2.3-0.9c-1,0-1.8,0.3-2.4,1c-0.6,0.7-1,1.4-1,2.2L143.8,316.7z"/>
	<path fill="#FFFFFF" d="M172.3,325.1v1.6h-0.7c-1.8,0-3.1-0.3-3.7-0.8c-0.6-0.5-0.9-1.6-0.9-3.3v-2.2c0-0.8-0.2-1.5-0.7-2.1
		c-0.5-0.6-1.2-0.9-2.1-0.9h-1.4v-1.6h1.4c1,0,1.8-0.2,2.2-0.7c0.4-0.5,0.6-1.2,0.6-2.2V310c0-1.6,0.3-2.7,0.9-3.3
		c0.6-0.5,1.9-0.8,3.7-0.8h0.7v1.6h-0.8c-1,0-1.7,0.2-2,0.5s-0.5,1-0.5,2.1v3c0,1.3-0.3,2.2-0.8,2.6c-0.5,0.4-1.5,0.8-3,1
		c1.4,0.2,2.4,0.5,3,1c0.5,0.5,0.8,1.4,0.8,2.6v2.3c0,1.1,0.2,1.7,0.5,2.1c0.3,0.3,1,0.5,2,0.5H172.3z"/>
	<path fill="#FFFFFF" d="M144.9,351.2c-0.5,0.3-1.1,0.6-1.7,0.7c-0.6,0.2-1.2,0.2-1.8,0.2c-1.9,0-3.4-0.6-4.5-1.7
		c-1.1-1.2-1.6-2.8-1.6-4.8c0-2,0.5-3.6,1.6-4.8c1.1-1.2,2.6-1.7,4.5-1.7c0.6,0,1.2,0.1,1.8,0.2c0.6,0.2,1.1,0.4,1.7,0.7v2.1
		c-0.5-0.5-1.1-0.8-1.6-1s-1.2-0.3-1.9-0.3c-1.3,0-2.3,0.4-3,1.2c-0.7,0.8-1,2-1,3.6c0,1.5,0.3,2.7,1,3.6c0.7,0.8,1.7,1.3,3,1.3
		c0.7,0,1.3-0.1,1.9-0.3c0.6-0.2,1.1-0.6,1.6-1V351.2z"/>
	<path fill="#FFFFFF" d="M153.7,339.1c1.7,0,3,0.6,4,1.7c0.9,1.1,1.4,2.7,1.4,4.9c0,2.1-0.5,3.7-1.4,4.9c-0.9,1.1-2.2,1.7-4,1.7
		c-1.7,0-3-0.6-4-1.7c-0.9-1.1-1.4-2.7-1.4-4.9c0-2.1,0.5-3.7,1.4-4.9C150.6,339.6,152,339.1,153.7,339.1z M153.7,340.8
		c-1,0-1.8,0.4-2.4,1.2c-0.5,0.8-0.8,2-0.8,3.6c0,1.6,0.3,2.8,0.8,3.6c0.5,0.8,1.3,1.2,2.4,1.2c1,0,1.8-0.4,2.4-1.2
		c0.5-0.8,0.8-2,0.8-3.6c0-1.6-0.3-2.8-0.8-3.6C155.5,341.2,154.7,340.8,153.7,340.8z"/>
	<path fill="#FFFFFF" d="M172.2,344.1v7.7h-2.1v-7.7c0-1.1-0.2-1.9-0.6-2.5c-0.4-0.5-1-0.8-1.8-0.8c-1,0-1.7,0.3-2.2,1
		c-0.5,0.7-0.8,1.7-0.8,2.9v7h-2v-12.5h2v1.9c0.4-0.7,0.9-1.3,1.5-1.6c0.6-0.4,1.4-0.5,2.2-0.5c1.3,0,2.2,0.4,2.8,1.2
		C171.9,341.2,172.2,342.4,172.2,344.1z"/>
	<path fill="#FFFFFF" d="M185.1,339.8v2c-0.6-0.3-1.2-0.6-1.8-0.8s-1.2-0.3-1.8-0.3c-0.9,0-1.6,0.1-2.1,0.4s-0.7,0.8-0.7,1.4
		c0,0.6,0.2,1,0.5,1.2c0.3,0.3,1.2,0.5,2.5,0.8l0.8,0.2c1,0.2,1.8,0.6,2.3,1.2s0.8,1.3,0.8,2.3c0,1.2-0.4,2.2-1.3,2.9
		c-0.9,0.7-2.1,1-3.6,1c-0.6,0-1.3-0.1-1.9-0.2c-0.7-0.1-1.4-0.3-2.2-0.6v-2.1c0.8,0.4,1.5,0.7,2.2,0.9c0.7,0.2,1.4,0.3,2,0.3
		c0.9,0,1.6-0.2,2.1-0.6c0.5-0.4,0.7-0.9,0.7-1.5c0-0.9-0.9-1.6-2.7-2l-0.1,0l-0.8-0.2c-1.2-0.2-2-0.6-2.6-1.2
		c-0.5-0.5-0.8-1.3-0.8-2.2c0-1.2,0.4-2.1,1.2-2.8c0.8-0.6,2-1,3.5-1c0.7,0,1.3,0.1,1.9,0.2C183.9,339.4,184.5,339.6,185.1,339.8z"
		/>
	<path fill="#FFFFFF" d="M194.8,339.1c1.7,0,3,0.6,4,1.7c0.9,1.1,1.4,2.7,1.4,4.9c0,2.1-0.5,3.7-1.4,4.9c-0.9,1.1-2.2,1.7-4,1.7
		c-1.7,0-3-0.6-4-1.7c-0.9-1.1-1.4-2.7-1.4-4.9c0-2.1,0.5-3.7,1.4-4.9C191.8,339.6,193.1,339.1,194.8,339.1z M194.8,340.8
		c-1,0-1.8,0.4-2.4,1.2c-0.5,0.8-0.8,2-0.8,3.6c0,1.6,0.3,2.8,0.8,3.6c0.5,0.8,1.3,1.2,2.4,1.2c1,0,1.8-0.4,2.4-1.2
		c0.5-0.8,0.8-2,0.8-3.6c0-1.6-0.3-2.8-0.8-3.6C196.6,341.2,195.9,340.8,194.8,340.8z"/>
	<path fill="#FFFFFF" d="M209.7,347.3c0,0.9,0.2,1.6,0.5,2.1c0.3,0.5,0.8,0.7,1.5,0.7h2.4v1.7h-2.6c-1.2,0-2.2-0.4-2.8-1.2
		s-1-1.9-1-3.3v-11.3h-3.3v-1.6h5.3V347.3z"/>
	<path fill="#FFFFFF" d="M227.8,344.6v1H219v0.1c-0.1,1.7,0.3,2.9,1,3.7c0.7,0.7,1.7,1.1,3,1.1c0.7,0,1.3-0.1,2-0.3
		c0.7-0.2,1.5-0.5,2.3-0.9v2c-0.8,0.3-1.5,0.6-2.3,0.7c-0.7,0.2-1.4,0.2-2.1,0.2c-1.9,0-3.4-0.6-4.5-1.7c-1.1-1.2-1.6-2.8-1.6-4.8
		c0-2,0.5-3.6,1.6-4.8c1.1-1.2,2.5-1.8,4.3-1.8c1.6,0,2.8,0.5,3.8,1.6C227.3,341.8,227.8,343.1,227.8,344.6z M225.8,344
		c-0.1-0.9-0.4-1.6-0.9-2.2c-0.5-0.6-1.3-0.9-2.3-0.9c-1,0-1.8,0.3-2.4,1s-1,1.4-1,2.2L225.8,344z"/>
	<path fill="#60D9EF" d="M233.4,347.3h3.9v4.5h-3.9V347.3z"/>
	<path fill="#60D9EF" d="M250.8,347.3c0,0.9,0.2,1.6,0.5,2.1c0.3,0.5,0.8,0.7,1.5,0.7h2.4v1.7h-2.6c-1.2,0-2.2-0.4-2.8-1.2
		c-0.7-0.8-1-1.9-1-3.3v-11.3h-3.3v-1.6h5.3V347.3z"/>
	<path fill="#60D9EF" d="M263.4,339.1c1.7,0,3,0.6,4,1.7c0.9,1.1,1.4,2.7,1.4,4.9c0,2.1-0.5,3.7-1.4,4.9c-0.9,1.1-2.2,1.7-4,1.7
		c-1.7,0-3-0.6-4-1.7c-0.9-1.1-1.4-2.7-1.4-4.9c0-2.1,0.5-3.7,1.4-4.9C260.3,339.6,261.6,339.1,263.4,339.1z M263.4,340.8
		c-1,0-1.8,0.4-2.4,1.2c-0.5,0.8-0.8,2-0.8,3.6c0,1.6,0.3,2.8,0.8,3.6c0.5,0.8,1.3,1.2,2.4,1.2c1,0,1.8-0.4,2.4-1.2
		c0.5-0.8,0.8-2,0.8-3.6c0-1.6-0.3-2.8-0.8-3.6C265.2,341.2,264.4,340.8,263.4,340.8z"/>
	<path fill="#60D9EF" d="M281.8,351c0,1.9-0.4,3.3-1.3,4.2c-0.9,1-2.2,1.4-3.9,1.4c-0.6,0-1.2-0.1-1.8-0.2c-0.6-0.1-1.2-0.3-1.8-0.5
		v-2c0.7,0.3,1.4,0.6,2,0.8c0.6,0.2,1.1,0.2,1.6,0.2c1.1,0,1.9-0.3,2.4-0.9c0.5-0.6,0.8-1.6,0.8-2.9v-0.1v-1.4
		c-0.3,0.7-0.8,1.2-1.3,1.6s-1.2,0.5-2.1,0.5c-1.5,0-2.6-0.6-3.5-1.7s-1.3-2.7-1.3-4.7c0-2,0.4-3.5,1.3-4.7s2-1.7,3.5-1.7
		c0.8,0,1.5,0.2,2,0.5c0.6,0.3,1,0.8,1.4,1.5v-1.6h2V351z M279.8,345.5c0-1.5-0.3-2.7-0.8-3.5c-0.5-0.8-1.2-1.2-2.2-1.2
		c-1,0-1.8,0.4-2.3,1.2c-0.5,0.8-0.8,2-0.8,3.5c0,1.5,0.3,2.7,0.8,3.5c0.5,0.8,1.3,1.2,2.3,1.2c0.9,0,1.7-0.4,2.2-1.2
		C279.5,348.2,279.8,347,279.8,345.5z"/>
	<path fill="#FFFFFF" d="M293.4,333.5c-1,1.7-1.7,3.4-2.2,5.1c-0.5,1.7-0.7,3.4-0.7,5.1c0,1.7,0.2,3.4,0.7,5.1s1.2,3.4,2.2,5.1h-1.8
		c-1.1-1.8-2-3.5-2.5-5.2c-0.5-1.7-0.8-3.3-0.8-5c0-1.7,0.3-3.3,0.8-5c0.5-1.7,1.4-3.4,2.5-5.1H293.4z"/>
	<path fill="#E6DB74" d="M302.2,334.6v6.8h-2.5v-6.8H302.2z M308.1,334.6v6.8h-2.5v-6.8H308.1z"/>
	<path fill="#E6DB74" d="M311.7,335.3h3l2.9,8.4l2.9-8.4h3v16.5h-2.1v-14.6l-3,8.7h-1.7l-3-8.7v14.6h-2.1V335.3z"/>
	<path fill="#E6DB74" d="M336.8,344.7v7.1h-2.1V350c-0.4,0.7-1,1.3-1.7,1.6c-0.7,0.4-1.5,0.5-2.4,0.5c-1.3,0-2.3-0.4-3-1.1
		c-0.8-0.7-1.1-1.7-1.1-2.9c0-1.4,0.5-2.4,1.4-3.2c0.9-0.7,2.3-1.1,4.1-1.1h2.7v-0.3c0-1-0.3-1.7-0.8-2.2c-0.5-0.4-1.3-0.7-2.4-0.7
		c-0.7,0-1.4,0.1-2.1,0.3c-0.7,0.2-1.4,0.5-2.1,0.9v-2c0.8-0.3,1.5-0.5,2.2-0.7c0.7-0.1,1.4-0.2,2-0.2c1,0,1.9,0.2,2.6,0.5
		c0.7,0.3,1.3,0.8,1.8,1.4c0.3,0.4,0.5,0.8,0.6,1.4C336.8,342.8,336.8,343.6,336.8,344.7z M332.8,345.6h-0.7c-1.2,0-2.1,0.2-2.7,0.6
		c-0.6,0.4-0.9,1-0.9,1.9c0,0.7,0.2,1.3,0.7,1.7s1.1,0.6,1.9,0.6c1.1,0,2-0.4,2.7-1.2s1-1.9,1-3.2v-0.5H332.8z"/>
	<path fill="#E6DB74" d="M348.3,347.8c-0.3,0.9-0.8,2-1.3,3.4c-0.7,2-1.2,3.2-1.5,3.6c-0.3,0.6-0.8,1-1.3,1.3
		c-0.5,0.3-1.1,0.4-1.8,0.4h-1.6v-1.7h1.2c0.6,0,1.1-0.2,1.4-0.5s0.8-1.2,1.3-2.7l-4.8-12.3h2.2l3.7,9.7l3.6-9.7h2.2L348.3,347.8z"
		/>
	<path fill="#E6DB74" d="M356.7,341c0.3-0.6,0.8-1.1,1.4-1.4c0.6-0.3,1.2-0.5,2-0.5c1.5,0,2.7,0.6,3.5,1.7c0.9,1.2,1.3,2.7,1.3,4.8
		c0,2.1-0.4,3.7-1.3,4.8c-0.9,1.2-2,1.8-3.6,1.8c-0.7,0-1.4-0.2-2-0.5s-1-0.8-1.4-1.4v1.6h-2v-17.3h2V341z M362.7,345.6
		c0-1.6-0.3-2.8-0.8-3.6c-0.5-0.8-1.2-1.2-2.2-1.2c-1,0-1.7,0.4-2.3,1.2c-0.5,0.8-0.8,2-0.8,3.6c0,1.6,0.3,2.8,0.8,3.6
		c0.5,0.8,1.3,1.2,2.3,1.2c1,0,1.7-0.4,2.2-1.2C362.4,348.4,362.7,347.2,362.7,345.6z"/>
	<path fill="#E6DB74" d="M378.6,344.6v1h-8.9v0.1c-0.1,1.7,0.3,2.9,1,3.7c0.7,0.7,1.7,1.1,3,1.1c0.7,0,1.3-0.1,2-0.3
		c0.7-0.2,1.5-0.5,2.3-0.9v2c-0.8,0.3-1.5,0.6-2.3,0.7c-0.7,0.2-1.4,0.2-2.1,0.2c-1.9,0-3.4-0.6-4.5-1.7c-1.1-1.2-1.6-2.8-1.6-4.8
		c0-2,0.5-3.6,1.6-4.8c1.1-1.2,2.5-1.8,4.3-1.8c1.6,0,2.8,0.5,3.8,1.6C378.1,341.8,378.6,343.1,378.6,344.6z M376.6,344
		c-0.1-0.9-0.4-1.6-0.9-2.2c-0.5-0.6-1.3-0.9-2.3-0.9c-1,0-1.8,0.3-2.4,1s-1,1.4-1,2.2L376.6,344z"/>
	<path fill="#E6DB74" d="M405.3,344.1v7.7h-2.1v-7.7c0-1.1-0.2-1.9-0.6-2.5c-0.4-0.5-1-0.8-1.8-0.8c-1,0-1.7,0.3-2.2,1
		s-0.8,1.7-0.8,2.9v7h-2v-12.5h2v1.9c0.4-0.7,0.9-1.3,1.5-1.6c0.6-0.4,1.4-0.5,2.2-0.5c1.3,0,2.2,0.4,2.8,1.2
		S405.3,342.4,405.3,344.1z"/>
	<path fill="#E6DB74" d="M414.1,339.1c1.7,0,3,0.6,4,1.7c0.9,1.1,1.4,2.7,1.4,4.9c0,2.1-0.5,3.7-1.4,4.9c-0.9,1.1-2.2,1.7-4,1.7
		c-1.7,0-3-0.6-4-1.7c-0.9-1.1-1.4-2.7-1.4-4.9c0-2.1,0.5-3.7,1.4-4.9C411.1,339.6,412.4,339.1,414.1,339.1z M414.1,340.8
		c-1,0-1.8,0.4-2.4,1.2c-0.5,0.8-0.8,2-0.8,3.6c0,1.6,0.3,2.8,0.8,3.6c0.5,0.8,1.3,1.2,2.4,1.2c1,0,1.8-0.4,2.4-1.2
		c0.5-0.8,0.8-2,0.8-3.6c0-1.6-0.3-2.8-0.8-3.6C416,341.2,415.2,340.8,414.1,340.8z"/>
	<path fill="#E6DB74" d="M427.8,335.9v3.5h4.6v1.6h-4.6v6.8c0,0.9,0.2,1.6,0.5,1.9c0.3,0.4,1,0.5,1.8,0.5h2.3v1.6H430
		c-1.5,0-2.6-0.3-3.2-0.9c-0.6-0.6-0.9-1.7-0.9-3.2V341h-3.3v-1.6h3.3v-3.5H427.8z"/>
	<path fill="#E6DB74" d="M460.1,344.1v7.7H458v-7.7c0-1.1-0.2-1.9-0.6-2.5c-0.4-0.5-1-0.8-1.8-0.8c-1,0-1.7,0.3-2.2,1
		s-0.8,1.7-0.8,2.9v7h-2v-17.3h2v6.7c0.4-0.7,0.9-1.3,1.5-1.6c0.6-0.4,1.4-0.5,2.2-0.5c1.3,0,2.2,0.4,2.8,1.2
		S460.1,342.4,460.1,344.1z"/>
	<path fill="#E6DB74" d="M465.6,339.4h5.2v10.8h4.1v1.6h-10.2v-1.6h4.1V341h-3.2V339.4z M468.8,334.6h2v2.6h-2V334.6z"/>
	<path fill="#E6DB74" d="M483.4,340.7c0.3-0.5,0.6-0.9,1-1.2c0.4-0.3,0.9-0.4,1.4-0.4c1,0,1.7,0.4,2.1,1.2c0.4,0.8,0.6,2.2,0.6,4.4
		v7.2h-1.9v-7.1c0-1.8-0.1-2.8-0.3-3.3c-0.2-0.4-0.6-0.6-1.1-0.6c-0.6,0-1,0.2-1.2,0.7c-0.2,0.5-0.3,1.5-0.3,3.2v7.1h-1.9v-7.1
		c0-1.8-0.1-2.9-0.3-3.3c-0.2-0.4-0.6-0.6-1.1-0.6c-0.5,0-0.9,0.2-1.1,0.7c-0.2,0.5-0.3,1.5-0.3,3.2v7.1H477v-12.5h1.9v1.1
		c0.2-0.4,0.6-0.8,0.9-1c0.4-0.2,0.8-0.3,1.3-0.3c0.6,0,1,0.1,1.4,0.4C482.9,339.7,483.1,340.1,483.4,340.7z"/>
	<path fill="#E6DB74" d="M497.1,347.4H495v-1.7c0-0.7,0.1-1.3,0.3-1.9c0.2-0.5,0.7-1.1,1.3-1.7l1-1c0.5-0.4,0.8-0.8,1-1.1
		c0.2-0.3,0.3-0.7,0.3-1c0-0.7-0.2-1.2-0.7-1.6c-0.5-0.4-1.1-0.6-1.9-0.6c-0.6,0-1.2,0.1-1.9,0.4s-1.4,0.6-2.1,1.1v-2.1
		c0.7-0.4,1.4-0.7,2.1-0.9c0.7-0.2,1.4-0.3,2.2-0.3c1.4,0,2.5,0.4,3.3,1.1s1.2,1.7,1.2,2.9c0,0.6-0.1,1.1-0.4,1.6
		c-0.2,0.5-0.7,1.1-1.4,1.8l-1,1c-0.5,0.5-0.8,0.9-1,1.2c-0.1,0.3-0.2,0.7-0.2,1.1v0.5V347.4z M495,349h2.3v2.8H495V349z"/>
	<path fill="#E6DB74" d="M507.8,334.6v6.8h-2.5v-6.8H507.8z M513.8,334.6v6.8h-2.5v-6.8H513.8z"/>
	<path fill="#FFFFFF" d="M520.8,333.5h1.8c1.1,1.7,2,3.5,2.5,5.1c0.5,1.7,0.8,3.3,0.8,5c0,1.7-0.3,3.3-0.8,5
		c-0.5,1.7-1.4,3.4-2.5,5.1h-1.8c1-1.7,1.7-3.4,2.2-5.1s0.7-3.4,0.7-5c0-1.7-0.2-3.4-0.7-5.1S521.8,335.1,520.8,333.5z"/>
	<path fill="#FFFFFF" d="M535.6,347.8h3.5v2.9l-2.2,4.2h-2.4l1.1-4.2V347.8z M535.4,339.4h3.5v4h-3.5V339.4z"/>
	<path fill="#FFFFFF" d="M68,379.7c1,0,1.7-0.2,2-0.5c0.3-0.3,0.5-1,0.5-2.1v-2.3c0-1.3,0.3-2.1,0.8-2.6c0.5-0.5,1.5-0.8,3-1
		c-1.5-0.2-2.5-0.5-3-1s-0.8-1.3-0.8-2.6v-3c0-1.1-0.2-1.7-0.5-2.1s-1-0.5-2-0.5h-0.8v-1.6H68c1.8,0,3.1,0.3,3.7,0.8
		s0.9,1.6,0.9,3.3v2.9c0,1,0.2,1.7,0.6,2.2c0.4,0.5,1.1,0.7,2.2,0.7h1.4v1.6h-1.4c-1,0-1.7,0.3-2.1,0.9c-0.5,0.6-0.7,1.3-0.7,2.1
		v2.2c0,1.6-0.3,2.7-0.9,3.3c-0.6,0.5-1.9,0.8-3.7,0.8h-0.7v-1.6H68z"/>
</g>
</svg>
