<?xml version="1.0" encoding="utf-8"?>
<!-- Generator: Adobe Illustrator 18.0.0, SVG Export Plug-In . SVG Version: 6.00 Build 0)  -->
<!DOCTYPE svg PUBLIC "-//W3C//DTD SVG 1.1//EN" "http://www.w3.org/Graphics/SVG/1.1/DTD/svg11.dtd">
<svg version="1.1" id="Layer_2" xmlns="http://www.w3.org/2000/svg" xmlns:xlink="http://www.w3.org/1999/xlink" x="0px" y="0px"
	 viewBox="0 0 700 1031" enable-background="new 0 0 700 1031" xml:space="preserve">
<g>
	<g>
		<path fill="#363636" d="M116-1.2c-11.3,0.5-22.9,6.8-31.9,13.1c-28.5,20-45.1,53.8-56.2,85.6c-0.1,0.4,0.2,0.6,0.5,0.7
			c8.3,2.7,16.7,5.3,25,8c1.1,0.3,4.9-0.2,5.2-1.6c1.3-5.7,2.5-11.3,3.8-17c-1.9,0.4-3.8,0.8-5.8,1.3c-1.3,24.7-3.1,50-1.5,74.7
			c0.1,2-0.1,6.4,1.9,7.6c5.1,3,10.3,6,15.6,8.8c7.2,3.9,14.4,7.8,22.1,10.7c4.5,1.7,8.7,1.5,13.4,1.5c19.6,0,39.3,0,58.9,0
			c1.2,0,4.2-0.3,4.7-1.7c5.6-14.5,10.6-29.2,15.2-44.1c3.6-11.6,6.9-23.3,9.5-35.2c2.1-9.8,5.6-23.5,1.2-33
			c-1.9,0.6-3.7,1.2-5.6,1.8c3.2,1.7,6.3,3.3,9.5,5c1,0.5,6-0.2,5.6-1.8c-3.3-13.7-7.9-27.3-13.3-40.3c-6.7-16-17.1-39.3-35.7-44
			c-1.4-0.4-6.5,1.9-4.7,2.3c8.8,2.2,15.3,9.4,20.4,16.5c6.3,8.8,11,18.8,15.1,28.7c5.1,12.4,9.4,25.3,12.5,38.4
			c1.9-0.6,3.7-1.2,5.6-1.8c-3.2-1.7-6.3-3.3-9.5-5c-0.9-0.5-6.3,0.4-5.6,1.8c4.5,9.7,0.7,23.6-1.4,33.5c-2.5,11.9-6,23.6-9.6,35.3
			c-4.5,14.4-9.4,28.8-14.9,42.9c1.6-0.6,3.2-1.1,4.7-1.7c-12.1,0-24.3,0-36.4,0c-7.7,0-15.5,0-23.2,0c-5.2,0-9.1-0.3-14-2.3
			c-8.1-3.3-15.8-7.7-23.5-11.9c-2.8-1.6-5.6-3.2-8.4-4.8c-0.8-0.5-2.5-1.1-3.1-1.8c-2-2.6-1.3-8.7-1.4-11.7
			c-0.3-7.4-0.2-14.9,0-22.3c0.3-15.9,0.9-31.9,1.8-47.8c0.1-1-5.5-0.1-5.8,1.3c-1.3,5.7-2.5,11.3-3.8,17c1.7-0.5,3.5-1.1,5.2-1.6
			c-5.4-1.7-10.8-3.5-16.2-5.2c-2.7-0.9-5.4-1.7-8.1-2.6c-1-0.3,1.2-3.5,1.6-4.7c1.2-3.3,2.5-6.6,3.8-9.8c8.2-20.2,19-39.8,34-55.9
			c8.2-8.8,17.9-16.6,29-21.3c2.5-1.1,6.2-2.3,8.3-2.7c0.5-0.1,2.8-0.5,2-0.4c0.3,0,0.6-0.1,0.9-0.1C115.1,1.1,119.9-1.4,116-1.2
			L116-1.2z"/>
	</g>
</g>
<g>
	<g>
		<path fill="#363636" d="M37.2,106.8c-4.9,48-9.8,96.1-14.7,144.1c-0.2,2-0.4,3.9-0.6,5.9c1.8-0.6,3.5-1.3,5.3-1.9
			c-4-1.2-8-2.4-12-3.6c-3.5-1.1-8.4-3.7-12.2-3.4c-6.2,0.5-7.2,6.3-2.9,10.2c4.9,4.5,10.5,8.3,15.9,12.1c4.8,3.4,13,2.4,18.1,0.1
			c5.1-2.4,7.7-6.6,8.6-12.1c0.7-4.4,0.2-9-0.1-13.4c-0.1-1.7-0.6-4.7-0.3-6.1c-1.9,0.4-3.8,0.9-5.8,1.3c0.8,1.9,0.4,4.9,0.6,6.9
			c0.1,1.1,5.7,0,5.8-1.6c1.9-46.3,3.8-92.6,5.6-138.9c0-0.4,0-0.7,0-1.1c0-0.9-5.7-0.2-5.8,1.6c-1.9,46.3-3.8,92.6-5.6,138.9
			c0,0.4,0,0.7,0,1.1c1.9-0.5,3.9-1,5.8-1.6c-0.1-2,0.2-5.1-0.6-6.9c-0.5-1.3-5.5,0.1-5.8,1.3c-0.3,1.7,0.1,3.7,0.1,5.5
			c0.3,5.4,0.9,10.9-0.2,16.2c-1.3,5.8-5.2,9.1-11.1,8.3c-3.6-0.5-4.9-2-8.2-4.4c-3.3-2.4-18.8-11.5-12.9-16.3
			c-1.7,0.4-3.3,0.9-5,1.3c7.7,2.3,15.3,4.7,23,7c1.2,0.4,5.1-0.3,5.3-1.9c4.9-48,9.8-96.1,14.7-144.1c0.2-2,0.4-3.9,0.6-5.9
			C43.1,104.4,37.4,105,37.2,106.8L37.2,106.8z"/>
	</g>
</g>
<g>
	<g>
		<path fill="#363636" d="M200.4,95.8c-0.9,20.6-1.6,41.3-2.1,62c-0.7,27.8-2.5,56.3,0.2,84c0.2,2.2,0.2,7.3,3,8
			c-0.4-0.5-0.8-0.9-1.2-1.4c-0.8,4.2-0.2,9.4,3,12.5c9.4,8.7,28-3,36.1-7.8c0.6-0.4,1.2-1.1,1.1-1.8c-3.1-13.4-17-14.7-28-10.6
			c1.4,0.2,2.7,0.4,4.1,0.6c-3-48.4-6.1-96.9-9.1-145.3c-0.1-2.2-0.3-4.5-0.4-6.7c-0.1-2.2-5.9-0.9-5.8,1.6
			c3,48.4,6.1,96.9,9.1,145.3c0.1,2.2,0.3,4.5,0.4,6.7c0.1,1.7,3.3,0.9,4.1,0.6c8.7-3.3,17.6-0.2,19.8,9.4c0.4-0.6,0.7-1.2,1.1-1.8
			c-5.8,3.4-22.1,14.4-28.2,6.2c-1.9-2.5-2-6.5-1.4-9.4c0.1-0.8-0.5-1.2-1.2-1.4c1,0.3,0.4,0.2,0-1.1c-0.4-1.5-0.6-3-0.7-4.6
			c-0.5-5-0.7-10-0.8-14.9c-0.4-14.9-0.2-29.8,0.1-44.6c0.5-27.1,1.3-54.1,2.4-81.2c0.1-1.6,0.1-3.1,0.2-4.7
			C206.3,92.5,200.5,93.6,200.4,95.8L200.4,95.8z"/>
	</g>
</g>
<g>
	<g>
		<path fill="#363636" d="M71.9,191.8c2,35.3,4,70.7,6,106c0,0.5,0.8,0.7,1.1,0.9c5.3,1.7,10.7,3.3,16,5c1.1,0.4,4.7-0.3,4.7-2
			c0-29,0-58,0-87c-1.3,0.7-2.7,1.4-4,2.1c15,0.7,30,1.3,45,2c-0.6-0.3-1.2-0.6-1.8-0.9c2.2,30.7,4.4,61.3,6.6,92
			c0.1,0.7,1.3,0.9,1.8,0.9c6.9,0,13.7,0,20.6,0c1.3,0,4.2-0.7,4-2.5c-4.4-37.7-8.7-75.3-13.1-113c-0.2-2.1-6.1-0.7-5.8,1.6
			c4.4,37.7,8.7,75.3,13.1,113c1.3-0.8,2.7-1.7,4-2.5c-6.9,0-13.7,0-20.6,0c0.6,0.3,1.2,0.6,1.8,0.9c-2.2-30.7-4.4-61.3-6.6-92
			c-0.1-0.7-1.3-0.9-1.8-0.9c-15-0.7-30-1.3-45-2c-1,0-4,0.6-4,2.1c0,29,0,58,0,87c1.6-0.7,3.1-1.3,4.7-2
			c-5.1-1.6-10.3-3.2-15.4-4.8c-1.3-0.4,0.5,0.7,0.5,0.6c0-0.3,0-0.6,0-0.9c-0.1-1.3-0.2-2.7-0.2-4c-0.7-11.7-1.3-23.5-2-35.2
			c-1.2-21.9-2.5-43.9-3.7-65.8C77.6,188.2,71.7,189.4,71.9,191.8L71.9,191.8z"/>
	</g>
</g>
<g>
	<g>
		<path fill="#363636" d="M77.9,309.3c0,4.2,0,8.4,0,12.6c0,0.3-1.8,2.8-2.6,4c-1.1,1.6-2.2,3.3-3.3,4.9c-0.3,0.5-0.2,1,0.1,1.4
			c4.5,6.8,10.6,12.9,17.5,17.2c4.8,3,10.2,4.5,15.8,4.2c2.9-0.2,5.8-1.2,8.4-2.5c1.7-0.9,6.3-3.2,6.6-5.4c0.3-1.8-0.8-4.5-1.3-6.2
			c-1.1-4.2-2.8-8.2-5.1-12c-6.2-10.1-16.9-12-27.5-8c1.4,0.4,2.8,0.8,4.1,1.2c0-5.7,0-11.3,0-17c0-2.8-5.8-1.7-5.8,0.6
			c0,5.7,0,11.3,0,17c0,2.1,2.9,1.7,4.1,1.2c12.4-4.7,20.1,5.4,23.6,16.1c0.9,2.6,1.5,5.3,2,8c0,0.3-6.4,3-7.6,3.2
			c-3.5,0.6-7.1-0.5-10.3-2c-5.3-2.5-9.7-6.6-13.6-10.9c-1.4-1.5-2.7-3.1-4-4.8c-0.4-0.5-0.8-1.1-1.2-1.7c-0.8-1.1,0.2-0.1-0.3,0.7
			c1.2-1.9,2.5-3.7,3.7-5.6c0.6-0.9,2.4-2.7,2.4-3.9c0-4.3,0-8.6,0-12.9C83.7,305.9,77.9,307,77.9,309.3L77.9,309.3z"/>
	</g>
</g>
<g>
	<g>
		<path fill="#363636" d="M153.1,313.9c-3.7,4.6-7.4,9.3-11,13.9c-0.3,0.3-0.3,1,0,1.3c5.2,4.2,11.1,7.5,17.3,9.8
			c4.4,1.6,9,2.2,13.6,1.7c2.9-0.3,8.9-1.7,10.5-4.6c2-3.7,3.6-8,3.1-12.3c-0.9-8.3-13.2-5.7-18.2-4.4c0.9,0,1.8,0.1,2.7,0.1
			c-4.4-2.3-8.7-4.7-13.1-7c-1.8-1-7.1,1.6-4.6,3c3.4,1.8,6.8,3.6,10.2,5.4c1.1,0.6,2.2,1.5,3.4,1.8c2.7,0.7,6.1-1.2,8.9-1.2
			c7.9-0.1,4.3,10,2.2,14c-0.6,1.2-4.1,1.6-5.6,1.8c-3.3,0.3-6.7-0.7-9.7-1.7c-4.9-1.7-9.6-4.5-13.8-7.5c-0.5-0.3-0.9-0.7-1.4-1
			c-0.8-0.6-0.5,1.4-0.1,0.8c1.1-1.4,2.2-2.7,3.2-4.1c2.5-3.2,5.1-6.4,7.6-9.6C160.2,312,154.3,312.3,153.1,313.9z"/>
	</g>
</g>
<g>
	<g>
		<path fill="#363636" d="M24.7,237.6c-4.3-0.8-8.8-1.4-13.2-1.1c-2.5,0.2-6.3,0.7-7.6,3.2c-1.2,2.4,2.6,5.2,4.1,6.4
			c1.5,1.2,6.7-1.1,5.4-2.2c-1.1-0.9-4.3-3-3.9-4.8c0-0.2-0.1,0-0.2,0.1c-0.5,0.3-0.7,0.2-0.4,0.2c0.7-0.1,1.7-0.1,2.7-0.1
			c3.1,0,6.3,0.5,9.3,1.1c1.3,0.3,3.1-0.3,4.1-1.1C26.1,238.6,25.8,237.8,24.7,237.6L24.7,237.6z"/>
	</g>
</g>
<g>
	<g>
		<path fill="#363636" d="M213.6,232.2c3.7,0,7.3,0,11,0c-0.9-0.7-1.8-1.4-2.7-2.1c0,2.6,0,5.2,0,7.9c0,3.2,5.9,2.4,5.9-0.4
			c0-2.6,0-5.2,0-7.9c0-1.5-1.4-2.1-2.7-2.1c-3.7,0-7.3,0-11,0C210.6,227.8,209.6,232.2,213.6,232.2L213.6,232.2z"/>
	</g>
</g>
</svg>
