<?xml version="1.0" encoding="utf-8"?>
<!-- Generator: Adobe Illustrator 18.0.0, SVG Export Plug-In . SVG Version: 6.00 Build 0)  -->
<!DOCTYPE svg PUBLIC "-//W3C//DTD SVG 1.1//EN" "http://www.w3.org/Graphics/SVG/1.1/DTD/svg11.dtd">
<svg version="1.1" id="Layer_1" xmlns="http://www.w3.org/2000/svg" xmlns:xlink="http://www.w3.org/1999/xlink" x="0px" y="0px"
	 viewBox="0 0 1800 475" enable-background="new 0 0 1800 475" xml:space="preserve">
<g>
	<g>
		<g>
			<path fill="#363636" d="M883.6-53.7c-16.3,0.7-33.1,9.8-46.1,18.9c-41.2,28.9-65.2,77.7-81.2,123.7c-0.1,0.6,0.3,0.9,0.7,1
				c12,3.9,24.1,7.7,36.1,11.6c1.6,0.4,7.1-0.3,7.5-2.3c1.9-8.2,3.6-16.3,5.5-24.6c-2.7,0.6-5.5,1.2-8.4,1.9
				c-1.9,35.7-4.5,72.2-2.2,107.9c0.1,2.9-0.1,9.2,2.7,11c7.4,4.3,14.9,8.7,22.5,12.7c10.4,5.6,20.8,11.3,31.9,15.5
				c6.5,2.5,12.6,2.2,19.4,2.2c28.3,0,56.8,0,85.1,0c1.7,0,6.1-0.4,6.8-2.5c8.1-20.9,15.3-42.2,22-63.7c5.2-16.8,10-33.7,13.7-50.9
				c3-14.2,8.1-34,1.7-47.7c-2.7,0.9-5.3,1.7-8.1,2.6c4.6,2.5,9.1,4.8,13.7,7.2c1.4,0.7,8.7-0.3,8.1-2.6
				c-4.8-19.8-11.4-39.4-19.2-58.2c-9.7-23.1-24.7-56.8-51.6-63.6c-2-0.6-9.4,2.7-6.8,3.3c12.7,3.2,22.1,13.6,29.5,23.8
				c9.1,12.7,15.9,27.2,21.8,41.5c7.4,17.9,13.6,36.6,18.1,55.5c2.7-0.9,5.3-1.7,8.1-2.6c-4.6-2.5-9.1-4.8-13.7-7.2
				c-1.3-0.7-9.1,0.6-8.1,2.6c6.5,14,1,34.1-2,48.4c-3.6,17.2-8.7,34.1-13.9,51c-6.5,20.8-13.6,41.6-21.5,62
				c2.3-0.9,4.6-1.6,6.8-2.5c-17.5,0-35.1,0-52.6,0c-11.1,0-22.4,0-33.5,0c-7.5,0-13.1-0.4-20.2-3.3c-11.7-4.8-22.8-11.1-34-17.2
				c-4-2.3-8.1-4.6-12.1-6.9c-1.2-0.7-3.6-1.6-4.5-2.6c-2.9-3.8-1.9-12.6-2-16.9c-0.4-10.7-0.3-21.5,0-32.2
				c0.4-23,1.3-46.1,2.6-69.1c0.1-1.4-7.9-0.1-8.4,1.9c-1.9,8.2-3.6,16.3-5.5,24.6c2.5-0.7,5.1-1.6,7.5-2.3
				c-7.8-2.5-15.6-5.1-23.4-7.5c-3.9-1.3-7.8-2.5-11.7-3.8c-1.4-0.4,1.7-5.1,2.3-6.8c1.7-4.8,3.6-9.5,5.5-14.2
				c11.8-29.2,27.4-57.5,49.1-80.8c11.8-12.7,25.9-24,41.9-30.8c3.6-1.6,9-3.3,12-3.9c0.7-0.1,4-0.7,2.9-0.6c0.4,0,0.9-0.1,1.3-0.1
				C882.3-50.4,889.3-54,883.6-53.7L883.6-53.7z"/>
		</g>
	</g>
	<g>
		<g>
			<path fill="#363636" d="M769.8,102.3c-7.1,69.3-14.2,138.8-21.2,208.2c-0.3,2.9-0.6,5.6-0.9,8.5c2.6-0.9,5.1-1.9,7.7-2.7
				c-5.8-1.7-11.6-3.5-17.3-5.2c-5.1-1.6-12.1-5.3-17.6-4.9c-9,0.7-10.4,9.1-4.2,14.7c7.1,6.5,15.2,12,23,17.5
				c6.9,4.9,18.8,3.5,26.1,0.1c7.4-3.5,11.1-9.5,12.4-17.5c1-6.4,0.3-13-0.1-19.4c-0.1-2.5-0.9-6.8-0.4-8.8
				c-2.7,0.6-5.5,1.3-8.4,1.9c1.2,2.7,0.6,7.1,0.9,10c0.1,1.6,8.2,0,8.4-2.3c2.7-66.9,5.5-133.8,8.1-200.7c0-0.6,0-1,0-1.6
				c0-1.3-8.2-0.3-8.4,2.3c-2.7,66.9-5.5,133.8-8.1,200.7c0,0.6,0,1,0,1.6c2.7-0.7,5.6-1.4,8.4-2.3c-0.1-2.9,0.3-7.4-0.9-10
				c-0.7-1.9-7.9,0.1-8.4,1.9c-0.4,2.5,0.1,5.3,0.1,7.9c0.4,7.8,1.3,15.7-0.3,23.4c-1.9,8.4-7.5,13.1-16,12
				c-5.2-0.7-7.1-2.9-11.8-6.4c-4.8-3.5-27.2-16.6-18.6-23.5c-2.5,0.6-4.8,1.3-7.2,1.9c11.1,3.3,22.1,6.8,33.2,10.1
				c1.7,0.6,7.4-0.4,7.7-2.7c7.1-69.3,14.2-138.8,21.2-208.2c0.3-2.9,0.6-5.6,0.9-8.5C778.3,98.8,770.1,99.7,769.8,102.3
				L769.8,102.3z"/>
		</g>
	</g>
	<g>
		<g>
			<path fill="#363636" d="M1005.6,86.4c-1.3,29.8-2.3,59.7-3,89.6c-1,40.2-3.6,81.3,0.3,121.4c0.3,3.2,0.3,10.5,4.3,11.6
				c-0.6-0.7-1.2-1.3-1.7-2c-1.2,6.1-0.3,13.6,4.3,18.1c13.6,12.6,40.5-4.3,52.2-11.3c0.9-0.6,1.7-1.6,1.6-2.6
				c-4.5-19.4-24.6-21.2-40.5-15.3c2,0.3,3.9,0.6,5.9,0.9c-4.3-69.9-8.8-140-13.1-209.9c-0.1-3.2-0.4-6.5-0.6-9.7
				c-0.1-3.2-8.5-1.3-8.4,2.3c4.3,69.9,8.8,140,13.1,209.9c0.1,3.2,0.4,6.5,0.6,9.7c0.1,2.5,4.8,1.3,5.9,0.9
				c12.6-4.8,25.4-0.3,28.6,13.6c0.6-0.9,1-1.7,1.6-2.6c-8.4,4.9-31.9,20.8-40.7,9c-2.7-3.6-2.9-9.4-2-13.6c0.1-1.2-0.7-1.7-1.7-2
				c1.4,0.4,0.6,0.3,0-1.6c-0.6-2.2-0.9-4.3-1-6.6c-0.7-7.2-1-14.4-1.2-21.5c-0.6-21.5-0.3-43.1,0.1-64.4
				c0.7-39.2,1.9-78.2,3.5-117.3c0.1-2.3,0.1-4.5,0.3-6.8C1014.1,81.7,1005.7,83.2,1005.6,86.4L1005.6,86.4z"/>
		</g>
	</g>
	<g>
		<g>
			<path fill="#363636" d="M819.9,225.1c2.9,51,5.8,102.1,8.7,153.1c0,0.7,1.2,1,1.6,1.3c7.7,2.5,15.5,4.8,23.1,7.2
				c1.6,0.6,6.8-0.4,6.8-2.9c0-41.9,0-83.8,0-125.7c-1.9,1-3.9,2-5.8,3c21.7,1,43.3,1.9,65,2.9c-0.9-0.4-1.7-0.9-2.6-1.3
				c3.2,44.4,6.4,88.6,9.5,132.9c0.1,1,1.9,1.3,2.6,1.3c10,0,19.8,0,29.8,0c1.9,0,6.1-1,5.8-3.6c-6.4-54.5-12.6-108.8-18.9-163.3
				c-0.3-3-8.8-1-8.4,2.3c6.4,54.5,12.6,108.8,18.9,163.3c1.9-1.2,3.9-2.5,5.8-3.6c-10,0-19.8,0-29.8,0c0.9,0.4,1.7,0.9,2.6,1.3
				c-3.2-44.4-6.4-88.6-9.5-132.9c-0.1-1-1.9-1.3-2.6-1.3c-21.7-1-43.3-1.9-65-2.9c-1.4,0-5.8,0.9-5.8,3c0,41.9,0,83.8,0,125.7
				c2.3-1,4.5-1.9,6.8-2.9c-7.4-2.3-14.9-4.6-22.2-6.9c-1.9-0.6,0.7,1,0.7,0.9c0-0.4,0-0.9,0-1.3c-0.1-1.9-0.3-3.9-0.3-5.8
				c-1-16.9-1.9-34-2.9-50.9c-1.7-31.6-3.6-63.4-5.3-95.1C828.1,219.9,819.6,221.7,819.9,225.1L819.9,225.1z"/>
		</g>
	</g>
	<g>
		<g>
			<path fill="#363636" d="M828.6,394.9c0,6.1,0,12.1,0,18.2c0,0.4-2.6,4-3.8,5.8c-1.6,2.3-3.2,4.8-4.8,7.1c-0.4,0.7-0.3,1.4,0.1,2
				c6.5,9.8,15.3,18.6,25.3,24.8c6.9,4.3,14.7,6.5,22.8,6.1c4.2-0.3,8.4-1.7,12.1-3.6c2.5-1.3,9.1-4.6,9.5-7.8
				c0.4-2.6-1.2-6.5-1.9-9c-1.6-6.1-4-11.8-7.4-17.3c-9-14.6-24.4-17.3-39.7-11.6c2,0.6,4,1.2,5.9,1.7c0-8.2,0-16.3,0-24.6
				c0-4-8.4-2.5-8.4,0.9c0,8.2,0,16.3,0,24.6c0,3,4.2,2.5,5.9,1.7c17.9-6.8,29,7.8,34.1,23.3c1.3,3.8,2.2,7.7,2.9,11.6
				c0,0.4-9.2,4.3-11,4.6c-5.1,0.9-10.3-0.7-14.9-2.9c-7.7-3.6-14-9.5-19.6-15.7c-2-2.2-3.9-4.5-5.8-6.9c-0.6-0.7-1.2-1.6-1.7-2.5
				c-1.2-1.6,0.3-0.1-0.4,1c1.7-2.7,3.6-5.3,5.3-8.1c0.9-1.3,3.5-3.9,3.5-5.6c0-6.2,0-12.4,0-18.6C837,390,828.6,391.5,828.6,394.9
				L828.6,394.9z"/>
		</g>
	</g>
	<g>
		<g>
			<path fill="#363636" d="M937.2,401.5c-5.3,6.6-10.7,13.4-15.9,20.1c-0.4,0.4-0.4,1.4,0,1.9c7.5,6.1,16,10.8,25,14.2
				c6.4,2.3,13,3.2,19.6,2.5c4.2-0.4,12.9-2.5,15.2-6.6c2.9-5.3,5.2-11.6,4.5-17.8c-1.3-12-19.1-8.2-26.3-6.4c1.3,0,2.6,0.1,3.9,0.1
				c-6.4-3.3-12.6-6.8-18.9-10.1c-2.6-1.4-10.3,2.3-6.6,4.3c4.9,2.6,9.8,5.2,14.7,7.8c1.6,0.9,3.2,2.2,4.9,2.6
				c3.9,1,8.8-1.7,12.9-1.7c11.4-0.1,6.2,14.4,3.2,20.2c-0.9,1.7-5.9,2.3-8.1,2.6c-4.8,0.4-9.7-1-14-2.5
				c-7.1-2.5-13.9-6.5-19.9-10.8c-0.7-0.4-1.3-1-2-1.4c-1.2-0.9-0.7,2-0.1,1.2c1.6-2,3.2-3.9,4.6-5.9c3.6-4.6,7.4-9.2,11-13.9
				C947.5,398.8,938.9,399.2,937.2,401.5z"/>
		</g>
	</g>
	<g>
		<g>
			<path fill="#363636" d="M751.7,291.3c-6.2-1.2-12.7-2-19.1-1.6c-3.6,0.3-9.1,1-11,4.6c-1.7,3.5,3.8,7.5,5.9,9.2
				c2.2,1.7,9.7-1.6,7.8-3.2c-1.6-1.3-6.2-4.3-5.6-6.9c0-0.3-0.1,0-0.3,0.1c-0.7,0.4-1,0.3-0.6,0.3c1-0.1,2.5-0.1,3.9-0.1
				c4.5,0,9.1,0.7,13.4,1.6c1.9,0.4,4.5-0.4,5.9-1.6C753.7,292.7,753.3,291.6,751.7,291.3L751.7,291.3z"/>
		</g>
	</g>
	<g>
		<g>
			<path fill="#363636" d="M1024.6,283.5c5.3,0,10.5,0,15.9,0c-1.3-1-2.6-2-3.9-3c0,3.8,0,7.5,0,11.4c0,4.6,8.5,3.5,8.5-0.6
				c0-3.8,0-7.5,0-11.4c0-2.2-2-3-3.9-3c-5.3,0-10.5,0-15.9,0C1020.3,277.1,1018.8,283.5,1024.6,283.5L1024.6,283.5z"/>
		</g>
	</g>
</g>
</svg>
