<?xml version="1.0" encoding="utf-8"?>
<!-- Generator: Adobe Illustrator 18.0.0, SVG Export Plug-In . SVG Version: 6.00 Build 0)  -->
<!DOCTYPE svg PUBLIC "-//W3C//DTD SVG 1.1//EN" "http://www.w3.org/Graphics/SVG/1.1/DTD/svg11.dtd">
<svg version="1.1" id="Layer_1" xmlns="http://www.w3.org/2000/svg" xmlns:xlink="http://www.w3.org/1999/xlink" x="0px" y="0px"
	 viewBox="0 0 1800 475" enable-background="new 0 0 1800 475" xml:space="preserve">
<g>
	<path d="M767.8,115.2"/>
	<g>
		<path fill="#363636" d="M765.3,116.9c1.7,0,9.5-3.4,5.5-3.4C768.8,113.5,761.1,116.9,765.3,116.9L765.3,116.9z"/>
	</g>
</g>
<g>
	<g>
		<path fill="#363636" d="M776.3,169.3c1.3-12.6,2-25.3,2.2-38c0.1-7.5,2.4-32.3-9.2-33.2c0.9,0.7,1.7,1.6,2.7,2.3
			c0-2.9,0-5.7,0-8.5c0-3.3,0.6-3.6,2.9-6.7c0.9-1.1,5-5.3,4.3-7c-1-2.4-2-4.9-3-7.3c-1.3-3-2.4-5.9-3.7-8.9c-0.9-2-1.1,1-0.9,0.7
			c0.9-1.1,1.7-2.2,2.4-3.3c3.9-5,7.8-10.1,11.6-15.1c0.7-0.9,1.3-2.3-0.1-3c-11.5-6.2-23-12.5-34.5-18.7c-0.6,1.4-1,2.9-1.6,4.3
			c5.7-2.4,11.5-4.7,17.2-7.2c1.7-0.7,3.6-2.9,1.6-4.3c-11.1-8.2-22-16.2-33-24.4c-0.1,1.3-0.4,2.6-0.6,3.7
			c4.7-3.9,9.6-7.6,14.4-11.5c-1.7,0.3-3.4,0.6-5.2,1C764-11,784.1-6.1,804.2-1.4c1.6,0.4,9.2-1.7,6.3-4.3
			c-8.6-7.6-17.2-15.4-25.8-23c-1.7,1.4-3.6,3-5.3,4.5c8.2,0,16.2,0,24.4,0c4.6,0,9,0,13.6,0c3,0,0.4-0.4,3.4,0.6
			c16.1,5.5,32,11.1,48.1,16.5c1.7,0.6,6.6-0.4,6.6-3c0-5.7,0-11.5,0-17.2c-1.9,1-3.9,2-5.7,3.2c4.2,0,8.3,0,12.5,0
			c2,0,3.9,0.7,1.7-0.4c1,0.6,2,1,3,1.6c9.2,4.9,18.4,9.8,27.6,14.5c12.2,6.5,24.6,12.6,36.9,18.8c10.1,4.9,20.1,9.8,30.2,14.6
			c5.5,2.7,8.9,3.6,11.3,7.2c5.9,8.6,11.8,17.4,17.7,26c3.6,5.3,4.3,6.2,6.3,11.8c4.9,14.5,9.9,28.9,14.8,43.4
			c1.9,5.5,3.7,11.1,5.6,16.5c1.1,3.4,0.7,6.9,0.7,11.5c0,2.9,4.2,2.4,5.9,1.7c4.6-2,9.2-4.2,13.6-6.2c3.3-1.4,6.5-2.9,9.8-4.5
			c1.1-0.6,2.3-1,3.4-1.6c2.3-1,2.3-0.1-1.3-0.1c3,0,6,0,8.9,0c1.1,0,2.4,0,3.6,0c-2,0-2.6-1.4-0.7,0.4c2.3,2.3,4.7,4.7,7,7
			c1,1,2.2,2.2,3.2,3.2c1.6,1.6,1,0.7,1,0.6c0,5.9,0,11.8,0,17.7c0,1.4,2.7-2.2,0.7-1c-1,0.6-1.9,1-2.9,1.6c-3.4,2-6.9,3.9-10.3,5.9
			c-3,1.7-8.8,3.6-10.6,6.9c-2.7,5.2-5.6,10.2-8.3,15.4c1.9-0.9,3.6-1.6,5.5-2.4c-7.6,0-15.4,0-23,0c-1.6,0-5.7,0.7-5.7,3.2
			c0,16.2,0,32.4,0,48.8c0,12.5,1,23.7-8.5,33.7c-8.2,8.8-22.3,13.4-33.2,17.5c-13.1,5-26.7,9.2-40.5,11.2c-6.7,1-13.6,0.1-20.4,0
			c-23.3-0.9-46.5-1.9-69.6-4.5c-14.1-1.7-28.4-3.9-42.2-8.2c-4.9-1.6-9.8-3.4-13.9-6.5c-5.3-3.7-7.5-10.9-10.6-16.4
			c-11.2-19.7-28-40.2-27.3-64.2C772,190.3,774.7,179.7,776.3,169.3c0.6-3.7-7.9-2.4-8.3,0.9c-0.9,5.9-1.9,11.6-2.7,17.5
			c-1.3,8.3-2.6,16.1-1.3,24.6c1.4,9.2,5.6,17.9,9.9,26.3c4,7.6,8.5,14.9,12.9,22.3c4,6.6,7,13.9,11.3,20.2
			c4,6.2,12.6,9.2,19.2,11.3c22.8,7.8,48.1,9.3,71.8,11.1c18.4,1.3,36.9,1.3,55.1,2.7c16.5,1.3,35-5.6,50.4-11.1
			c16.5-5.9,36.8-12.8,46.7-28.3c7.9-12.3,4.9-26.3,4.9-38.8c0-13.2,0-26.6,0-39.8c-1.9,1-3.9,2-5.7,3.2c7.6,0,15.4,0,23,0
			c1.9,0,4.5-0.6,5.5-2.4c1.7-3.3,3.6-6.5,5.3-9.8c1-1.9,2-3.7,3-5.6c0.7-1.4-1.7,1.3-0.7,0.6c0.6-0.3,1-0.6,1.6-0.9
			c7-3.9,14.1-7.9,21.1-11.8c0.6-0.3,1.6-1.3,1.6-2c0-3.6,0-7.2,0-10.8c0-1.9,1.1-7.8-0.4-9.3c-3-3-6.2-6.2-9.2-9.2
			c-2-2-3.7-4.6-6.6-4.6c-7.9,0-13.6-0.3-20.7,3c-7.8,3.6-15.6,7-23.4,10.6c2,0.6,4,1.1,5.9,1.7c0-6.2,0-10.5-1.9-16.1
			c-3.3-9.6-6.6-19.4-9.9-29c-4.6-13.5-7.6-28-15.6-39.8c-5.9-8.8-11.9-17.5-17.8-26.3c-2.9-4.3-5.5-5.2-10.2-7.6
			c-17.1-8.3-34.2-16.7-51.1-25c-11.3-5.6-22.4-11.9-33.6-17.8c-5.2-2.7-10.3-5.5-15.5-8.2c-4.5-2.3-12.8-0.6-17.7-0.6
			c-1.6,0-5.7,0.7-5.7,3.2c0,5.7,0,11.5,0,17.2c2.2-1,4.5-2,6.6-3c-16.2-5.9-32.3-11.3-48.2-16.9c-5.5-1.9-11.8-0.9-17.5-0.9
			c-8.6,0-17.2,0-25.8,0c-1.3,0-8,2-5.3,4.5c8.6,7.6,17.2,15.4,25.8,23c2.2-1.4,4.2-2.9,6.3-4.3c-15.5-3.7-31.2-7.5-46.7-11.1
			c-4.6-1.1-10.8-3.9-15.6-3.4c-3.2,0.3-5.7,3.3-8.2,5.2c-3.2,2.4-6.2,5-9.3,7.5c-1.3,1-2.3,2.6-0.6,3.7c11.1,8.2,22,16.2,33,24.4
			c0.6-1.4,1-2.9,1.6-4.3c-5.7,2.4-11.5,4.7-17.2,7.2c-1.4,0.6-3.9,3-1.6,4.3c11.5,6.2,23,12.5,34.5,18.7c0-1-0.1-2.2-0.1-3.2
			c-4.7,6.2-9.6,12.5-14.4,18.7c-0.4,0.6-1,1.3-0.7,2c1.4,3.3,2.7,6.6,4.2,9.9c0.7,1.9,1.6,3.7,2.3,5.6c1,2.6,1.3,0,0,1.7
			c-1.4,2-6.5,6.7-6.5,9.3c0,3.9,0,7.6,0,11.5c0,1.6,1.3,2.2,2.7,2.3c1.7,0.1,3,9.9,3.3,12.2c0.9,7.8,0.7,15.6,0.4,23.4
			c-0.3,10.3-1,20.7-2,30.9C767.6,174.1,776,172.6,776.3,169.3L776.3,169.3z"/>
	</g>
</g>
<g>
	<g>
		<path fill="#363636" d="M749.2,120.8c-9.2-1.6-19.2-1.4-28.1,1.9c-19.5,7.3-9.3,29.4-1.6,41.8c1.1,1.7,4.2,1.4,5.6,0.6
			c10.3-5,16.7,6.2,18.4,15.8c0.6,3.2,8.2,6.3,10.8,6.7c5.9,1.3,10.2-2.3,10.6-8.2c0.3-4.3-8.2-3.2-8.5,0.6c-0.1,2.4,2.4,2,0.7,1.4
			c-1.1-0.4-2.2-1.1-3.2-1.7c-3-2-2.2-2-3-5.3c-1.4-6-4.7-11.8-10.2-14.8c-5.9-3.2-13.5-2.4-19.4,0.4c1.9,0.1,3.7,0.4,5.6,0.6
			c-5.5-8.6-16.9-28.7-1.1-33.5c6.3-1.9,13.8-1.6,20.2-0.4C750.5,127.5,754.8,121.7,749.2,120.8L749.2,120.8z"/>
	</g>
</g>
<g>
	<g>
		<path fill="#363636" d="M872.7,135.3c-14.2-1.6-28.7-2.3-43.1-2.3c-16.9,0-42.4-0.6-55.7,12.1c-3.3,3.2-7,9.8-3.4,13.9
			c5.7,6.6,13.2,11.8,21,15.8c25.7,13.2,62.9,9.2,84.6-10.3c10.6-9.5,11.8-22.5-2.2-29c-3.3-1.6-9.6,3.3-4.9,5.5
			c10.3,4.7,7.8,14.5,0.6,20.8c-12.2,11.1-32.2,15.5-48.1,14.6c-13.2-0.7-25.7-6.3-36-14.4c-2.6-2-5-4.3-7.2-6.7
			c-1.3-1.4-0.4-3.4,0.4-5.3c3-6,12.9-7.6,18.8-8.8c10.3-2,21.1-2.3,31.6-2.3c13.6,0,27.4,0.7,40.9,2.2
			C873.8,141.6,878.4,135.9,872.7,135.3z"/>
	</g>
</g>
<g>
	<g>
		<path fill="#363636" d="M933.2,136.6c-4.7,11.5-11.6,30.2-3.7,41.6c3.9,5.6,16.7,7.9,22.4,9.5c13.9,4,28.4,5.9,42.8,4.2
			c8.6-1,17.7-3.4,23.8-9.5c10.1-9.8,22.7-27.9,7.3-38.9c-7.9-5.6-18.4-6.6-27.6-8.5c-13.1-2.6-26.3-4.2-39.6-4
			c-7.8,0.1-15.5,1.1-22.8,3.7c-5.6,1.9-0.4,3.9,3,2.6c19.1-6.6,41.3-0.4,60.4,2.9c9.8,1.7,24,4.9,25.6,16.7
			c1,7.2-4.3,14.5-8.6,19.8c-4.3,5.3-7.3,8.2-13.8,10.1c-14.1,4.2-30.2,1.1-43.9-2.6c-6.5-1.9-14.6-3.7-20.2-7.8
			c-6.3-4.6-3.7-16.7-2.6-22.7c1.3-6.2,3.3-12.3,5.6-18.2C942.3,133.3,934.1,134.1,933.2,136.6z"/>
	</g>
</g>
<g>
	<g>
		<path fill="#363636" d="M887.2,152.2c4,16.5,34.5,7.8,45.1,4.2c4.9-1.6,3.9-5.9-1.1-4.3c-8.3,2.7-32.4,10.6-35.6-2.2
			C894.8,146.9,886.4,149.2,887.2,152.2L887.2,152.2z"/>
	</g>
</g>
<g>
	<g>
		<path fill="#363636" d="M1055,169.3c1.7-9.9,7.3-29.6,20.1-28.3c3.9,0.4,8.6-5.3,2.9-5.9c-19.4-2-28.7,18.8-31.6,34.7
			C1045.8,174.2,1054.3,172.9,1055,169.3L1055,169.3z"/>
	</g>
</g>
<g>
	<g>
		<path fill="#363636" d="M734,147.6c5.2,3.6,11.8,5.9,17.2,1.3c0.4-0.3,0.7-0.7,1.1-1.1c0.3-0.3,0.7-0.7-0.3,0.1
			c-2.4,1.6-4.5,1.7-5.9,0.1c0,0.1,0.1,0.1,0.1,0.3c1,1.7,2.3,6.9,3.2,9.6c1.1,3.4,9.3,1.1,8.3-2.3c-1-3.3-1.9-6.7-3.3-9.8
			c-1.3-2.9-4.2-3-6.7-1.9c-0.9,0.3-1.6,1-2.2,1.7c-0.1,0.1-0.3,0.4-0.4,0.6c-0.7,0.7,0,0-0.3,0.3c0.9-0.6,2.2-0.3,1-0.6
			c-1.9-0.4-3.6-1.7-5.2-2.9C737.7,141.2,730.2,145.1,734,147.6L734,147.6z"/>
	</g>
</g>
<g>
	<g>
		<path fill="#363636" d="M817.1,154.2c6.9-4.5,16.8-1.4,23,5c1.7,1.7,9.5-1.3,7.8-3c-10.1-10.2-25.6-10.1-37.3-2.6
			c-1.4,0.9-1,2,0.6,2.2C813.2,156,815.4,155.2,817.1,154.2L817.1,154.2z"/>
	</g>
</g>
<g>
	<g>
		<path fill="#363636" d="M970.3,163.6c6-5.5,14.4-9.3,21.2-3.4c2.9,2.4,10.1-1.7,6.5-4.9c-10.1-8.5-24.4-3.6-33.3,4.5
			C960.5,163.6,967.1,166.4,970.3,163.6L970.3,163.6z"/>
	</g>
</g>
<g>
	<g>
		<path fill="#363636" d="M880.7,224.3c3-0.7,9.3-1.4,11.5-4.2c0.3-0.3,0.6-0.9,0.1-1.3c-2.2-1.4-6.9,0-9.2,0.3
			c-3.7,0.6-7.5,1.1-11.1,1.9c-2.2,0.4-7.8,3.6-2.4,3.6c9.8,0,19.4,0,29,0c9,0,21.2-1.9,27.9,5.3c1.6,1.7,9.3-1.3,7.8-3
			c-6.7-7.5-19.4-6.2-28.6-6.2c-10.9,0-21.8,0-32.6,0c-0.9,1.1-1.6,2.4-2.4,3.6c3-0.6,6-1,9-1.6c2-0.3,3.9-0.7,5.9-0.9
			c1.3-0.1,1.7-2.9,0.3-2.4c-1.9,0.6-3.9,1-5.9,1.6C874.9,222.6,875.8,225.6,880.7,224.3L880.7,224.3z"/>
	</g>
</g>
<g>
	<g>
		<path fill="#363636" d="M844.8,260.2c-2,0.3,1.3-0.1,1.9-0.3c2.3-0.3,4.6-0.6,6.9-0.9c8.2-1,16.4-1.6,24.7-1.7
			c22.1-0.7,45.9,1,66,11.2c3.2,1.6,10.5-2.7,6.5-4.7c-31.9-16.1-72.8-15.1-107.4-9C837.9,255.5,839.6,261.1,844.8,260.2
			L844.8,260.2z"/>
	</g>
</g>
<g>
	<g>
		<path fill="#363636" d="M876.1,303.8c-1.7,8.6-3.7,17.4-5.7,25.8c-1.6,6.7-3.4,13.5-5.5,20.1c-0.7,2.4-1.6,4.9-2.6,7.2
			c-0.4,1-0.9,2-1.4,3c-1.1,2-1.4,0.4,2.3-0.1c-1.3,0.1-7,2.4-3.9,4.2c9.6,5.3,19.1,10.5,28.7,15.8c1.9,1,6-0.1,7.2-1.9
			c7.3-11.5,14.2-23.3,20.4-35.5c4.2-8,8-16.4,10.6-25.1c1.3-4.6,3.2-11.8-0.9-15.6c-2-2-9.9,1.1-7.8,3.2c3.7,3.7,0.9,11.5-0.4,15.6
			c-2.7,8.9-7,17.4-11.3,25.7c-5.6,10.8-11.8,21.4-18.4,31.6c2.4-0.6,4.7-1.3,7.2-1.9c-9.6-5.3-19.1-10.5-28.7-15.8
			c-1.3,1.4-2.6,2.7-3.9,4.2c10.3-1.6,12.3-19.2,14.5-27.3c3-11.3,5.6-22.8,7.9-34.3C885,299.8,876.7,301.1,876.1,303.8L876.1,303.8
			z"/>
	</g>
</g>
<g>
	<g>
		<path fill="#363636" d="M854.4,360.4c-16.2,0.7-32.9,9.8-45.8,18.8c-40.9,28.7-64.8,77.2-80.7,122.9c-0.1,0.6,0.1,0.9,0.7,1
			c27,3.9,54.1,6.7,81.3,9c42.4,3.6,87.1,7.5,129.2,0c9.5-1.7,19.4-4.2,27.4-9.6c9.3-6.3,9.8-18.1,5.2-28c-2.7,0.9-5.3,1.7-8,2.6
			c4.6,2.4,9,4.7,13.6,7.2c1.4,0.7,8.6-0.3,8-2.6c-4.7-19.7-11.3-39.2-19.1-57.9c-9.6-23-24.6-56.4-51.3-63.2
			c-2-0.6-9.3,2.7-6.7,3.3c12.6,3.2,22,13.5,29.3,23.7c9,12.6,15.8,27,21.7,41.2c7.3,17.8,13.5,36.3,17.9,55.1
			c2.7-0.9,5.3-1.7,8-2.6c-4.6-2.4-9-4.7-13.6-7.2c-1.3-0.7-9,0.6-8,2.6c3.2,6.9,4.9,17.7-1.1,23.7c-4,4-10.1,5.7-15.4,7.2
			c-18.7,4.9-38.9,4.9-58,4.7c-42.8-0.1-85.7-4.2-128.2-9.3c-6.2-0.7-12.3-1.6-18.4-2.3c-1.7-0.3-3.4-0.4-5.2-0.7
			c-0.7-0.1-2.4-0.3-1.7-0.3c2.2,0.3,10.3-24.3,11.6-27.3c3.7-8.8,8-17.5,12.5-26c7.3-13.6,15.8-26.7,25.6-38.6
			c12.5-15.4,27.7-29,45.5-37.8c4.6-2.3,9.5-4.2,14.5-5.3c1.9-0.4,4.3-0.9,5.5-1h0.1C853.1,363.7,859.9,360.1,854.4,360.4
			L854.4,360.4z"/>
	</g>
</g>
<line fill="none" stroke="#363636" stroke-width="2" stroke-miterlimit="10" x1="798.7" y1="39.1" x2="828.9" y2="73.6"/>
<line fill="none" stroke="#363636" stroke-width="2" stroke-miterlimit="10" x1="843.9" y1="56.3" x2="862.6" y2="72.1"/>
<line fill="none" stroke="#363636" stroke-width="2" stroke-miterlimit="10" x1="911.6" y1="56.3" x2="931.7" y2="89.3"/>
<line fill="none" stroke="#363636" stroke-width="2" stroke-miterlimit="10" x1="880.3" y1="56.3" x2="895.6" y2="72.8"/>
<line fill="none" stroke="#363636" stroke-width="2" stroke-miterlimit="10" x1="975.6" y1="27.6" x2="1002.3" y2="72.8"/>
<line fill="none" stroke="#363636" stroke-width="2" stroke-miterlimit="10" x1="951.8" y1="56.3" x2="967.4" y2="80.7"/>
</svg>
