<?xml version="1.0" encoding="utf-8"?>
<!-- Generator: Adobe Illustrator 18.0.0, SVG Export Plug-In . SVG Version: 6.00 Build 0)  -->
<!DOCTYPE svg PUBLIC "-//W3C//DTD SVG 1.1//EN" "http://www.w3.org/Graphics/SVG/1.1/DTD/svg11.dtd">
<svg version="1.1" id="Layer_2" xmlns="http://www.w3.org/2000/svg" xmlns:xlink="http://www.w3.org/1999/xlink" x="0px" y="0px"
	 viewBox="0 0 700 969" enable-background="new 0 0 700 969" xml:space="preserve">
<g>
	<path d="M37.7,104"/>
	<g>
		<path fill="#363636" d="M35.9,105.2c1.2,0,6.6-2.4,3.8-2.4C38.4,102.8,33,105.2,35.9,105.2L35.9,105.2z"/>
	</g>
</g>
<g>
	<g>
		<path fill="#363636" d="M43.6,141.7c0.9-8.8,1.4-17.6,1.5-26.5c0.1-5.2,1.7-22.5-6.4-23.1c0.6,0.5,1.2,1.1,1.9,1.6c0-2,0-4,0-5.9
			c0-2.3,0.4-2.5,2-4.7c0.6-0.8,3.5-3.7,3-4.9c-0.7-1.7-1.4-3.4-2.1-5.1c-0.9-2.1-1.7-4.1-2.6-6.2c-0.6-1.4-0.8,0.7-0.6,0.5
			c0.6-0.8,1.2-1.5,1.7-2.3c2.7-3.5,5.4-7,8.1-10.5C50.6,54,51,53,50,52.5c-8-4.3-16-8.7-24-13c-0.4,1-0.7,2-1.1,3c4-1.7,8-3.3,12-5
			c1.2-0.5,2.5-2,1.1-3c-7.7-5.7-15.3-11.3-23-17c-0.1,0.9-0.3,1.8-0.4,2.6c3.3-2.7,6.7-5.3,10-8c-1.2,0.2-2.4,0.4-3.6,0.7
			c14,3.3,28,6.7,42,10c1.1,0.3,6.4-1.2,4.4-3c-6-5.3-12-10.7-18-16c-1.2,1-2.5,2.1-3.7,3.1c5.7,0,11.3,0,17,0c3.2,0,6.3,0,9.5,0
			c2.1,0,0.3-0.3,2.4,0.4c11.2,3.8,22.3,7.7,33.5,11.5c1.2,0.4,4.6-0.3,4.6-2.1c0-4,0-8,0-12c-1.3,0.7-2.7,1.4-4,2.2
			c2.9,0,5.8,0,8.7,0c1.4,0,2.7,0.5,1.2-0.3c0.7,0.4,1.4,0.7,2.1,1.1c6.4,3.4,12.8,6.8,19.2,10.1c8.5,4.5,17.1,8.8,25.7,13.1
			c7,3.4,14,6.8,21,10.2c3.8,1.9,6.2,2.5,7.9,5c4.1,6,8.2,12.1,12.3,18.1c2.5,3.7,3,4.3,4.4,8.2c3.4,10.1,6.9,20.1,10.3,30.2
			c1.3,3.8,2.6,7.7,3.9,11.5c0.8,2.4,0.5,4.8,0.5,8c0,2,2.9,1.7,4.1,1.2c3.2-1.4,6.4-2.9,9.5-4.3c2.3-1,4.5-2,6.8-3.1
			c0.8-0.4,1.6-0.7,2.4-1.1c1.6-0.7,1.6-0.1-0.9-0.1c2.1,0,4.2,0,6.2,0c0.8,0,1.7,0,2.5,0c-1.4,0-1.8-1-0.5,0.3
			c1.6,1.6,3.3,3.3,4.9,4.9c0.7,0.7,1.5,1.5,2.2,2.2c1.1,1.1,0.7,0.5,0.7,0.4c0,4.1,0,8.2,0,12.3c0,1,1.9-1.5,0.5-0.7
			c-0.7,0.4-1.3,0.7-2,1.1c-2.4,1.4-4.8,2.7-7.2,4.1c-2.1,1.2-6.1,2.5-7.4,4.8c-1.9,3.6-3.9,7.1-5.8,10.7c1.3-0.6,2.5-1.1,3.8-1.7
			c-5.3,0-10.7,0-16,0c-1.1,0-4,0.5-4,2.2c0,11.3,0,22.6,0,34c0,8.7,0.7,16.5-5.9,23.5c-5.7,6.1-15.5,9.3-23.1,12.2
			c-9.1,3.5-18.6,6.4-28.2,7.8c-4.7,0.7-9.5,0.1-14.2,0c-16.2-0.6-32.4-1.3-48.5-3.1C96,228.5,86,227,76.4,224
			c-3.4-1.1-6.8-2.4-9.7-4.5c-3.7-2.6-5.2-7.6-7.4-11.4c-7.8-13.7-19.5-28-19-44.7C40.6,156.3,42.5,148.9,43.6,141.7
			c0.4-2.6-5.5-1.7-5.8,0.6c-0.6,4.1-1.3,8.1-1.9,12.2c-0.9,5.8-1.8,11.2-0.9,17.1c1,6.4,3.9,12.5,6.9,18.3c2.8,5.3,5.9,10.4,9,15.5
			c2.8,4.6,4.9,9.7,7.9,14.1c2.8,4.3,8.8,6.4,13.4,7.9c15.9,5.4,33.5,6.5,50,7.7c12.8,0.9,25.7,0.9,38.4,1.9
			c11.5,0.9,24.4-3.9,35.1-7.7c11.5-4.1,25.6-8.9,32.5-19.7c5.5-8.6,3.4-18.3,3.4-27c0-9.2,0-18.5,0-27.7c-1.3,0.7-2.7,1.4-4,2.2
			c5.3,0,10.7,0,16,0c1.3,0,3.1-0.4,3.8-1.7c1.2-2.3,2.5-4.5,3.7-6.8c0.7-1.3,1.4-2.6,2.1-3.9c0.5-1-1.2,0.9-0.5,0.4
			c0.4-0.2,0.7-0.4,1.1-0.6c4.9-2.7,9.8-5.5,14.7-8.2c0.4-0.2,1.1-0.9,1.1-1.4c0-2.5,0-5,0-7.5c0-1.3,0.8-5.4-0.3-6.5
			c-2.1-2.1-4.3-4.3-6.4-6.4c-1.4-1.4-2.6-3.2-4.6-3.2c-5.5,0-9.5-0.2-14.4,2.1c-5.4,2.5-10.9,4.9-16.3,7.4c1.4,0.4,2.8,0.8,4.1,1.2
			c0-4.3,0-7.3-1.3-11.2c-2.3-6.7-4.6-13.5-6.9-20.2c-3.2-9.4-5.3-19.5-10.9-27.7c-4.1-6.1-8.3-12.2-12.4-18.3c-2-3-3.8-3.6-7.1-5.3
			c-11.9-5.8-23.8-11.6-35.6-17.4c-7.9-3.9-15.6-8.3-23.4-12.4c-3.6-1.9-7.2-3.8-10.8-5.7c-3.1-1.6-8.9-0.4-12.3-0.4
			c-1.1,0-4,0.5-4,2.2c0,4,0,8,0,12c1.5-0.7,3.1-1.4,4.6-2.1C100.3,11.4,89.1,7.6,78,3.7c-3.8-1.3-8.2-0.6-12.2-0.6c-6,0-12,0-18,0
			c-0.9,0-5.6,1.4-3.7,3.1c6,5.3,12,10.7,18,16c1.5-1,2.9-2,4.4-3c-10.8-2.6-21.7-5.2-32.5-7.7c-3.2-0.8-7.5-2.7-10.9-2.4
			c-2.2,0.2-4,2.3-5.7,3.6c-2.2,1.7-4.3,3.5-6.5,5.2c-0.9,0.7-1.6,1.8-0.4,2.6c7.7,5.7,15.3,11.3,23,17c0.4-1,0.7-2,1.1-3
			c-4,1.7-8,3.3-12,5c-1,0.4-2.7,2.1-1.1,3c8,4.3,16,8.7,24,13c0-0.7-0.1-1.5-0.1-2.2c-3.3,4.3-6.7,8.7-10,13
			c-0.3,0.4-0.7,0.9-0.5,1.4c1,2.3,1.9,4.6,2.9,6.9c0.5,1.3,1.1,2.6,1.6,3.9c0.7,1.8,0.9,0,0,1.2c-1,1.4-4.5,4.7-4.5,6.5
			c0,2.7,0,5.3,0,8c0,1.1,0.9,1.5,1.9,1.6c1.2,0.1,2.1,6.9,2.3,8.5c0.6,5.4,0.5,10.9,0.3,16.3c-0.2,7.2-0.7,14.4-1.4,21.5
			C37.5,145,43.4,144,43.6,141.7L43.6,141.7z"/>
	</g>
</g>
<g>
	<g>
		<path fill="#363636" d="M24.7,107.9c-6.4-1.1-13.4-1-19.6,1.3c-13.6,5.1-6.5,20.5-1.1,29.1c0.8,1.2,2.9,1,3.9,0.4
			c7.2-3.5,11.6,4.3,12.8,11c0.4,2.2,5.7,4.4,7.5,4.7c4.1,0.9,7.1-1.6,7.4-5.7c0.2-3-5.7-2.2-5.9,0.4c-0.1,1.7,1.7,1.4,0.5,1
			c-0.8-0.3-1.5-0.8-2.2-1.2c-2.1-1.4-1.5-1.4-2.1-3.7c-1-4.2-3.3-8.2-7.1-10.3c-4.1-2.2-9.4-1.7-13.5,0.3c1.3,0.1,2.6,0.3,3.9,0.4
			c-3.8-6-11.8-20-0.8-23.3c4.4-1.3,9.6-1.1,14.1-0.3C25.6,112.6,28.6,108.5,24.7,107.9L24.7,107.9z"/>
	</g>
</g>
<g>
	<g>
		<path fill="#363636" d="M110.7,118c-9.9-1.1-20-1.6-30-1.6c-11.8,0-29.5-0.4-38.8,8.4c-2.3,2.2-4.9,6.8-2.4,9.7
			c4,4.6,9.2,8.2,14.6,11c17.9,9.2,43.8,6.4,58.9-7.2c7.4-6.6,8.2-15.7-1.5-20.2c-2.3-1.1-6.7,2.3-3.4,3.8
			c7.2,3.3,5.4,10.1,0.4,14.5c-8.5,7.7-22.4,10.8-33.5,10.2c-9.2-0.5-17.9-4.4-25.1-10c-1.8-1.4-3.5-3-5-4.7c-0.9-1-0.3-2.4,0.3-3.7
			c2.1-4.2,9-5.3,13.1-6.1c7.2-1.4,14.7-1.6,22-1.6c9.5,0,19.1,0.5,28.5,1.5C111.5,122.4,114.7,118.4,110.7,118z"/>
	</g>
</g>
<g>
	<g>
		<path fill="#363636" d="M152.9,118.9c-3.3,8-8.1,21-2.6,29c2.7,3.9,11.6,5.5,15.6,6.6c9.7,2.8,19.8,4.1,29.8,2.9
			c6-0.7,12.3-2.4,16.6-6.6c7-6.8,15.8-19.4,5.1-27.1c-5.5-3.9-12.8-4.6-19.2-5.9c-9.1-1.8-18.3-2.9-27.6-2.8
			c-5.4,0.1-10.8,0.8-15.9,2.6c-3.9,1.3-0.3,2.7,2.1,1.8c13.3-4.6,28.8-0.3,42.1,2c6.8,1.2,16.7,3.4,17.8,11.6c0.7,5-3,10.1-6,13.8
			c-3,3.7-5.1,5.7-9.6,7c-9.8,2.9-21,0.8-30.6-1.8c-4.5-1.3-10.2-2.6-14.1-5.4c-4.4-3.2-2.6-11.6-1.8-15.8c0.9-4.3,2.3-8.6,3.9-12.7
			C159.2,116.6,153.5,117.2,152.9,118.9z"/>
	</g>
</g>
<g>
	<g>
		<path fill="#363636" d="M120.8,129.8c2.8,11.5,24,5.4,31.4,2.9c3.4-1.1,2.7-4.1-0.8-3c-5.8,1.9-22.6,7.4-24.8-1.5
			C126.1,126.1,120.3,127.7,120.8,129.8L120.8,129.8z"/>
	</g>
</g>
<g>
	<g>
		<path fill="#363636" d="M237.7,141.7c1.2-6.9,5.1-20.6,14-19.7c2.7,0.3,6-3.7,2-4.1c-13.5-1.4-20,13.1-22,24.2
			C231.3,145.1,237.2,144.2,237.7,141.7L237.7,141.7z"/>
	</g>
</g>
<g>
	<g>
		<path fill="#363636" d="M14.1,126.6c3.6,2.5,8.2,4.1,12,0.9c0.3-0.2,0.5-0.5,0.8-0.8c0.2-0.2,0.5-0.5-0.2,0.1
			c-1.7,1.1-3.1,1.2-4.1,0.1c0,0.1,0.1,0.1,0.1,0.2c0.7,1.2,1.6,4.8,2.2,6.7c0.8,2.4,6.5,0.8,5.8-1.6c-0.7-2.3-1.3-4.7-2.3-6.8
			c-0.9-2-2.9-2.1-4.7-1.3c-0.6,0.2-1.1,0.7-1.5,1.2c-0.1,0.1-0.2,0.3-0.3,0.4c-0.5,0.5,0,0-0.2,0.2c0.6-0.4,1.5-0.2,0.7-0.4
			c-1.3-0.3-2.5-1.2-3.6-2C16.7,122.1,11.5,124.8,14.1,126.6L14.1,126.6z"/>
	</g>
</g>
<g>
	<g>
		<path fill="#363636" d="M72,131.2c4.8-3.1,11.7-1,16,3.5c1.2,1.2,6.6-0.9,5.4-2.1c-7-7.1-17.8-7-26-1.8c-1,0.6-0.7,1.4,0.4,1.5
			C69.3,132.4,70.8,131.9,72,131.2L72,131.2z"/>
	</g>
</g>
<g>
	<g>
		<path fill="#363636" d="M178.7,137.7c4.2-3.8,10-6.5,14.8-2.4c2,1.7,7-1.2,4.5-3.4c-7-5.9-17-2.5-23.2,3.1
			C171.9,137.7,176.5,139.7,178.7,137.7L178.7,137.7z"/>
	</g>
</g>
<g>
	<g>
		<path fill="#363636" d="M116.3,180c2.1-0.5,6.5-1,8-2.9c0.2-0.2,0.4-0.6,0.1-0.9c-1.5-1-4.8,0-6.4,0.2c-2.6,0.4-5.2,0.8-7.7,1.3
			c-1.5,0.3-5.4,2.5-1.7,2.5c6.8,0,13.5,0,20.2,0c6.3,0,14.8-1.3,19.4,3.7c1.1,1.2,6.5-0.9,5.4-2.1c-4.7-5.2-13.5-4.3-19.9-4.3
			c-7.6,0-15.2,0-22.7,0c-0.6,0.8-1.1,1.7-1.7,2.5c2.1-0.4,4.2-0.7,6.3-1.1c1.4-0.2,2.7-0.5,4.1-0.6c0.9-0.1,1.2-2,0.2-1.7
			c-1.3,0.4-2.7,0.7-4.1,1.1C112.3,178.8,112.9,180.9,116.3,180L116.3,180z"/>
	</g>
</g>
<g>
	<g>
		<path fill="#363636" d="M91.3,205c-1.4,0.2,0.9-0.1,1.3-0.2c1.6-0.2,3.2-0.4,4.8-0.6c5.7-0.7,11.4-1.1,17.2-1.2
			c15.4-0.5,32,0.7,46,7.8c2.2,1.1,7.3-1.9,4.5-3.3c-22.2-11.2-50.7-10.5-74.8-6.3C86.5,201.7,87.7,205.6,91.3,205L91.3,205z"/>
	</g>
</g>
<g>
	<g>
		<path fill="#363636" d="M113.1,235.4c-1.2,6-2.6,12.1-4,18c-1.1,4.7-2.4,9.4-3.8,14c-0.5,1.7-1.1,3.4-1.8,5
			c-0.3,0.7-0.6,1.4-1,2.1c-0.8,1.4-1,0.3,1.6-0.1c-0.9,0.1-4.9,1.7-2.7,2.9c6.7,3.7,13.3,7.3,20,11c1.3,0.7,4.2-0.1,5-1.3
			c5.1-8,9.9-16.2,14.2-24.7c2.9-5.6,5.6-11.4,7.4-17.5c0.9-3.2,2.2-8.2-0.6-10.9c-1.4-1.4-6.9,0.8-5.4,2.2c2.6,2.6,0.6,8-0.3,10.9
			c-1.9,6.2-4.9,12.1-7.9,17.9c-3.9,7.5-8.2,14.9-12.8,22c1.7-0.4,3.3-0.9,5-1.3c-6.7-3.7-13.3-7.3-20-11c-0.9,1-1.8,1.9-2.7,2.9
			c7.2-1.1,8.6-13.4,10.1-19c2.1-7.9,3.9-15.9,5.5-23.9C119.3,232.6,113.5,233.5,113.1,235.4L113.1,235.4z"/>
	</g>
</g>
<g>
	<g>
		<path fill="#363636" d="M98,274.8c-11.3,0.5-22.9,6.8-31.9,13.1c-28.5,20-45.1,53.8-56.2,85.6c-0.1,0.4,0.1,0.6,0.5,0.7
			c18.8,2.7,37.7,4.7,56.6,6.3c29.5,2.5,60.7,5.2,90,0c6.6-1.2,13.5-2.9,19.1-6.7c6.5-4.4,6.8-12.6,3.6-19.5
			c-1.9,0.6-3.7,1.2-5.6,1.8c3.2,1.7,6.3,3.3,9.5,5c1,0.5,6-0.2,5.6-1.8c-3.3-13.7-7.9-27.3-13.3-40.3c-6.7-16-17.1-39.3-35.7-44
			c-1.4-0.4-6.5,1.9-4.7,2.3c8.8,2.2,15.3,9.4,20.4,16.5c6.3,8.8,11,18.8,15.1,28.7c5.1,12.4,9.4,25.3,12.5,38.4
			c1.9-0.6,3.7-1.2,5.6-1.8c-3.2-1.7-6.3-3.3-9.5-5c-0.9-0.5-6.3,0.4-5.6,1.8c2.2,4.8,3.4,12.3-0.8,16.5c-2.8,2.8-7,4-10.7,5
			c-13,3.4-27.1,3.4-40.4,3.3c-29.8-0.1-59.7-2.9-89.3-6.5c-4.3-0.5-8.6-1.1-12.8-1.6c-1.2-0.2-2.4-0.3-3.6-0.5
			c-0.5-0.1-1.7-0.2-1.2-0.2c1.5,0.2,7.2-16.9,8.1-19c2.6-6.1,5.6-12.2,8.7-18.1c5.1-9.5,11-18.6,17.8-26.9
			c8.7-10.7,19.3-20.2,31.7-26.3c3.2-1.6,6.6-2.9,10.1-3.7c1.3-0.3,3-0.6,3.8-0.7c0,0,0.1,0,0.1,0C97.1,277.1,101.8,274.6,98,274.8
			L98,274.8z"/>
	</g>
</g>
<line fill="none" stroke="#363636" stroke-width="2" stroke-miterlimit="10" x1="59.2" y1="51" x2="80.2" y2="75"/>
<line fill="none" stroke="#363636" stroke-width="2" stroke-miterlimit="10" x1="90.7" y1="63" x2="103.7" y2="74"/>
<line fill="none" stroke="#363636" stroke-width="2" stroke-miterlimit="10" x1="137.8" y1="63" x2="151.8" y2="86"/>
<line fill="none" stroke="#363636" stroke-width="2" stroke-miterlimit="10" x1="116" y1="63" x2="126.7" y2="74.5"/>
<line fill="none" stroke="#363636" stroke-width="2" stroke-miterlimit="10" x1="182.4" y1="43" x2="201" y2="74.5"/>
<line fill="none" stroke="#363636" stroke-width="2" stroke-miterlimit="10" x1="165.8" y1="63" x2="176.7" y2="80"/>
</svg>
