<?xml version="1.0" encoding="utf-8"?>
<!-- Generator: Adobe Illustrator 18.0.0, SVG Export Plug-In . SVG Version: 6.00 Build 0)  -->
<!DOCTYPE svg PUBLIC "-//W3C//DTD SVG 1.1//EN" "http://www.w3.org/Graphics/SVG/1.1/DTD/svg11.dtd">
<svg version="1.1" id="Layer_1" xmlns="http://www.w3.org/2000/svg" xmlns:xlink="http://www.w3.org/1999/xlink" x="0px" y="0px"
	 viewBox="0 0 88.5 80.2" enable-background="new 0 0 88.5 80.2" xml:space="preserve">
<path fill="#363636" d="M83.1,0H5.3C2.4,0,0,2.4,0,5.3V75c0,2.9,2.4,5.3,5.3,5.3h77.8c2.9,0,5.3-2.4,5.3-5.3V5.3
	C88.4,2.4,86,0,83.1,0z M23.6,8.9c0-1.1,0.9-2,2-2h2c1.1,0,2,0.9,2,2v2.2c0,1.1-0.9,2-2,2h-2c-1.1,0-2-0.9-2-2V8.9z M14.4,8.9
	c0-1.1,0.9-2,2-2h2c1.1,0,2,0.9,2,2v2.2c0,1.1-0.9,2-2,2h-2c-1.1,0-2-0.9-2-2V8.9z M5.3,11.1V8.9c0-1.1,0.9-2,2-2h2c1.1,0,2,0.9,2,2
	v2.2c0,1.1-0.9,2-2,2h-2C6.2,13.1,5.3,12.2,5.3,11.1z M82,73.9H6.4V19H82V73.9z"/>
<rect x="14.4" y="36.3" fill="none" width="81.9" height="26.7"/>
<text transform="matrix(1 0 0 1 14.4224 52.8872)" fill="#363636" font-family="'Linotte-SemiBold'" font-size="22.8459">js(ob);</text>
</svg>
