<?xml version="1.0" encoding="utf-8"?>
<!-- Generator: Adobe Illustrator 18.0.0, SVG Export Plug-In . SVG Version: 6.00 Build 0)  -->
<!DOCTYPE svg PUBLIC "-//W3C//DTD SVG 1.1//EN" "http://www.w3.org/Graphics/SVG/1.1/DTD/svg11.dtd">
<svg version="1.1" id="Layer_1" xmlns="http://www.w3.org/2000/svg" xmlns:xlink="http://www.w3.org/1999/xlink" x="0px" y="0px"
	 viewBox="0 0 88.5 80.2" enable-background="new 0 0 88.5 80.2" xml:space="preserve">
<path fill="#363636" d="M83.1,0H5.3C2.4,0,0,2.4,0,5.3V75c0,2.9,2.4,5.3,5.3,5.3h77.8c2.9,0,5.3-2.4,5.3-5.3V5.3
	C88.4,2.4,86,0,83.1,0z M23.6,8.9c0-1.1,0.9-2,2-2h2c1.1,0,2,0.9,2,2v2.2c0,1.1-0.9,2-2,2h-2c-1.1,0-2-0.9-2-2V8.9z M14.4,8.9
	c0-1.1,0.9-2,2-2h2c1.1,0,2,0.9,2,2v2.2c0,1.1-0.9,2-2,2h-2c-1.1,0-2-0.9-2-2V8.9z M5.3,11.1V8.9c0-1.1,0.9-2,2-2h2c1.1,0,2,0.9,2,2
	v2.2c0,1.1-0.9,2-2,2h-2C6.2,13.1,5.3,12.2,5.3,11.1z M82.1,74H6.4V19h75.7V74z"/>
<g>
	<path fill="#363636" d="M14,51.5c0-0.9,0.7-1.6,1.6-1.6c0.9,0,1.6,0.6,1.6,1.5c0,1-0.7,1.5-1.7,1.5C14.6,53,14,52.4,14,51.5z"/>
	<path fill="#363636" d="M27.6,43.9c0,0.5-0.4,1.2-1,1.2c-0.4,0-0.8-0.2-1-0.3c-0.4-0.2-0.8-0.3-1.3-0.3c-1.7,0-2.8,1.8-2.8,3.3
		c0,1.7,1.2,3,2.8,3c0.8,0,1.3-0.2,1.7-0.5c0.3-0.1,0.6-0.3,0.9-0.3c0.6,0,1,0.7,1,1.3c0,0.3-0.2,0.6-0.4,0.8c-0.7,0.5-1.7,1-3.2,1
		c-3.5,0-5.2-2.8-5.2-5.1c0-2.9,2.1-5.8,5.4-5.8c0.9,0,1.9,0.2,2.7,0.7C27.5,43.2,27.6,43.5,27.6,43.9z"/>
	<path fill="#363636" d="M36.8,42.8c0.4,0.2,0.7,0.4,0.7,0.9c0,0.6-0.3,1.1-1,1.1c-0.7,0-1.5-0.5-2.8-0.5c-1.1,0-1.9,0.5-1.9,1.3
		c0,0.8,1,0.9,2.2,1.1c2.2,0.3,3.9,1,3.9,3.1c0,2.1-1.7,3.4-4.3,3.4c-2,0-4.1-0.7-4.1-1.5c0-0.6,0.3-1.2,1-1.2
		c0.8,0,1.7,0.7,3.3,0.7c1,0,1.8-0.4,1.8-1.3c0-0.9-0.8-1.1-2.2-1.3c-1.8-0.3-3.8-0.7-3.8-2.8c0-2,2.1-3.4,4.2-3.4
		C35,42.3,36.1,42.5,36.8,42.8z"/>
	<path fill="#363636" d="M47.2,42.8c0.4,0.2,0.7,0.4,0.7,0.9c0,0.6-0.3,1.1-1,1.1c-0.7,0-1.5-0.5-2.8-0.5c-1.1,0-1.9,0.5-1.9,1.3
		c0,0.8,1,0.9,2.2,1.1c2.2,0.3,3.9,1,3.9,3.1c0,2.1-1.7,3.4-4.3,3.4c-2,0-4.1-0.7-4.1-1.5c0-0.6,0.3-1.2,1-1.2
		c0.8,0,1.7,0.7,3.3,0.7c1,0,1.8-0.4,1.8-1.3c0-0.9-0.8-1.1-2.2-1.3c-1.8-0.3-3.8-0.7-3.8-2.8c0-2,2.1-3.4,4.2-3.4
		C45.4,42.3,46.5,42.5,47.2,42.8z"/>
	<path fill="#363636" d="M56,45.4c0.5-0.5,1.3-0.8,1.3-1.5c0-1.6-0.8-2.6-0.8-4.3c0-1.9,1.6-3.4,3.7-3.4c0.6,0,1,0.5,1,1
		c0,0.5-0.3,1.1-0.8,1.1c-0.9,0-1.6,0.7-1.6,1.6c0,1.6,0.8,2.6,0.8,4.2c0,1.3-1,2.1-2.1,2.6c1.1,0.6,2.1,1.3,2.1,2.6
		c0,1.6-0.8,2.8-0.8,4.5c0,0.8,0.6,1.6,1.4,1.6c0.5,0,0.8,0.4,0.8,1c0,0.6-0.3,1-1,1c-2.4,0-3.7-1.7-3.7-3.5c0-1.5,0.8-2.8,0.9-4.4
		c0-0.6-0.8-1-1.3-1.4c-0.5-0.3-0.9-0.7-0.9-1.3C55.1,46.1,55.5,45.8,56,45.4z"/>
	<path fill="#363636" d="M72.8,48.1c-0.5,0.5-1.3,0.8-1.3,1.4c0.1,1.6,0.9,2.8,0.9,4.4c0,1.8-1.3,3.5-3.7,3.5c-0.6,0-1-0.4-1-1.1
		c0-0.6,0.4-1,0.8-1c0.9,0,1.4-0.8,1.4-1.6c0-1.6-0.8-2.9-0.8-4.5c0-1.2,1.1-2,2.1-2.6c-1.1-0.5-2.1-1.3-2.1-2.6
		c0-1.6,0.8-2.7,0.8-4.2c0-0.8-0.7-1.6-1.6-1.6c-0.5,0-0.8-0.5-0.8-1.1c0-0.6,0.4-1,1-1c2.1,0,3.7,1.5,3.7,3.4
		c0,1.7-0.8,2.7-0.8,4.3c0,0.7,0.8,1.1,1.3,1.5c0.5,0.4,0.9,0.6,0.9,1.3C73.7,47.4,73.3,47.7,72.8,48.1z"/>
</g>
</svg>
